%FSLAX45Y45*%
G04 Gerber Fmt 4.5, Leading zero omitted, Abs format (unit mm)*
G04 Created by KiCad (PCBNEW (5.1.10)-1) date 2021-12-04 16:45:13*
%MOMM*%
%LPD*%
G01*
G04 APERTURE LIST*
%TA.AperFunction,Profile*%
%ADD10C,0.038100*%
%TD*%
%ADD11C,0.200000*%
%ADD12C,0.300000*%
G04 APERTURE END LIST*
D10*
X6604000Y-10922000D02*
X6495000Y-10922000D01*
X5722000Y-10922000D02*
X5745000Y-10922000D01*
X5588000Y-10922000D02*
X5722000Y-10922000D01*
X2540000Y-10922000D02*
X5588000Y-10922000D01*
X7874000Y-10922000D02*
X6604000Y-10922000D01*
X7874000Y-6096000D02*
X7874000Y-10922000D01*
X2540000Y-6096000D02*
X7874000Y-6096000D01*
X2540000Y-10922000D02*
X2540000Y-6096000D01*
D11*
D12*
X2824523Y-11392714D02*
X2824523Y-11092714D01*
X2895952Y-11092714D01*
X2938809Y-11107000D01*
X2967381Y-11135572D01*
X2981666Y-11164143D01*
X2995952Y-11221286D01*
X2995952Y-11264143D01*
X2981666Y-11321286D01*
X2967381Y-11349857D01*
X2938809Y-11378429D01*
X2895952Y-11392714D01*
X2824523Y-11392714D01*
X3124523Y-11392714D02*
X3124523Y-11192714D01*
X3124523Y-11249857D02*
X3138809Y-11221286D01*
X3153095Y-11207000D01*
X3181666Y-11192714D01*
X3210238Y-11192714D01*
X3310238Y-11392714D02*
X3310238Y-11192714D01*
X3310238Y-11092714D02*
X3295952Y-11107000D01*
X3310238Y-11121286D01*
X3324523Y-11107000D01*
X3310238Y-11092714D01*
X3310238Y-11121286D01*
X3495952Y-11392714D02*
X3467381Y-11378429D01*
X3453095Y-11349857D01*
X3453095Y-11092714D01*
X3653095Y-11392714D02*
X3624523Y-11378429D01*
X3610238Y-11349857D01*
X3610238Y-11092714D01*
X3995952Y-11392714D02*
X3995952Y-11092714D01*
X4095952Y-11307000D01*
X4195952Y-11092714D01*
X4195952Y-11392714D01*
X4467381Y-11392714D02*
X4467381Y-11235571D01*
X4453095Y-11207000D01*
X4424523Y-11192714D01*
X4367381Y-11192714D01*
X4338809Y-11207000D01*
X4467381Y-11378429D02*
X4438809Y-11392714D01*
X4367381Y-11392714D01*
X4338809Y-11378429D01*
X4324523Y-11349857D01*
X4324523Y-11321286D01*
X4338809Y-11292714D01*
X4367381Y-11278429D01*
X4438809Y-11278429D01*
X4467381Y-11264143D01*
X4610238Y-11192714D02*
X4610238Y-11492714D01*
X4610238Y-11207000D02*
X4638809Y-11192714D01*
X4695952Y-11192714D01*
X4724523Y-11207000D01*
X4738809Y-11221286D01*
X4753095Y-11249857D01*
X4753095Y-11335571D01*
X4738809Y-11364143D01*
X4724523Y-11378429D01*
X4695952Y-11392714D01*
X4638809Y-11392714D01*
X4610238Y-11378429D01*
X4881666Y-11364143D02*
X4895952Y-11378429D01*
X4881666Y-11392714D01*
X4867381Y-11378429D01*
X4881666Y-11364143D01*
X4881666Y-11392714D01*
X4881666Y-11207000D02*
X4895952Y-11221286D01*
X4881666Y-11235571D01*
X4867381Y-11221286D01*
X4881666Y-11207000D01*
X4881666Y-11235571D01*
M02*
