M48
; DRILL file {KiCad (5.1.10)-1} date 12/04/21 16:45:12
; FORMAT={-:-/ absolute / metric / decimal}
; #@! TF.CreationDate,2021-12-04T16:45:12+01:00
; #@! TF.GenerationSoftware,Kicad,Pcbnew,(5.1.10)-1
; #@! TF.FileFunction,Plated,1,4,PTH
FMAT,2
METRIC
T1C0.300
T2C0.600
T3C0.650
T4C1.000
%
G90
G05
T1
X34.0Y-72.0
X34.072Y-71.148
X34.155Y-70.355
X34.4Y-67.2
X34.4Y-67.927
X34.4Y-68.654
X34.4Y-69.4
X40.6Y-79.0
X41.4Y-79.0
X42.2Y-74.0
X43.0Y-78.8
X43.0Y-81.0
X43.6Y-70.0
X44.0Y-87.6
X44.0Y-106.0
X44.2Y-82.2
X44.6Y-79.2
X45.674Y-79.326
X45.7Y-99.8
X45.995Y-78.397
X46.2Y-67.0
X46.2Y-67.8
X46.2Y-68.6
X46.6Y-78.8
X47.0Y-62.0
X47.0Y-62.727
X47.0Y-63.6
X47.4Y-78.6
X48.8Y-106.0
X49.4Y-89.4
X50.0Y-91.2
X51.2Y-69.6
X51.2Y-70.4
X51.2Y-71.2
X51.2Y-72.0
X51.2Y-72.8
X51.2Y-73.6
X51.2Y-74.6
X53.0Y-103.3
X55.2Y-103.3
X55.8Y-99.0
X57.0Y-95.6
X58.0Y-101.2
X59.2Y-98.6
T4
X27.94Y-71.12
X27.94Y-73.66
X27.94Y-76.2
X27.94Y-78.74
X27.94Y-81.28
X27.94Y-83.82
X27.94Y-86.36
X27.94Y-88.9
X27.94Y-91.44
X27.94Y-93.98
X27.94Y-96.52
X27.94Y-99.06
X27.94Y-101.6
X27.94Y-104.14
X27.94Y-106.68
X57.98Y-64.86
X57.98Y-67.4
X60.52Y-64.86
X60.52Y-67.4
X63.06Y-64.86
X63.06Y-67.4
X65.18Y-88.5
X65.18Y-91.04
X65.18Y-93.58
X65.6Y-64.86
X65.6Y-67.4
X68.14Y-64.86
X68.14Y-67.4
X76.2Y-71.12
X76.2Y-73.66
X76.2Y-76.2
X76.2Y-78.74
X76.2Y-81.28
X76.2Y-83.82
X76.2Y-86.36
X76.2Y-88.9
X76.2Y-91.44
X76.2Y-93.98
X76.2Y-96.52
X76.2Y-99.06
X76.2Y-101.6
X76.2Y-104.14
X76.2Y-106.68
T2
X57.025Y-107.42G85X57.025Y-108.12
G05
X65.375Y-107.42G85X65.375Y-108.12
G05
T3
X58.975Y-104.67G85X58.975Y-104.87
G05
X63.425Y-104.67G85X63.425Y-104.87
G05
T0
M30
