G04 #@! TF.GenerationSoftware,KiCad,Pcbnew,(5.1.10)-1*
G04 #@! TF.CreationDate,2021-12-04T16:44:40+01:00*
G04 #@! TF.ProjectId,nRF52832_development_board_schematic,6e524635-3238-4333-925f-646576656c6f,1*
G04 #@! TF.SameCoordinates,Original*
G04 #@! TF.FileFunction,Paste,Top*
G04 #@! TF.FilePolarity,Positive*
%FSLAX46Y46*%
G04 Gerber Fmt 4.6, Leading zero omitted, Abs format (unit mm)*
G04 Created by KiCad (PCBNEW (5.1.10)-1) date 2021-12-04 16:44:40*
%MOMM*%
%LPD*%
G01*
G04 APERTURE LIST*
%ADD10R,0.600000X1.500000*%
%ADD11C,0.152400*%
%ADD12R,0.900000X1.300000*%
%ADD13R,0.300000X0.850000*%
%ADD14R,2.900000X1.900000*%
%ADD15R,0.400000X1.350000*%
G04 APERTURE END LIST*
D10*
X48850000Y-100175000D03*
X48850000Y-107825000D03*
X44050000Y-100175000D03*
X44050000Y-107825000D03*
G36*
G01*
X42599999Y-92700000D02*
X43900001Y-92700000D01*
G75*
G02*
X44150000Y-92949999I0J-249999D01*
G01*
X44150000Y-93775001D01*
G75*
G02*
X43900001Y-94025000I-249999J0D01*
G01*
X42599999Y-94025000D01*
G75*
G02*
X42350000Y-93775001I0J249999D01*
G01*
X42350000Y-92949999D01*
G75*
G02*
X42599999Y-92700000I249999J0D01*
G01*
G37*
G36*
G01*
X42599999Y-89575000D02*
X43900001Y-89575000D01*
G75*
G02*
X44150000Y-89824999I0J-249999D01*
G01*
X44150000Y-90650001D01*
G75*
G02*
X43900001Y-90900000I-249999J0D01*
G01*
X42599999Y-90900000D01*
G75*
G02*
X42350000Y-90650001I0J249999D01*
G01*
X42350000Y-89824999D01*
G75*
G02*
X42599999Y-89575000I249999J0D01*
G01*
G37*
G36*
G01*
X45949999Y-92700000D02*
X47250001Y-92700000D01*
G75*
G02*
X47500000Y-92949999I0J-249999D01*
G01*
X47500000Y-93775001D01*
G75*
G02*
X47250001Y-94025000I-249999J0D01*
G01*
X45949999Y-94025000D01*
G75*
G02*
X45700000Y-93775001I0J249999D01*
G01*
X45700000Y-92949999D01*
G75*
G02*
X45949999Y-92700000I249999J0D01*
G01*
G37*
G36*
G01*
X45949999Y-89575000D02*
X47250001Y-89575000D01*
G75*
G02*
X47500000Y-89824999I0J-249999D01*
G01*
X47500000Y-90650001D01*
G75*
G02*
X47250001Y-90900000I-249999J0D01*
G01*
X45949999Y-90900000D01*
G75*
G02*
X45700000Y-90650001I0J249999D01*
G01*
X45700000Y-89824999D01*
G75*
G02*
X45949999Y-89575000I249999J0D01*
G01*
G37*
G36*
G01*
X48200000Y-62000000D02*
X48200000Y-61700000D01*
G75*
G02*
X48350000Y-61550000I150000J0D01*
G01*
X49650000Y-61550000D01*
G75*
G02*
X49800000Y-61700000I0J-150000D01*
G01*
X49800000Y-62000000D01*
G75*
G02*
X49650000Y-62150000I-150000J0D01*
G01*
X48350000Y-62150000D01*
G75*
G02*
X48200000Y-62000000I0J150000D01*
G01*
G37*
G36*
G01*
X48200000Y-62850000D02*
X48200000Y-62550000D01*
G75*
G02*
X48350000Y-62400000I150000J0D01*
G01*
X49650000Y-62400000D01*
G75*
G02*
X49800000Y-62550000I0J-150000D01*
G01*
X49800000Y-62850000D01*
G75*
G02*
X49650000Y-63000000I-150000J0D01*
G01*
X48350000Y-63000000D01*
G75*
G02*
X48200000Y-62850000I0J150000D01*
G01*
G37*
G36*
G01*
X48200000Y-63700000D02*
X48200000Y-63400000D01*
G75*
G02*
X48350000Y-63250000I150000J0D01*
G01*
X49650000Y-63250000D01*
G75*
G02*
X49800000Y-63400000I0J-150000D01*
G01*
X49800000Y-63700000D01*
G75*
G02*
X49650000Y-63850000I-150000J0D01*
G01*
X48350000Y-63850000D01*
G75*
G02*
X48200000Y-63700000I0J150000D01*
G01*
G37*
G36*
G01*
X48200000Y-64550000D02*
X48200000Y-64250000D01*
G75*
G02*
X48350000Y-64100000I150000J0D01*
G01*
X49650000Y-64100000D01*
G75*
G02*
X49800000Y-64250000I0J-150000D01*
G01*
X49800000Y-64550000D01*
G75*
G02*
X49650000Y-64700000I-150000J0D01*
G01*
X48350000Y-64700000D01*
G75*
G02*
X48200000Y-64550000I0J150000D01*
G01*
G37*
G36*
G01*
X48200000Y-65400000D02*
X48200000Y-65100000D01*
G75*
G02*
X48350000Y-64950000I150000J0D01*
G01*
X49650000Y-64950000D01*
G75*
G02*
X49800000Y-65100000I0J-150000D01*
G01*
X49800000Y-65400000D01*
G75*
G02*
X49650000Y-65550000I-150000J0D01*
G01*
X48350000Y-65550000D01*
G75*
G02*
X48200000Y-65400000I0J150000D01*
G01*
G37*
G36*
G01*
X48200000Y-66250000D02*
X48200000Y-65950000D01*
G75*
G02*
X48350000Y-65800000I150000J0D01*
G01*
X49650000Y-65800000D01*
G75*
G02*
X49800000Y-65950000I0J-150000D01*
G01*
X49800000Y-66250000D01*
G75*
G02*
X49650000Y-66400000I-150000J0D01*
G01*
X48350000Y-66400000D01*
G75*
G02*
X48200000Y-66250000I0J150000D01*
G01*
G37*
G36*
G01*
X48200000Y-67100000D02*
X48200000Y-66800000D01*
G75*
G02*
X48350000Y-66650000I150000J0D01*
G01*
X49650000Y-66650000D01*
G75*
G02*
X49800000Y-66800000I0J-150000D01*
G01*
X49800000Y-67100000D01*
G75*
G02*
X49650000Y-67250000I-150000J0D01*
G01*
X48350000Y-67250000D01*
G75*
G02*
X48200000Y-67100000I0J150000D01*
G01*
G37*
G36*
G01*
X48200000Y-67950000D02*
X48200000Y-67650000D01*
G75*
G02*
X48350000Y-67500000I150000J0D01*
G01*
X49650000Y-67500000D01*
G75*
G02*
X49800000Y-67650000I0J-150000D01*
G01*
X49800000Y-67950000D01*
G75*
G02*
X49650000Y-68100000I-150000J0D01*
G01*
X48350000Y-68100000D01*
G75*
G02*
X48200000Y-67950000I0J150000D01*
G01*
G37*
G36*
G01*
X48200000Y-68800000D02*
X48200000Y-68500000D01*
G75*
G02*
X48350000Y-68350000I150000J0D01*
G01*
X49650000Y-68350000D01*
G75*
G02*
X49800000Y-68500000I0J-150000D01*
G01*
X49800000Y-68800000D01*
G75*
G02*
X49650000Y-68950000I-150000J0D01*
G01*
X48350000Y-68950000D01*
G75*
G02*
X48200000Y-68800000I0J150000D01*
G01*
G37*
G36*
G01*
X48200000Y-69650000D02*
X48200000Y-69350000D01*
G75*
G02*
X48350000Y-69200000I150000J0D01*
G01*
X49650000Y-69200000D01*
G75*
G02*
X49800000Y-69350000I0J-150000D01*
G01*
X49800000Y-69650000D01*
G75*
G02*
X49650000Y-69800000I-150000J0D01*
G01*
X48350000Y-69800000D01*
G75*
G02*
X48200000Y-69650000I0J150000D01*
G01*
G37*
G36*
G01*
X48200000Y-70500000D02*
X48200000Y-70200000D01*
G75*
G02*
X48350000Y-70050000I150000J0D01*
G01*
X49650000Y-70050000D01*
G75*
G02*
X49800000Y-70200000I0J-150000D01*
G01*
X49800000Y-70500000D01*
G75*
G02*
X49650000Y-70650000I-150000J0D01*
G01*
X48350000Y-70650000D01*
G75*
G02*
X48200000Y-70500000I0J150000D01*
G01*
G37*
G36*
G01*
X48200000Y-71350000D02*
X48200000Y-71050000D01*
G75*
G02*
X48350000Y-70900000I150000J0D01*
G01*
X49650000Y-70900000D01*
G75*
G02*
X49800000Y-71050000I0J-150000D01*
G01*
X49800000Y-71350000D01*
G75*
G02*
X49650000Y-71500000I-150000J0D01*
G01*
X48350000Y-71500000D01*
G75*
G02*
X48200000Y-71350000I0J150000D01*
G01*
G37*
G36*
G01*
X48200000Y-72200000D02*
X48200000Y-71900000D01*
G75*
G02*
X48350000Y-71750000I150000J0D01*
G01*
X49650000Y-71750000D01*
G75*
G02*
X49800000Y-71900000I0J-150000D01*
G01*
X49800000Y-72200000D01*
G75*
G02*
X49650000Y-72350000I-150000J0D01*
G01*
X48350000Y-72350000D01*
G75*
G02*
X48200000Y-72200000I0J150000D01*
G01*
G37*
G36*
G01*
X48200000Y-73050000D02*
X48200000Y-72750000D01*
G75*
G02*
X48350000Y-72600000I150000J0D01*
G01*
X49650000Y-72600000D01*
G75*
G02*
X49800000Y-72750000I0J-150000D01*
G01*
X49800000Y-73050000D01*
G75*
G02*
X49650000Y-73200000I-150000J0D01*
G01*
X48350000Y-73200000D01*
G75*
G02*
X48200000Y-73050000I0J150000D01*
G01*
G37*
G36*
G01*
X48200000Y-73900000D02*
X48200000Y-73600000D01*
G75*
G02*
X48350000Y-73450000I150000J0D01*
G01*
X49650000Y-73450000D01*
G75*
G02*
X49800000Y-73600000I0J-150000D01*
G01*
X49800000Y-73900000D01*
G75*
G02*
X49650000Y-74050000I-150000J0D01*
G01*
X48350000Y-74050000D01*
G75*
G02*
X48200000Y-73900000I0J150000D01*
G01*
G37*
G36*
G01*
X48200000Y-74750000D02*
X48200000Y-74450000D01*
G75*
G02*
X48350000Y-74300000I150000J0D01*
G01*
X49650000Y-74300000D01*
G75*
G02*
X49800000Y-74450000I0J-150000D01*
G01*
X49800000Y-74750000D01*
G75*
G02*
X49650000Y-74900000I-150000J0D01*
G01*
X48350000Y-74900000D01*
G75*
G02*
X48200000Y-74750000I0J150000D01*
G01*
G37*
G36*
G01*
X37700000Y-77450000D02*
X37700000Y-76150000D01*
G75*
G02*
X37850000Y-76000000I150000J0D01*
G01*
X38150000Y-76000000D01*
G75*
G02*
X38300000Y-76150000I0J-150000D01*
G01*
X38300000Y-77450000D01*
G75*
G02*
X38150000Y-77600000I-150000J0D01*
G01*
X37850000Y-77600000D01*
G75*
G02*
X37700000Y-77450000I0J150000D01*
G01*
G37*
G36*
G01*
X38550000Y-77450000D02*
X38550000Y-76150000D01*
G75*
G02*
X38700000Y-76000000I150000J0D01*
G01*
X39000000Y-76000000D01*
G75*
G02*
X39150000Y-76150000I0J-150000D01*
G01*
X39150000Y-77450000D01*
G75*
G02*
X39000000Y-77600000I-150000J0D01*
G01*
X38700000Y-77600000D01*
G75*
G02*
X38550000Y-77450000I0J150000D01*
G01*
G37*
G36*
G01*
X39400000Y-77450000D02*
X39400000Y-76150000D01*
G75*
G02*
X39550000Y-76000000I150000J0D01*
G01*
X39850000Y-76000000D01*
G75*
G02*
X40000000Y-76150000I0J-150000D01*
G01*
X40000000Y-77450000D01*
G75*
G02*
X39850000Y-77600000I-150000J0D01*
G01*
X39550000Y-77600000D01*
G75*
G02*
X39400000Y-77450000I0J150000D01*
G01*
G37*
G36*
G01*
X40250000Y-77450000D02*
X40250000Y-76150000D01*
G75*
G02*
X40400000Y-76000000I150000J0D01*
G01*
X40700000Y-76000000D01*
G75*
G02*
X40850000Y-76150000I0J-150000D01*
G01*
X40850000Y-77450000D01*
G75*
G02*
X40700000Y-77600000I-150000J0D01*
G01*
X40400000Y-77600000D01*
G75*
G02*
X40250000Y-77450000I0J150000D01*
G01*
G37*
G36*
G01*
X41100000Y-77450000D02*
X41100000Y-76150000D01*
G75*
G02*
X41250000Y-76000000I150000J0D01*
G01*
X41550000Y-76000000D01*
G75*
G02*
X41700000Y-76150000I0J-150000D01*
G01*
X41700000Y-77450000D01*
G75*
G02*
X41550000Y-77600000I-150000J0D01*
G01*
X41250000Y-77600000D01*
G75*
G02*
X41100000Y-77450000I0J150000D01*
G01*
G37*
G36*
G01*
X41950000Y-77450000D02*
X41950000Y-76150000D01*
G75*
G02*
X42100000Y-76000000I150000J0D01*
G01*
X42400000Y-76000000D01*
G75*
G02*
X42550000Y-76150000I0J-150000D01*
G01*
X42550000Y-77450000D01*
G75*
G02*
X42400000Y-77600000I-150000J0D01*
G01*
X42100000Y-77600000D01*
G75*
G02*
X41950000Y-77450000I0J150000D01*
G01*
G37*
G36*
G01*
X42800000Y-77450000D02*
X42800000Y-76150000D01*
G75*
G02*
X42950000Y-76000000I150000J0D01*
G01*
X43250000Y-76000000D01*
G75*
G02*
X43400000Y-76150000I0J-150000D01*
G01*
X43400000Y-77450000D01*
G75*
G02*
X43250000Y-77600000I-150000J0D01*
G01*
X42950000Y-77600000D01*
G75*
G02*
X42800000Y-77450000I0J150000D01*
G01*
G37*
G36*
G01*
X43650000Y-77450000D02*
X43650000Y-76150000D01*
G75*
G02*
X43800000Y-76000000I150000J0D01*
G01*
X44100000Y-76000000D01*
G75*
G02*
X44250000Y-76150000I0J-150000D01*
G01*
X44250000Y-77450000D01*
G75*
G02*
X44100000Y-77600000I-150000J0D01*
G01*
X43800000Y-77600000D01*
G75*
G02*
X43650000Y-77450000I0J150000D01*
G01*
G37*
G36*
G01*
X44500000Y-77450000D02*
X44500000Y-76150000D01*
G75*
G02*
X44650000Y-76000000I150000J0D01*
G01*
X44950000Y-76000000D01*
G75*
G02*
X45100000Y-76150000I0J-150000D01*
G01*
X45100000Y-77450000D01*
G75*
G02*
X44950000Y-77600000I-150000J0D01*
G01*
X44650000Y-77600000D01*
G75*
G02*
X44500000Y-77450000I0J150000D01*
G01*
G37*
G36*
G01*
X45350000Y-77450000D02*
X45350000Y-76150000D01*
G75*
G02*
X45500000Y-76000000I150000J0D01*
G01*
X45800000Y-76000000D01*
G75*
G02*
X45950000Y-76150000I0J-150000D01*
G01*
X45950000Y-77450000D01*
G75*
G02*
X45800000Y-77600000I-150000J0D01*
G01*
X45500000Y-77600000D01*
G75*
G02*
X45350000Y-77450000I0J150000D01*
G01*
G37*
G36*
G01*
X46200000Y-77450000D02*
X46200000Y-76150000D01*
G75*
G02*
X46350000Y-76000000I150000J0D01*
G01*
X46650000Y-76000000D01*
G75*
G02*
X46800000Y-76150000I0J-150000D01*
G01*
X46800000Y-77450000D01*
G75*
G02*
X46650000Y-77600000I-150000J0D01*
G01*
X46350000Y-77600000D01*
G75*
G02*
X46200000Y-77450000I0J150000D01*
G01*
G37*
G36*
G01*
X47050000Y-77450000D02*
X47050000Y-76150000D01*
G75*
G02*
X47200000Y-76000000I150000J0D01*
G01*
X47500000Y-76000000D01*
G75*
G02*
X47650000Y-76150000I0J-150000D01*
G01*
X47650000Y-77450000D01*
G75*
G02*
X47500000Y-77600000I-150000J0D01*
G01*
X47200000Y-77600000D01*
G75*
G02*
X47050000Y-77450000I0J150000D01*
G01*
G37*
G36*
G01*
X47900000Y-77450000D02*
X47900000Y-76150000D01*
G75*
G02*
X48050000Y-76000000I150000J0D01*
G01*
X48350000Y-76000000D01*
G75*
G02*
X48500000Y-76150000I0J-150000D01*
G01*
X48500000Y-77450000D01*
G75*
G02*
X48350000Y-77600000I-150000J0D01*
G01*
X48050000Y-77600000D01*
G75*
G02*
X47900000Y-77450000I0J150000D01*
G01*
G37*
G36*
G01*
X36600000Y-65400000D02*
X36600000Y-65100000D01*
G75*
G02*
X36750000Y-64950000I150000J0D01*
G01*
X38050000Y-64950000D01*
G75*
G02*
X38200000Y-65100000I0J-150000D01*
G01*
X38200000Y-65400000D01*
G75*
G02*
X38050000Y-65550000I-150000J0D01*
G01*
X36750000Y-65550000D01*
G75*
G02*
X36600000Y-65400000I0J150000D01*
G01*
G37*
G36*
G01*
X36600000Y-66250000D02*
X36600000Y-65950000D01*
G75*
G02*
X36750000Y-65800000I150000J0D01*
G01*
X38050000Y-65800000D01*
G75*
G02*
X38200000Y-65950000I0J-150000D01*
G01*
X38200000Y-66250000D01*
G75*
G02*
X38050000Y-66400000I-150000J0D01*
G01*
X36750000Y-66400000D01*
G75*
G02*
X36600000Y-66250000I0J150000D01*
G01*
G37*
G36*
G01*
X36600000Y-67100000D02*
X36600000Y-66800000D01*
G75*
G02*
X36750000Y-66650000I150000J0D01*
G01*
X38050000Y-66650000D01*
G75*
G02*
X38200000Y-66800000I0J-150000D01*
G01*
X38200000Y-67100000D01*
G75*
G02*
X38050000Y-67250000I-150000J0D01*
G01*
X36750000Y-67250000D01*
G75*
G02*
X36600000Y-67100000I0J150000D01*
G01*
G37*
G36*
G01*
X36600000Y-67950000D02*
X36600000Y-67650000D01*
G75*
G02*
X36750000Y-67500000I150000J0D01*
G01*
X38050000Y-67500000D01*
G75*
G02*
X38200000Y-67650000I0J-150000D01*
G01*
X38200000Y-67950000D01*
G75*
G02*
X38050000Y-68100000I-150000J0D01*
G01*
X36750000Y-68100000D01*
G75*
G02*
X36600000Y-67950000I0J150000D01*
G01*
G37*
G36*
G01*
X36600000Y-68800000D02*
X36600000Y-68500000D01*
G75*
G02*
X36750000Y-68350000I150000J0D01*
G01*
X38050000Y-68350000D01*
G75*
G02*
X38200000Y-68500000I0J-150000D01*
G01*
X38200000Y-68800000D01*
G75*
G02*
X38050000Y-68950000I-150000J0D01*
G01*
X36750000Y-68950000D01*
G75*
G02*
X36600000Y-68800000I0J150000D01*
G01*
G37*
G36*
G01*
X36600000Y-69650000D02*
X36600000Y-69350000D01*
G75*
G02*
X36750000Y-69200000I150000J0D01*
G01*
X38050000Y-69200000D01*
G75*
G02*
X38200000Y-69350000I0J-150000D01*
G01*
X38200000Y-69650000D01*
G75*
G02*
X38050000Y-69800000I-150000J0D01*
G01*
X36750000Y-69800000D01*
G75*
G02*
X36600000Y-69650000I0J150000D01*
G01*
G37*
G36*
G01*
X36600000Y-70500000D02*
X36600000Y-70200000D01*
G75*
G02*
X36750000Y-70050000I150000J0D01*
G01*
X38050000Y-70050000D01*
G75*
G02*
X38200000Y-70200000I0J-150000D01*
G01*
X38200000Y-70500000D01*
G75*
G02*
X38050000Y-70650000I-150000J0D01*
G01*
X36750000Y-70650000D01*
G75*
G02*
X36600000Y-70500000I0J150000D01*
G01*
G37*
G36*
G01*
X36600000Y-71350000D02*
X36600000Y-71050000D01*
G75*
G02*
X36750000Y-70900000I150000J0D01*
G01*
X38050000Y-70900000D01*
G75*
G02*
X38200000Y-71050000I0J-150000D01*
G01*
X38200000Y-71350000D01*
G75*
G02*
X38050000Y-71500000I-150000J0D01*
G01*
X36750000Y-71500000D01*
G75*
G02*
X36600000Y-71350000I0J150000D01*
G01*
G37*
G36*
G01*
X36600000Y-72200000D02*
X36600000Y-71900000D01*
G75*
G02*
X36750000Y-71750000I150000J0D01*
G01*
X38050000Y-71750000D01*
G75*
G02*
X38200000Y-71900000I0J-150000D01*
G01*
X38200000Y-72200000D01*
G75*
G02*
X38050000Y-72350000I-150000J0D01*
G01*
X36750000Y-72350000D01*
G75*
G02*
X36600000Y-72200000I0J150000D01*
G01*
G37*
G36*
G01*
X36600000Y-73050000D02*
X36600000Y-72750000D01*
G75*
G02*
X36750000Y-72600000I150000J0D01*
G01*
X38050000Y-72600000D01*
G75*
G02*
X38200000Y-72750000I0J-150000D01*
G01*
X38200000Y-73050000D01*
G75*
G02*
X38050000Y-73200000I-150000J0D01*
G01*
X36750000Y-73200000D01*
G75*
G02*
X36600000Y-73050000I0J150000D01*
G01*
G37*
G36*
G01*
X36600000Y-73900000D02*
X36600000Y-73600000D01*
G75*
G02*
X36750000Y-73450000I150000J0D01*
G01*
X38050000Y-73450000D01*
G75*
G02*
X38200000Y-73600000I0J-150000D01*
G01*
X38200000Y-73900000D01*
G75*
G02*
X38050000Y-74050000I-150000J0D01*
G01*
X36750000Y-74050000D01*
G75*
G02*
X36600000Y-73900000I0J150000D01*
G01*
G37*
G36*
G01*
X36600000Y-74750000D02*
X36600000Y-74450000D01*
G75*
G02*
X36750000Y-74300000I150000J0D01*
G01*
X38050000Y-74300000D01*
G75*
G02*
X38200000Y-74450000I0J-150000D01*
G01*
X38200000Y-74750000D01*
G75*
G02*
X38050000Y-74900000I-150000J0D01*
G01*
X36750000Y-74900000D01*
G75*
G02*
X36600000Y-74750000I0J150000D01*
G01*
G37*
D11*
G36*
X60033500Y-83580000D02*
G01*
X60033500Y-80455000D01*
X60450000Y-80455000D01*
X60450000Y-78980000D01*
X61350000Y-78980000D01*
X61350000Y-80455000D01*
X61766500Y-80455000D01*
X61766500Y-83580000D01*
X60033500Y-83580000D01*
G37*
D12*
X59400000Y-79630000D03*
X62400000Y-79630000D03*
G36*
G01*
X50725000Y-89540000D02*
X50425000Y-89540000D01*
G75*
G02*
X50275000Y-89390000I0J150000D01*
G01*
X50275000Y-87740000D01*
G75*
G02*
X50425000Y-87590000I150000J0D01*
G01*
X50725000Y-87590000D01*
G75*
G02*
X50875000Y-87740000I0J-150000D01*
G01*
X50875000Y-89390000D01*
G75*
G02*
X50725000Y-89540000I-150000J0D01*
G01*
G37*
G36*
G01*
X51995000Y-89540000D02*
X51695000Y-89540000D01*
G75*
G02*
X51545000Y-89390000I0J150000D01*
G01*
X51545000Y-87740000D01*
G75*
G02*
X51695000Y-87590000I150000J0D01*
G01*
X51995000Y-87590000D01*
G75*
G02*
X52145000Y-87740000I0J-150000D01*
G01*
X52145000Y-89390000D01*
G75*
G02*
X51995000Y-89540000I-150000J0D01*
G01*
G37*
G36*
G01*
X53265000Y-89540000D02*
X52965000Y-89540000D01*
G75*
G02*
X52815000Y-89390000I0J150000D01*
G01*
X52815000Y-87740000D01*
G75*
G02*
X52965000Y-87590000I150000J0D01*
G01*
X53265000Y-87590000D01*
G75*
G02*
X53415000Y-87740000I0J-150000D01*
G01*
X53415000Y-89390000D01*
G75*
G02*
X53265000Y-89540000I-150000J0D01*
G01*
G37*
G36*
G01*
X54535000Y-89540000D02*
X54235000Y-89540000D01*
G75*
G02*
X54085000Y-89390000I0J150000D01*
G01*
X54085000Y-87740000D01*
G75*
G02*
X54235000Y-87590000I150000J0D01*
G01*
X54535000Y-87590000D01*
G75*
G02*
X54685000Y-87740000I0J-150000D01*
G01*
X54685000Y-89390000D01*
G75*
G02*
X54535000Y-89540000I-150000J0D01*
G01*
G37*
G36*
G01*
X55805000Y-89540000D02*
X55505000Y-89540000D01*
G75*
G02*
X55355000Y-89390000I0J150000D01*
G01*
X55355000Y-87740000D01*
G75*
G02*
X55505000Y-87590000I150000J0D01*
G01*
X55805000Y-87590000D01*
G75*
G02*
X55955000Y-87740000I0J-150000D01*
G01*
X55955000Y-89390000D01*
G75*
G02*
X55805000Y-89540000I-150000J0D01*
G01*
G37*
G36*
G01*
X57075000Y-89540000D02*
X56775000Y-89540000D01*
G75*
G02*
X56625000Y-89390000I0J150000D01*
G01*
X56625000Y-87740000D01*
G75*
G02*
X56775000Y-87590000I150000J0D01*
G01*
X57075000Y-87590000D01*
G75*
G02*
X57225000Y-87740000I0J-150000D01*
G01*
X57225000Y-89390000D01*
G75*
G02*
X57075000Y-89540000I-150000J0D01*
G01*
G37*
G36*
G01*
X58345000Y-89540000D02*
X58045000Y-89540000D01*
G75*
G02*
X57895000Y-89390000I0J150000D01*
G01*
X57895000Y-87740000D01*
G75*
G02*
X58045000Y-87590000I150000J0D01*
G01*
X58345000Y-87590000D01*
G75*
G02*
X58495000Y-87740000I0J-150000D01*
G01*
X58495000Y-89390000D01*
G75*
G02*
X58345000Y-89540000I-150000J0D01*
G01*
G37*
G36*
G01*
X59615000Y-89540000D02*
X59315000Y-89540000D01*
G75*
G02*
X59165000Y-89390000I0J150000D01*
G01*
X59165000Y-87740000D01*
G75*
G02*
X59315000Y-87590000I150000J0D01*
G01*
X59615000Y-87590000D01*
G75*
G02*
X59765000Y-87740000I0J-150000D01*
G01*
X59765000Y-89390000D01*
G75*
G02*
X59615000Y-89540000I-150000J0D01*
G01*
G37*
G36*
G01*
X59615000Y-94490000D02*
X59315000Y-94490000D01*
G75*
G02*
X59165000Y-94340000I0J150000D01*
G01*
X59165000Y-92690000D01*
G75*
G02*
X59315000Y-92540000I150000J0D01*
G01*
X59615000Y-92540000D01*
G75*
G02*
X59765000Y-92690000I0J-150000D01*
G01*
X59765000Y-94340000D01*
G75*
G02*
X59615000Y-94490000I-150000J0D01*
G01*
G37*
G36*
G01*
X58345000Y-94490000D02*
X58045000Y-94490000D01*
G75*
G02*
X57895000Y-94340000I0J150000D01*
G01*
X57895000Y-92690000D01*
G75*
G02*
X58045000Y-92540000I150000J0D01*
G01*
X58345000Y-92540000D01*
G75*
G02*
X58495000Y-92690000I0J-150000D01*
G01*
X58495000Y-94340000D01*
G75*
G02*
X58345000Y-94490000I-150000J0D01*
G01*
G37*
G36*
G01*
X57075000Y-94490000D02*
X56775000Y-94490000D01*
G75*
G02*
X56625000Y-94340000I0J150000D01*
G01*
X56625000Y-92690000D01*
G75*
G02*
X56775000Y-92540000I150000J0D01*
G01*
X57075000Y-92540000D01*
G75*
G02*
X57225000Y-92690000I0J-150000D01*
G01*
X57225000Y-94340000D01*
G75*
G02*
X57075000Y-94490000I-150000J0D01*
G01*
G37*
G36*
G01*
X55805000Y-94490000D02*
X55505000Y-94490000D01*
G75*
G02*
X55355000Y-94340000I0J150000D01*
G01*
X55355000Y-92690000D01*
G75*
G02*
X55505000Y-92540000I150000J0D01*
G01*
X55805000Y-92540000D01*
G75*
G02*
X55955000Y-92690000I0J-150000D01*
G01*
X55955000Y-94340000D01*
G75*
G02*
X55805000Y-94490000I-150000J0D01*
G01*
G37*
G36*
G01*
X54535000Y-94490000D02*
X54235000Y-94490000D01*
G75*
G02*
X54085000Y-94340000I0J150000D01*
G01*
X54085000Y-92690000D01*
G75*
G02*
X54235000Y-92540000I150000J0D01*
G01*
X54535000Y-92540000D01*
G75*
G02*
X54685000Y-92690000I0J-150000D01*
G01*
X54685000Y-94340000D01*
G75*
G02*
X54535000Y-94490000I-150000J0D01*
G01*
G37*
G36*
G01*
X53265000Y-94490000D02*
X52965000Y-94490000D01*
G75*
G02*
X52815000Y-94340000I0J150000D01*
G01*
X52815000Y-92690000D01*
G75*
G02*
X52965000Y-92540000I150000J0D01*
G01*
X53265000Y-92540000D01*
G75*
G02*
X53415000Y-92690000I0J-150000D01*
G01*
X53415000Y-94340000D01*
G75*
G02*
X53265000Y-94490000I-150000J0D01*
G01*
G37*
G36*
G01*
X51995000Y-94490000D02*
X51695000Y-94490000D01*
G75*
G02*
X51545000Y-94340000I0J150000D01*
G01*
X51545000Y-92690000D01*
G75*
G02*
X51695000Y-92540000I150000J0D01*
G01*
X51995000Y-92540000D01*
G75*
G02*
X52145000Y-92690000I0J-150000D01*
G01*
X52145000Y-94340000D01*
G75*
G02*
X51995000Y-94490000I-150000J0D01*
G01*
G37*
G36*
G01*
X50725000Y-94490000D02*
X50425000Y-94490000D01*
G75*
G02*
X50275000Y-94340000I0J150000D01*
G01*
X50275000Y-92690000D01*
G75*
G02*
X50425000Y-92540000I150000J0D01*
G01*
X50725000Y-92540000D01*
G75*
G02*
X50875000Y-92690000I0J-150000D01*
G01*
X50875000Y-94340000D01*
G75*
G02*
X50725000Y-94490000I-150000J0D01*
G01*
G37*
G36*
G01*
X34975000Y-92750000D02*
X36225000Y-92750000D01*
G75*
G02*
X36475000Y-93000000I0J-250000D01*
G01*
X36475000Y-93800000D01*
G75*
G02*
X36225000Y-94050000I-250000J0D01*
G01*
X34975000Y-94050000D01*
G75*
G02*
X34725000Y-93800000I0J250000D01*
G01*
X34725000Y-93000000D01*
G75*
G02*
X34975000Y-92750000I250000J0D01*
G01*
G37*
G36*
G01*
X34975000Y-89650000D02*
X36225000Y-89650000D01*
G75*
G02*
X36475000Y-89900000I0J-250000D01*
G01*
X36475000Y-90700000D01*
G75*
G02*
X36225000Y-90950000I-250000J0D01*
G01*
X34975000Y-90950000D01*
G75*
G02*
X34725000Y-90700000I0J250000D01*
G01*
X34725000Y-89900000D01*
G75*
G02*
X34975000Y-89650000I250000J0D01*
G01*
G37*
G36*
G01*
X38575000Y-92750000D02*
X39825000Y-92750000D01*
G75*
G02*
X40075000Y-93000000I0J-250000D01*
G01*
X40075000Y-93800000D01*
G75*
G02*
X39825000Y-94050000I-250000J0D01*
G01*
X38575000Y-94050000D01*
G75*
G02*
X38325000Y-93800000I0J250000D01*
G01*
X38325000Y-93000000D01*
G75*
G02*
X38575000Y-92750000I250000J0D01*
G01*
G37*
G36*
G01*
X38575000Y-89650000D02*
X39825000Y-89650000D01*
G75*
G02*
X40075000Y-89900000I0J-250000D01*
G01*
X40075000Y-90700000D01*
G75*
G02*
X39825000Y-90950000I-250000J0D01*
G01*
X38575000Y-90950000D01*
G75*
G02*
X38325000Y-90700000I0J250000D01*
G01*
X38325000Y-89900000D01*
G75*
G02*
X38575000Y-89650000I250000J0D01*
G01*
G37*
D13*
X57700000Y-107770000D03*
X64700000Y-107770000D03*
D14*
X61200000Y-107770000D03*
D15*
X61850000Y-105095000D03*
X62500000Y-105095000D03*
X61200000Y-105095000D03*
X60550000Y-105095000D03*
X59900000Y-105095000D03*
G36*
G01*
X36225000Y-102337500D02*
X34975000Y-102337500D01*
G75*
G02*
X34725000Y-102087500I0J250000D01*
G01*
X34725000Y-101162500D01*
G75*
G02*
X34975000Y-100912500I250000J0D01*
G01*
X36225000Y-100912500D01*
G75*
G02*
X36475000Y-101162500I0J-250000D01*
G01*
X36475000Y-102087500D01*
G75*
G02*
X36225000Y-102337500I-250000J0D01*
G01*
G37*
G36*
G01*
X36225000Y-105312500D02*
X34975000Y-105312500D01*
G75*
G02*
X34725000Y-105062500I0J250000D01*
G01*
X34725000Y-104137500D01*
G75*
G02*
X34975000Y-103887500I250000J0D01*
G01*
X36225000Y-103887500D01*
G75*
G02*
X36475000Y-104137500I0J-250000D01*
G01*
X36475000Y-105062500D01*
G75*
G02*
X36225000Y-105312500I-250000J0D01*
G01*
G37*
G36*
G01*
X39825000Y-102337500D02*
X38575000Y-102337500D01*
G75*
G02*
X38325000Y-102087500I0J250000D01*
G01*
X38325000Y-101162500D01*
G75*
G02*
X38575000Y-100912500I250000J0D01*
G01*
X39825000Y-100912500D01*
G75*
G02*
X40075000Y-101162500I0J-250000D01*
G01*
X40075000Y-102087500D01*
G75*
G02*
X39825000Y-102337500I-250000J0D01*
G01*
G37*
G36*
G01*
X39825000Y-105312500D02*
X38575000Y-105312500D01*
G75*
G02*
X38325000Y-105062500I0J250000D01*
G01*
X38325000Y-104137500D01*
G75*
G02*
X38575000Y-103887500I250000J0D01*
G01*
X39825000Y-103887500D01*
G75*
G02*
X40075000Y-104137500I0J-250000D01*
G01*
X40075000Y-105062500D01*
G75*
G02*
X39825000Y-105312500I-250000J0D01*
G01*
G37*
G36*
G01*
X37449999Y-82580000D02*
X38750001Y-82580000D01*
G75*
G02*
X39000000Y-82829999I0J-249999D01*
G01*
X39000000Y-83655001D01*
G75*
G02*
X38750001Y-83905000I-249999J0D01*
G01*
X37449999Y-83905000D01*
G75*
G02*
X37200000Y-83655001I0J249999D01*
G01*
X37200000Y-82829999D01*
G75*
G02*
X37449999Y-82580000I249999J0D01*
G01*
G37*
G36*
G01*
X37449999Y-79455000D02*
X38750001Y-79455000D01*
G75*
G02*
X39000000Y-79704999I0J-249999D01*
G01*
X39000000Y-80530001D01*
G75*
G02*
X38750001Y-80780000I-249999J0D01*
G01*
X37449999Y-80780000D01*
G75*
G02*
X37200000Y-80530001I0J249999D01*
G01*
X37200000Y-79704999D01*
G75*
G02*
X37449999Y-79455000I249999J0D01*
G01*
G37*
G36*
G01*
X61800000Y-76850001D02*
X61800000Y-75549999D01*
G75*
G02*
X62049999Y-75300000I249999J0D01*
G01*
X62875001Y-75300000D01*
G75*
G02*
X63125000Y-75549999I0J-249999D01*
G01*
X63125000Y-76850001D01*
G75*
G02*
X62875001Y-77100000I-249999J0D01*
G01*
X62049999Y-77100000D01*
G75*
G02*
X61800000Y-76850001I0J249999D01*
G01*
G37*
G36*
G01*
X58675000Y-76850001D02*
X58675000Y-75549999D01*
G75*
G02*
X58924999Y-75300000I249999J0D01*
G01*
X59750001Y-75300000D01*
G75*
G02*
X60000000Y-75549999I0J-249999D01*
G01*
X60000000Y-76850001D01*
G75*
G02*
X59750001Y-77100000I-249999J0D01*
G01*
X58924999Y-77100000D01*
G75*
G02*
X58675000Y-76850001I0J249999D01*
G01*
G37*
G36*
G01*
X53099999Y-99400000D02*
X54400001Y-99400000D01*
G75*
G02*
X54650000Y-99649999I0J-249999D01*
G01*
X54650000Y-100475001D01*
G75*
G02*
X54400001Y-100725000I-249999J0D01*
G01*
X53099999Y-100725000D01*
G75*
G02*
X52850000Y-100475001I0J249999D01*
G01*
X52850000Y-99649999D01*
G75*
G02*
X53099999Y-99400000I249999J0D01*
G01*
G37*
G36*
G01*
X53099999Y-96275000D02*
X54400001Y-96275000D01*
G75*
G02*
X54650000Y-96524999I0J-249999D01*
G01*
X54650000Y-97350001D01*
G75*
G02*
X54400001Y-97600000I-249999J0D01*
G01*
X53099999Y-97600000D01*
G75*
G02*
X52850000Y-97350001I0J249999D01*
G01*
X52850000Y-96524999D01*
G75*
G02*
X53099999Y-96275000I249999J0D01*
G01*
G37*
G36*
G01*
X66630001Y-80380000D02*
X65329999Y-80380000D01*
G75*
G02*
X65080000Y-80130001I0J249999D01*
G01*
X65080000Y-79304999D01*
G75*
G02*
X65329999Y-79055000I249999J0D01*
G01*
X66630001Y-79055000D01*
G75*
G02*
X66880000Y-79304999I0J-249999D01*
G01*
X66880000Y-80130001D01*
G75*
G02*
X66630001Y-80380000I-249999J0D01*
G01*
G37*
G36*
G01*
X66630001Y-83505000D02*
X65329999Y-83505000D01*
G75*
G02*
X65080000Y-83255001I0J249999D01*
G01*
X65080000Y-82429999D01*
G75*
G02*
X65329999Y-82180000I249999J0D01*
G01*
X66630001Y-82180000D01*
G75*
G02*
X66880000Y-82429999I0J-249999D01*
G01*
X66880000Y-83255001D01*
G75*
G02*
X66630001Y-83505000I-249999J0D01*
G01*
G37*
M02*
