%FSLAX45Y45*%
G04 Gerber Fmt 4.5, Leading zero omitted, Abs format (unit mm)*
G04 Created by KiCad (PCBNEW (5.1.10)-1) date 2021-12-04 16:45:13*
%MOMM*%
%LPD*%
G01*
G04 APERTURE LIST*
%TA.AperFunction,Profile*%
%ADD10C,0.038100*%
%TD*%
%ADD11C,0.200000*%
%ADD12C,0.300000*%
G04 APERTURE END LIST*
D10*
X6604000Y-10922000D02*
X6495000Y-10922000D01*
X5722000Y-10922000D02*
X5745000Y-10922000D01*
X5588000Y-10922000D02*
X5722000Y-10922000D01*
X2540000Y-10922000D02*
X5588000Y-10922000D01*
X7874000Y-10922000D02*
X6604000Y-10922000D01*
X7874000Y-6096000D02*
X7874000Y-10922000D01*
X2540000Y-6096000D02*
X7874000Y-6096000D01*
X2540000Y-10922000D02*
X2540000Y-6096000D01*
D11*
X3385000Y-7185000D02*
X3415000Y-7215000D01*
X3415000Y-7185000D02*
X3385000Y-7215000D01*
X3392158Y-7099829D02*
X3422158Y-7129829D01*
X3422158Y-7099829D02*
X3392158Y-7129829D01*
X3400497Y-7020497D02*
X3430497Y-7050497D01*
X3430497Y-7020497D02*
X3400497Y-7050497D01*
X3425000Y-6705000D02*
X3455000Y-6735000D01*
X3455000Y-6705000D02*
X3425000Y-6735000D01*
X3425000Y-6777700D02*
X3455000Y-6807700D01*
X3455000Y-6777700D02*
X3425000Y-6807700D01*
X3425000Y-6850401D02*
X3455000Y-6880401D01*
X3455000Y-6850401D02*
X3425000Y-6880401D01*
X3425000Y-6925000D02*
X3455000Y-6955000D01*
X3455000Y-6925000D02*
X3425000Y-6955000D01*
X4045000Y-7885000D02*
X4075000Y-7915000D01*
X4075000Y-7885000D02*
X4045000Y-7915000D01*
X4125000Y-7885000D02*
X4155000Y-7915000D01*
X4155000Y-7885000D02*
X4125000Y-7915000D01*
X4205000Y-7385000D02*
X4235000Y-7415000D01*
X4235000Y-7385000D02*
X4205000Y-7415000D01*
X4285000Y-7865000D02*
X4315000Y-7895000D01*
X4315000Y-7865000D02*
X4285000Y-7895000D01*
X4285000Y-8085000D02*
X4315000Y-8115000D01*
X4315000Y-8085000D02*
X4285000Y-8115000D01*
X4345000Y-6985000D02*
X4375000Y-7015000D01*
X4375000Y-6985000D02*
X4345000Y-7015000D01*
X4385000Y-8745000D02*
X4415000Y-8775000D01*
X4415000Y-8745000D02*
X4385000Y-8775000D01*
X4385000Y-10585000D02*
X4415000Y-10615000D01*
X4415000Y-10585000D02*
X4385000Y-10615000D01*
X4405000Y-8205000D02*
X4435000Y-8235000D01*
X4435000Y-8205000D02*
X4405000Y-8235000D01*
X4445000Y-7905000D02*
X4475000Y-7935000D01*
X4475000Y-7905000D02*
X4445000Y-7935000D01*
X4552355Y-7917645D02*
X4582355Y-7947645D01*
X4582355Y-7917645D02*
X4552355Y-7947645D01*
X4555000Y-9965000D02*
X4585000Y-9995000D01*
X4585000Y-9965000D02*
X4555000Y-9995000D01*
X4584510Y-7824673D02*
X4614510Y-7854673D01*
X4614510Y-7824673D02*
X4584510Y-7854673D01*
X4605000Y-6685000D02*
X4635000Y-6715000D01*
X4635000Y-6685000D02*
X4605000Y-6715000D01*
X4605000Y-6765000D02*
X4635000Y-6795000D01*
X4635000Y-6765000D02*
X4605000Y-6795000D01*
X4605000Y-6845000D02*
X4635000Y-6875000D01*
X4635000Y-6845000D02*
X4605000Y-6875000D01*
X4645000Y-7865000D02*
X4675000Y-7895000D01*
X4675000Y-7865000D02*
X4645000Y-7895000D01*
X4685000Y-6185000D02*
X4715000Y-6215000D01*
X4715000Y-6185000D02*
X4685000Y-6215000D01*
X4685000Y-6257700D02*
X4715000Y-6287700D01*
X4715000Y-6257700D02*
X4685000Y-6287700D01*
X4685000Y-6345000D02*
X4715000Y-6375000D01*
X4715000Y-6345000D02*
X4685000Y-6375000D01*
X4725000Y-7845000D02*
X4755000Y-7875000D01*
X4755000Y-7845000D02*
X4725000Y-7875000D01*
X4865000Y-10585000D02*
X4895000Y-10615000D01*
X4895000Y-10585000D02*
X4865000Y-10615000D01*
X4925000Y-8925000D02*
X4955000Y-8955000D01*
X4955000Y-8925000D02*
X4925000Y-8955000D01*
X4985000Y-9105000D02*
X5015000Y-9135000D01*
X5015000Y-9105000D02*
X4985000Y-9135000D01*
X5105000Y-6945000D02*
X5135000Y-6975000D01*
X5135000Y-6945000D02*
X5105000Y-6975000D01*
X5105000Y-7025000D02*
X5135000Y-7055000D01*
X5135000Y-7025000D02*
X5105000Y-7055000D01*
X5105000Y-7105000D02*
X5135000Y-7135000D01*
X5135000Y-7105000D02*
X5105000Y-7135000D01*
X5105000Y-7185000D02*
X5135000Y-7215000D01*
X5135000Y-7185000D02*
X5105000Y-7215000D01*
X5105000Y-7265000D02*
X5135000Y-7295000D01*
X5135000Y-7265000D02*
X5105000Y-7295000D01*
X5105000Y-7345000D02*
X5135000Y-7375000D01*
X5135000Y-7345000D02*
X5105000Y-7375000D01*
X5105000Y-7445000D02*
X5135000Y-7475000D01*
X5135000Y-7445000D02*
X5105000Y-7475000D01*
X5285000Y-10315000D02*
X5315000Y-10345000D01*
X5315000Y-10315000D02*
X5285000Y-10345000D01*
X5505000Y-10315000D02*
X5535000Y-10345000D01*
X5535000Y-10315000D02*
X5505000Y-10345000D01*
X5565000Y-9885000D02*
X5595000Y-9915000D01*
X5595000Y-9885000D02*
X5565000Y-9915000D01*
X5685000Y-9545000D02*
X5715000Y-9575000D01*
X5715000Y-9545000D02*
X5685000Y-9575000D01*
X5785000Y-10105000D02*
X5815000Y-10135000D01*
X5815000Y-10105000D02*
X5785000Y-10135000D01*
X5905000Y-9845000D02*
X5935000Y-9875000D01*
X5935000Y-9845000D02*
X5905000Y-9875000D01*
X5732500Y-10777000D02*
G75*
G03*
X5732500Y-10777000I-30000J0D01*
G01*
X5682500Y-10742000D02*
X5682500Y-10812000D01*
X5722500Y-10742000D02*
X5722500Y-10812000D01*
X5682500Y-10812000D02*
G75*
G03*
X5722500Y-10812000I20000J0D01*
G01*
X5722500Y-10742000D02*
G75*
G03*
X5682500Y-10742000I-20000J0D01*
G01*
X6567500Y-10777000D02*
G75*
G03*
X6567500Y-10777000I-30000J0D01*
G01*
X6517500Y-10742000D02*
X6517500Y-10812000D01*
X6557500Y-10742000D02*
X6557500Y-10812000D01*
X6517500Y-10812000D02*
G75*
G03*
X6557500Y-10812000I20000J0D01*
G01*
X6557500Y-10742000D02*
G75*
G03*
X6517500Y-10742000I-20000J0D01*
G01*
X5897500Y-10444500D02*
X5897500Y-10509500D01*
X5865000Y-10477000D02*
X5930000Y-10477000D01*
X5875000Y-10467000D02*
X5875000Y-10487000D01*
X5920000Y-10467000D02*
X5920000Y-10487000D01*
X5875000Y-10487000D02*
G75*
G03*
X5920000Y-10487000I22500J0D01*
G01*
X5920000Y-10467000D02*
G75*
G03*
X5875000Y-10467000I-22500J0D01*
G01*
X6342500Y-10444500D02*
X6342500Y-10509500D01*
X6310000Y-10477000D02*
X6375000Y-10477000D01*
X6320000Y-10467000D02*
X6320000Y-10487000D01*
X6365000Y-10467000D02*
X6365000Y-10487000D01*
X6320000Y-10487000D02*
G75*
G03*
X6365000Y-10487000I22500J0D01*
G01*
X6365000Y-10467000D02*
G75*
G03*
X6320000Y-10467000I-22500J0D01*
G01*
X2829356Y-7147356D02*
X2829356Y-7076644D01*
X2758644Y-7076644D01*
X2758644Y-7147356D01*
X2829356Y-7147356D01*
X2829356Y-7401356D02*
X2829356Y-7330644D01*
X2758644Y-7330644D01*
X2758644Y-7401356D01*
X2829356Y-7401356D01*
X2829356Y-7655356D02*
X2829356Y-7584644D01*
X2758644Y-7584644D01*
X2758644Y-7655356D01*
X2829356Y-7655356D01*
X2829356Y-7909356D02*
X2829356Y-7838644D01*
X2758644Y-7838644D01*
X2758644Y-7909356D01*
X2829356Y-7909356D01*
X2829356Y-8163356D02*
X2829356Y-8092644D01*
X2758644Y-8092644D01*
X2758644Y-8163356D01*
X2829356Y-8163356D01*
X2829356Y-8417356D02*
X2829356Y-8346644D01*
X2758644Y-8346644D01*
X2758644Y-8417356D01*
X2829356Y-8417356D01*
X2829356Y-8671356D02*
X2829356Y-8600644D01*
X2758644Y-8600644D01*
X2758644Y-8671356D01*
X2829356Y-8671356D01*
X2829356Y-8925356D02*
X2829356Y-8854644D01*
X2758644Y-8854644D01*
X2758644Y-8925356D01*
X2829356Y-8925356D01*
X2829356Y-9179356D02*
X2829356Y-9108644D01*
X2758644Y-9108644D01*
X2758644Y-9179356D01*
X2829356Y-9179356D01*
X2829356Y-9433356D02*
X2829356Y-9362644D01*
X2758644Y-9362644D01*
X2758644Y-9433356D01*
X2829356Y-9433356D01*
X2829356Y-9687356D02*
X2829356Y-9616644D01*
X2758644Y-9616644D01*
X2758644Y-9687356D01*
X2829356Y-9687356D01*
X2829356Y-9941356D02*
X2829356Y-9870644D01*
X2758644Y-9870644D01*
X2758644Y-9941356D01*
X2829356Y-9941356D01*
X2829356Y-10195356D02*
X2829356Y-10124644D01*
X2758644Y-10124644D01*
X2758644Y-10195356D01*
X2829356Y-10195356D01*
X2829356Y-10449356D02*
X2829356Y-10378644D01*
X2758644Y-10378644D01*
X2758644Y-10449356D01*
X2829356Y-10449356D01*
X2829356Y-10703356D02*
X2829356Y-10632644D01*
X2758644Y-10632644D01*
X2758644Y-10703356D01*
X2829356Y-10703356D01*
X5833356Y-6521356D02*
X5833356Y-6450644D01*
X5762644Y-6450644D01*
X5762644Y-6521356D01*
X5833356Y-6521356D01*
X5833356Y-6775356D02*
X5833356Y-6704644D01*
X5762644Y-6704644D01*
X5762644Y-6775356D01*
X5833356Y-6775356D01*
X6087356Y-6521356D02*
X6087356Y-6450644D01*
X6016644Y-6450644D01*
X6016644Y-6521356D01*
X6087356Y-6521356D01*
X6087356Y-6775356D02*
X6087356Y-6704644D01*
X6016644Y-6704644D01*
X6016644Y-6775356D01*
X6087356Y-6775356D01*
X6341356Y-6521356D02*
X6341356Y-6450644D01*
X6270644Y-6450644D01*
X6270644Y-6521356D01*
X6341356Y-6521356D01*
X6341356Y-6775356D02*
X6341356Y-6704644D01*
X6270644Y-6704644D01*
X6270644Y-6775356D01*
X6341356Y-6775356D01*
X6553356Y-8885356D02*
X6553356Y-8814644D01*
X6482644Y-8814644D01*
X6482644Y-8885356D01*
X6553356Y-8885356D01*
X6553356Y-9139356D02*
X6553356Y-9068644D01*
X6482644Y-9068644D01*
X6482644Y-9139356D01*
X6553356Y-9139356D01*
X6553356Y-9393356D02*
X6553356Y-9322644D01*
X6482644Y-9322644D01*
X6482644Y-9393356D01*
X6553356Y-9393356D01*
X6595356Y-6521356D02*
X6595356Y-6450644D01*
X6524644Y-6450644D01*
X6524644Y-6521356D01*
X6595356Y-6521356D01*
X6595356Y-6775356D02*
X6595356Y-6704644D01*
X6524644Y-6704644D01*
X6524644Y-6775356D01*
X6595356Y-6775356D01*
X6849356Y-6521356D02*
X6849356Y-6450644D01*
X6778644Y-6450644D01*
X6778644Y-6521356D01*
X6849356Y-6521356D01*
X6849356Y-6775356D02*
X6849356Y-6704644D01*
X6778644Y-6704644D01*
X6778644Y-6775356D01*
X6849356Y-6775356D01*
X7655356Y-7147356D02*
X7655356Y-7076644D01*
X7584644Y-7076644D01*
X7584644Y-7147356D01*
X7655356Y-7147356D01*
X7655356Y-7401356D02*
X7655356Y-7330644D01*
X7584644Y-7330644D01*
X7584644Y-7401356D01*
X7655356Y-7401356D01*
X7655356Y-7655356D02*
X7655356Y-7584644D01*
X7584644Y-7584644D01*
X7584644Y-7655356D01*
X7655356Y-7655356D01*
X7655356Y-7909356D02*
X7655356Y-7838644D01*
X7584644Y-7838644D01*
X7584644Y-7909356D01*
X7655356Y-7909356D01*
X7655356Y-8163356D02*
X7655356Y-8092644D01*
X7584644Y-8092644D01*
X7584644Y-8163356D01*
X7655356Y-8163356D01*
X7655356Y-8417356D02*
X7655356Y-8346644D01*
X7584644Y-8346644D01*
X7584644Y-8417356D01*
X7655356Y-8417356D01*
X7655356Y-8671356D02*
X7655356Y-8600644D01*
X7584644Y-8600644D01*
X7584644Y-8671356D01*
X7655356Y-8671356D01*
X7655356Y-8925356D02*
X7655356Y-8854644D01*
X7584644Y-8854644D01*
X7584644Y-8925356D01*
X7655356Y-8925356D01*
X7655356Y-9179356D02*
X7655356Y-9108644D01*
X7584644Y-9108644D01*
X7584644Y-9179356D01*
X7655356Y-9179356D01*
X7655356Y-9433356D02*
X7655356Y-9362644D01*
X7584644Y-9362644D01*
X7584644Y-9433356D01*
X7655356Y-9433356D01*
X7655356Y-9687356D02*
X7655356Y-9616644D01*
X7584644Y-9616644D01*
X7584644Y-9687356D01*
X7655356Y-9687356D01*
X7655356Y-9941356D02*
X7655356Y-9870644D01*
X7584644Y-9870644D01*
X7584644Y-9941356D01*
X7655356Y-9941356D01*
X7655356Y-10195356D02*
X7655356Y-10124644D01*
X7584644Y-10124644D01*
X7584644Y-10195356D01*
X7655356Y-10195356D01*
X7655356Y-10449356D02*
X7655356Y-10378644D01*
X7584644Y-10378644D01*
X7584644Y-10449356D01*
X7655356Y-10449356D01*
X7655356Y-10703356D02*
X7655356Y-10632644D01*
X7584644Y-10632644D01*
X7584644Y-10703356D01*
X7655356Y-10703356D01*
D12*
X2824523Y-11392714D02*
X2824523Y-11092714D01*
X2895952Y-11092714D01*
X2938809Y-11107000D01*
X2967381Y-11135572D01*
X2981666Y-11164143D01*
X2995952Y-11221286D01*
X2995952Y-11264143D01*
X2981666Y-11321286D01*
X2967381Y-11349857D01*
X2938809Y-11378429D01*
X2895952Y-11392714D01*
X2824523Y-11392714D01*
X3124523Y-11392714D02*
X3124523Y-11192714D01*
X3124523Y-11249857D02*
X3138809Y-11221286D01*
X3153095Y-11207000D01*
X3181666Y-11192714D01*
X3210238Y-11192714D01*
X3310238Y-11392714D02*
X3310238Y-11192714D01*
X3310238Y-11092714D02*
X3295952Y-11107000D01*
X3310238Y-11121286D01*
X3324523Y-11107000D01*
X3310238Y-11092714D01*
X3310238Y-11121286D01*
X3495952Y-11392714D02*
X3467381Y-11378429D01*
X3453095Y-11349857D01*
X3453095Y-11092714D01*
X3653095Y-11392714D02*
X3624523Y-11378429D01*
X3610238Y-11349857D01*
X3610238Y-11092714D01*
X3995952Y-11392714D02*
X3995952Y-11092714D01*
X4095952Y-11307000D01*
X4195952Y-11092714D01*
X4195952Y-11392714D01*
X4467381Y-11392714D02*
X4467381Y-11235571D01*
X4453095Y-11207000D01*
X4424523Y-11192714D01*
X4367381Y-11192714D01*
X4338809Y-11207000D01*
X4467381Y-11378429D02*
X4438809Y-11392714D01*
X4367381Y-11392714D01*
X4338809Y-11378429D01*
X4324523Y-11349857D01*
X4324523Y-11321286D01*
X4338809Y-11292714D01*
X4367381Y-11278429D01*
X4438809Y-11278429D01*
X4467381Y-11264143D01*
X4610238Y-11192714D02*
X4610238Y-11492714D01*
X4610238Y-11207000D02*
X4638809Y-11192714D01*
X4695952Y-11192714D01*
X4724523Y-11207000D01*
X4738809Y-11221286D01*
X4753095Y-11249857D01*
X4753095Y-11335571D01*
X4738809Y-11364143D01*
X4724523Y-11378429D01*
X4695952Y-11392714D01*
X4638809Y-11392714D01*
X4610238Y-11378429D01*
X4881666Y-11364143D02*
X4895952Y-11378429D01*
X4881666Y-11392714D01*
X4867381Y-11378429D01*
X4881666Y-11364143D01*
X4881666Y-11392714D01*
X4881666Y-11207000D02*
X4895952Y-11221286D01*
X4881666Y-11235571D01*
X4867381Y-11221286D01*
X4881666Y-11207000D01*
X4881666Y-11235571D01*
X2508095Y-11872000D02*
X2538095Y-11902000D01*
X2538095Y-11872000D02*
X2508095Y-11902000D01*
X2881666Y-11722714D02*
X2910238Y-11722714D01*
X2938809Y-11737000D01*
X2953095Y-11751286D01*
X2967381Y-11779857D01*
X2981666Y-11837000D01*
X2981666Y-11908429D01*
X2967381Y-11965571D01*
X2953095Y-11994143D01*
X2938809Y-12008429D01*
X2910238Y-12022714D01*
X2881666Y-12022714D01*
X2853095Y-12008429D01*
X2838809Y-11994143D01*
X2824523Y-11965571D01*
X2810238Y-11908429D01*
X2810238Y-11837000D01*
X2824523Y-11779857D01*
X2838809Y-11751286D01*
X2853095Y-11737000D01*
X2881666Y-11722714D01*
X3110238Y-11994143D02*
X3124523Y-12008429D01*
X3110238Y-12022714D01*
X3095952Y-12008429D01*
X3110238Y-11994143D01*
X3110238Y-12022714D01*
X3224523Y-11722714D02*
X3410238Y-11722714D01*
X3310238Y-11837000D01*
X3353095Y-11837000D01*
X3381666Y-11851286D01*
X3395952Y-11865571D01*
X3410238Y-11894143D01*
X3410238Y-11965571D01*
X3395952Y-11994143D01*
X3381666Y-12008429D01*
X3353095Y-12022714D01*
X3267381Y-12022714D01*
X3238809Y-12008429D01*
X3224523Y-11994143D01*
X3595952Y-11722714D02*
X3624523Y-11722714D01*
X3653095Y-11737000D01*
X3667381Y-11751286D01*
X3681666Y-11779857D01*
X3695952Y-11837000D01*
X3695952Y-11908429D01*
X3681666Y-11965571D01*
X3667381Y-11994143D01*
X3653095Y-12008429D01*
X3624523Y-12022714D01*
X3595952Y-12022714D01*
X3567381Y-12008429D01*
X3553095Y-11994143D01*
X3538809Y-11965571D01*
X3524523Y-11908429D01*
X3524523Y-11837000D01*
X3538809Y-11779857D01*
X3553095Y-11751286D01*
X3567381Y-11737000D01*
X3595952Y-11722714D01*
X3881666Y-11722714D02*
X3910238Y-11722714D01*
X3938809Y-11737000D01*
X3953095Y-11751286D01*
X3967381Y-11779857D01*
X3981666Y-11837000D01*
X3981666Y-11908429D01*
X3967381Y-11965571D01*
X3953095Y-11994143D01*
X3938809Y-12008429D01*
X3910238Y-12022714D01*
X3881666Y-12022714D01*
X3853095Y-12008429D01*
X3838809Y-11994143D01*
X3824523Y-11965571D01*
X3810238Y-11908429D01*
X3810238Y-11837000D01*
X3824523Y-11779857D01*
X3838809Y-11751286D01*
X3853095Y-11737000D01*
X3881666Y-11722714D01*
X4110238Y-12022714D02*
X4110238Y-11822714D01*
X4110238Y-11851286D02*
X4124523Y-11837000D01*
X4153095Y-11822714D01*
X4195952Y-11822714D01*
X4224523Y-11837000D01*
X4238809Y-11865571D01*
X4238809Y-12022714D01*
X4238809Y-11865571D02*
X4253095Y-11837000D01*
X4281666Y-11822714D01*
X4324523Y-11822714D01*
X4353095Y-11837000D01*
X4367381Y-11865571D01*
X4367381Y-12022714D01*
X4510238Y-12022714D02*
X4510238Y-11822714D01*
X4510238Y-11851286D02*
X4524523Y-11837000D01*
X4553095Y-11822714D01*
X4595952Y-11822714D01*
X4624523Y-11837000D01*
X4638809Y-11865571D01*
X4638809Y-12022714D01*
X4638809Y-11865571D02*
X4653095Y-11837000D01*
X4681666Y-11822714D01*
X4724523Y-11822714D01*
X4753095Y-11837000D01*
X4767381Y-11865571D01*
X4767381Y-12022714D01*
X5353095Y-11708429D02*
X5095952Y-12094143D01*
X5738809Y-11722714D02*
X5767381Y-11722714D01*
X5795952Y-11737000D01*
X5810238Y-11751286D01*
X5824523Y-11779857D01*
X5838809Y-11837000D01*
X5838809Y-11908429D01*
X5824523Y-11965571D01*
X5810238Y-11994143D01*
X5795952Y-12008429D01*
X5767381Y-12022714D01*
X5738809Y-12022714D01*
X5710238Y-12008429D01*
X5695952Y-11994143D01*
X5681666Y-11965571D01*
X5667381Y-11908429D01*
X5667381Y-11837000D01*
X5681666Y-11779857D01*
X5695952Y-11751286D01*
X5710238Y-11737000D01*
X5738809Y-11722714D01*
X5967381Y-11994143D02*
X5981666Y-12008429D01*
X5967381Y-12022714D01*
X5953095Y-12008429D01*
X5967381Y-11994143D01*
X5967381Y-12022714D01*
X6167381Y-11722714D02*
X6195952Y-11722714D01*
X6224523Y-11737000D01*
X6238809Y-11751286D01*
X6253095Y-11779857D01*
X6267381Y-11837000D01*
X6267381Y-11908429D01*
X6253095Y-11965571D01*
X6238809Y-11994143D01*
X6224523Y-12008429D01*
X6195952Y-12022714D01*
X6167381Y-12022714D01*
X6138809Y-12008429D01*
X6124523Y-11994143D01*
X6110238Y-11965571D01*
X6095952Y-11908429D01*
X6095952Y-11837000D01*
X6110238Y-11779857D01*
X6124523Y-11751286D01*
X6138809Y-11737000D01*
X6167381Y-11722714D01*
X6553095Y-12022714D02*
X6381666Y-12022714D01*
X6467381Y-12022714D02*
X6467381Y-11722714D01*
X6438809Y-11765571D01*
X6410238Y-11794143D01*
X6381666Y-11808429D01*
X6838809Y-12022714D02*
X6667381Y-12022714D01*
X6753095Y-12022714D02*
X6753095Y-11722714D01*
X6724523Y-11765571D01*
X6695952Y-11794143D01*
X6667381Y-11808429D01*
X7010238Y-11851286D02*
X6981666Y-11837000D01*
X6967381Y-11822714D01*
X6953095Y-11794143D01*
X6953095Y-11779857D01*
X6967381Y-11751286D01*
X6981666Y-11737000D01*
X7010238Y-11722714D01*
X7067381Y-11722714D01*
X7095952Y-11737000D01*
X7110238Y-11751286D01*
X7124523Y-11779857D01*
X7124523Y-11794143D01*
X7110238Y-11822714D01*
X7095952Y-11837000D01*
X7067381Y-11851286D01*
X7010238Y-11851286D01*
X6981666Y-11865571D01*
X6967381Y-11879857D01*
X6953095Y-11908429D01*
X6953095Y-11965571D01*
X6967381Y-11994143D01*
X6981666Y-12008429D01*
X7010238Y-12022714D01*
X7067381Y-12022714D01*
X7095952Y-12008429D01*
X7110238Y-11994143D01*
X7124523Y-11965571D01*
X7124523Y-11908429D01*
X7110238Y-11879857D01*
X7095952Y-11865571D01*
X7067381Y-11851286D01*
X7238809Y-11722714D02*
X7238809Y-11779857D01*
X7353095Y-11722714D02*
X7353095Y-11779857D01*
X7795952Y-12137000D02*
X7781666Y-12122714D01*
X7753095Y-12079857D01*
X7738809Y-12051286D01*
X7724523Y-12008429D01*
X7710238Y-11937000D01*
X7710238Y-11879857D01*
X7724523Y-11808429D01*
X7738809Y-11765571D01*
X7753095Y-11737000D01*
X7781666Y-11694143D01*
X7795952Y-11679857D01*
X8038809Y-11822714D02*
X8038809Y-12022714D01*
X7967381Y-11708429D02*
X7895952Y-11922714D01*
X8081666Y-11922714D01*
X8324523Y-11822714D02*
X8324523Y-12022714D01*
X8253095Y-11708429D02*
X8181666Y-11922714D01*
X8367381Y-11922714D01*
X8710238Y-12022714D02*
X8710238Y-11722714D01*
X8838809Y-12022714D02*
X8838809Y-11865571D01*
X8824523Y-11837000D01*
X8795952Y-11822714D01*
X8753095Y-11822714D01*
X8724523Y-11837000D01*
X8710238Y-11851286D01*
X9024523Y-12022714D02*
X8995952Y-12008429D01*
X8981666Y-11994143D01*
X8967381Y-11965571D01*
X8967381Y-11879857D01*
X8981666Y-11851286D01*
X8995952Y-11837000D01*
X9024523Y-11822714D01*
X9067381Y-11822714D01*
X9095952Y-11837000D01*
X9110238Y-11851286D01*
X9124523Y-11879857D01*
X9124523Y-11965571D01*
X9110238Y-11994143D01*
X9095952Y-12008429D01*
X9067381Y-12022714D01*
X9024523Y-12022714D01*
X9295952Y-12022714D02*
X9267381Y-12008429D01*
X9253095Y-11979857D01*
X9253095Y-11722714D01*
X9524523Y-12008429D02*
X9495952Y-12022714D01*
X9438809Y-12022714D01*
X9410238Y-12008429D01*
X9395952Y-11979857D01*
X9395952Y-11865571D01*
X9410238Y-11837000D01*
X9438809Y-11822714D01*
X9495952Y-11822714D01*
X9524523Y-11837000D01*
X9538809Y-11865571D01*
X9538809Y-11894143D01*
X9395952Y-11922714D01*
X9653095Y-12008429D02*
X9681666Y-12022714D01*
X9738809Y-12022714D01*
X9767381Y-12008429D01*
X9781666Y-11979857D01*
X9781666Y-11965571D01*
X9767381Y-11937000D01*
X9738809Y-11922714D01*
X9695952Y-11922714D01*
X9667381Y-11908429D01*
X9653095Y-11879857D01*
X9653095Y-11865571D01*
X9667381Y-11837000D01*
X9695952Y-11822714D01*
X9738809Y-11822714D01*
X9767381Y-11837000D01*
X9881666Y-12137000D02*
X9895952Y-12122714D01*
X9924523Y-12079857D01*
X9938809Y-12051286D01*
X9953095Y-12008429D01*
X9967381Y-11937000D01*
X9967381Y-11879857D01*
X9953095Y-11808429D01*
X9938809Y-11765571D01*
X9924523Y-11737000D01*
X9895952Y-11694143D01*
X9881666Y-11679857D01*
X2538095Y-12283000D02*
G75*
G03*
X2538095Y-12283000I-30000J0D01*
G01*
X2881666Y-12118714D02*
X2910238Y-12118714D01*
X2938809Y-12133000D01*
X2953095Y-12147286D01*
X2967381Y-12175857D01*
X2981666Y-12233000D01*
X2981666Y-12304429D01*
X2967381Y-12361571D01*
X2953095Y-12390143D01*
X2938809Y-12404429D01*
X2910238Y-12418714D01*
X2881666Y-12418714D01*
X2853095Y-12404429D01*
X2838809Y-12390143D01*
X2824523Y-12361571D01*
X2810238Y-12304429D01*
X2810238Y-12233000D01*
X2824523Y-12175857D01*
X2838809Y-12147286D01*
X2853095Y-12133000D01*
X2881666Y-12118714D01*
X3110238Y-12390143D02*
X3124523Y-12404429D01*
X3110238Y-12418714D01*
X3095952Y-12404429D01*
X3110238Y-12390143D01*
X3110238Y-12418714D01*
X3381666Y-12118714D02*
X3324523Y-12118714D01*
X3295952Y-12133000D01*
X3281666Y-12147286D01*
X3253095Y-12190143D01*
X3238809Y-12247286D01*
X3238809Y-12361571D01*
X3253095Y-12390143D01*
X3267381Y-12404429D01*
X3295952Y-12418714D01*
X3353095Y-12418714D01*
X3381666Y-12404429D01*
X3395952Y-12390143D01*
X3410238Y-12361571D01*
X3410238Y-12290143D01*
X3395952Y-12261571D01*
X3381666Y-12247286D01*
X3353095Y-12233000D01*
X3295952Y-12233000D01*
X3267381Y-12247286D01*
X3253095Y-12261571D01*
X3238809Y-12290143D01*
X3595952Y-12118714D02*
X3624523Y-12118714D01*
X3653095Y-12133000D01*
X3667381Y-12147286D01*
X3681666Y-12175857D01*
X3695952Y-12233000D01*
X3695952Y-12304429D01*
X3681666Y-12361571D01*
X3667381Y-12390143D01*
X3653095Y-12404429D01*
X3624523Y-12418714D01*
X3595952Y-12418714D01*
X3567381Y-12404429D01*
X3553095Y-12390143D01*
X3538809Y-12361571D01*
X3524523Y-12304429D01*
X3524523Y-12233000D01*
X3538809Y-12175857D01*
X3553095Y-12147286D01*
X3567381Y-12133000D01*
X3595952Y-12118714D01*
X3881666Y-12118714D02*
X3910238Y-12118714D01*
X3938809Y-12133000D01*
X3953095Y-12147286D01*
X3967381Y-12175857D01*
X3981666Y-12233000D01*
X3981666Y-12304429D01*
X3967381Y-12361571D01*
X3953095Y-12390143D01*
X3938809Y-12404429D01*
X3910238Y-12418714D01*
X3881666Y-12418714D01*
X3853095Y-12404429D01*
X3838809Y-12390143D01*
X3824523Y-12361571D01*
X3810238Y-12304429D01*
X3810238Y-12233000D01*
X3824523Y-12175857D01*
X3838809Y-12147286D01*
X3853095Y-12133000D01*
X3881666Y-12118714D01*
X4110238Y-12418714D02*
X4110238Y-12218714D01*
X4110238Y-12247286D02*
X4124523Y-12233000D01*
X4153095Y-12218714D01*
X4195952Y-12218714D01*
X4224523Y-12233000D01*
X4238809Y-12261571D01*
X4238809Y-12418714D01*
X4238809Y-12261571D02*
X4253095Y-12233000D01*
X4281666Y-12218714D01*
X4324523Y-12218714D01*
X4353095Y-12233000D01*
X4367381Y-12261571D01*
X4367381Y-12418714D01*
X4510238Y-12418714D02*
X4510238Y-12218714D01*
X4510238Y-12247286D02*
X4524523Y-12233000D01*
X4553095Y-12218714D01*
X4595952Y-12218714D01*
X4624523Y-12233000D01*
X4638809Y-12261571D01*
X4638809Y-12418714D01*
X4638809Y-12261571D02*
X4653095Y-12233000D01*
X4681666Y-12218714D01*
X4724523Y-12218714D01*
X4753095Y-12233000D01*
X4767381Y-12261571D01*
X4767381Y-12418714D01*
X5353095Y-12104429D02*
X5095952Y-12490143D01*
X5738809Y-12118714D02*
X5767381Y-12118714D01*
X5795952Y-12133000D01*
X5810238Y-12147286D01*
X5824523Y-12175857D01*
X5838809Y-12233000D01*
X5838809Y-12304429D01*
X5824523Y-12361571D01*
X5810238Y-12390143D01*
X5795952Y-12404429D01*
X5767381Y-12418714D01*
X5738809Y-12418714D01*
X5710238Y-12404429D01*
X5695952Y-12390143D01*
X5681666Y-12361571D01*
X5667381Y-12304429D01*
X5667381Y-12233000D01*
X5681666Y-12175857D01*
X5695952Y-12147286D01*
X5710238Y-12133000D01*
X5738809Y-12118714D01*
X5967381Y-12390143D02*
X5981666Y-12404429D01*
X5967381Y-12418714D01*
X5953095Y-12404429D01*
X5967381Y-12390143D01*
X5967381Y-12418714D01*
X6167381Y-12118714D02*
X6195952Y-12118714D01*
X6224523Y-12133000D01*
X6238809Y-12147286D01*
X6253095Y-12175857D01*
X6267381Y-12233000D01*
X6267381Y-12304429D01*
X6253095Y-12361571D01*
X6238809Y-12390143D01*
X6224523Y-12404429D01*
X6195952Y-12418714D01*
X6167381Y-12418714D01*
X6138809Y-12404429D01*
X6124523Y-12390143D01*
X6110238Y-12361571D01*
X6095952Y-12304429D01*
X6095952Y-12233000D01*
X6110238Y-12175857D01*
X6124523Y-12147286D01*
X6138809Y-12133000D01*
X6167381Y-12118714D01*
X6381666Y-12147286D02*
X6395952Y-12133000D01*
X6424523Y-12118714D01*
X6495952Y-12118714D01*
X6524523Y-12133000D01*
X6538809Y-12147286D01*
X6553095Y-12175857D01*
X6553095Y-12204429D01*
X6538809Y-12247286D01*
X6367381Y-12418714D01*
X6553095Y-12418714D01*
X6653095Y-12118714D02*
X6838809Y-12118714D01*
X6738809Y-12233000D01*
X6781666Y-12233000D01*
X6810238Y-12247286D01*
X6824523Y-12261571D01*
X6838809Y-12290143D01*
X6838809Y-12361571D01*
X6824523Y-12390143D01*
X6810238Y-12404429D01*
X6781666Y-12418714D01*
X6695952Y-12418714D01*
X6667381Y-12404429D01*
X6653095Y-12390143D01*
X7095952Y-12118714D02*
X7038809Y-12118714D01*
X7010238Y-12133000D01*
X6995952Y-12147286D01*
X6967381Y-12190143D01*
X6953095Y-12247286D01*
X6953095Y-12361571D01*
X6967381Y-12390143D01*
X6981666Y-12404429D01*
X7010238Y-12418714D01*
X7067381Y-12418714D01*
X7095952Y-12404429D01*
X7110238Y-12390143D01*
X7124523Y-12361571D01*
X7124523Y-12290143D01*
X7110238Y-12261571D01*
X7095952Y-12247286D01*
X7067381Y-12233000D01*
X7010238Y-12233000D01*
X6981666Y-12247286D01*
X6967381Y-12261571D01*
X6953095Y-12290143D01*
X7238809Y-12118714D02*
X7238809Y-12175857D01*
X7353095Y-12118714D02*
X7353095Y-12175857D01*
X7795952Y-12533000D02*
X7781666Y-12518714D01*
X7753095Y-12475857D01*
X7738809Y-12447286D01*
X7724523Y-12404429D01*
X7710238Y-12333000D01*
X7710238Y-12275857D01*
X7724523Y-12204429D01*
X7738809Y-12161571D01*
X7753095Y-12133000D01*
X7781666Y-12090143D01*
X7795952Y-12075857D01*
X7967381Y-12118714D02*
X7995952Y-12118714D01*
X8024523Y-12133000D01*
X8038809Y-12147286D01*
X8053095Y-12175857D01*
X8067381Y-12233000D01*
X8067381Y-12304429D01*
X8053095Y-12361571D01*
X8038809Y-12390143D01*
X8024523Y-12404429D01*
X7995952Y-12418714D01*
X7967381Y-12418714D01*
X7938809Y-12404429D01*
X7924523Y-12390143D01*
X7910238Y-12361571D01*
X7895952Y-12304429D01*
X7895952Y-12233000D01*
X7910238Y-12175857D01*
X7924523Y-12147286D01*
X7938809Y-12133000D01*
X7967381Y-12118714D01*
X8424523Y-12418714D02*
X8424523Y-12118714D01*
X8553095Y-12418714D02*
X8553095Y-12261571D01*
X8538809Y-12233000D01*
X8510238Y-12218714D01*
X8467381Y-12218714D01*
X8438809Y-12233000D01*
X8424523Y-12247286D01*
X8738809Y-12418714D02*
X8710238Y-12404429D01*
X8695952Y-12390143D01*
X8681666Y-12361571D01*
X8681666Y-12275857D01*
X8695952Y-12247286D01*
X8710238Y-12233000D01*
X8738809Y-12218714D01*
X8781666Y-12218714D01*
X8810238Y-12233000D01*
X8824523Y-12247286D01*
X8838809Y-12275857D01*
X8838809Y-12361571D01*
X8824523Y-12390143D01*
X8810238Y-12404429D01*
X8781666Y-12418714D01*
X8738809Y-12418714D01*
X9010238Y-12418714D02*
X8981666Y-12404429D01*
X8967381Y-12375857D01*
X8967381Y-12118714D01*
X9238809Y-12404429D02*
X9210238Y-12418714D01*
X9153095Y-12418714D01*
X9124523Y-12404429D01*
X9110238Y-12375857D01*
X9110238Y-12261571D01*
X9124523Y-12233000D01*
X9153095Y-12218714D01*
X9210238Y-12218714D01*
X9238809Y-12233000D01*
X9253095Y-12261571D01*
X9253095Y-12290143D01*
X9110238Y-12318714D01*
X9367381Y-12404429D02*
X9395952Y-12418714D01*
X9453095Y-12418714D01*
X9481666Y-12404429D01*
X9495952Y-12375857D01*
X9495952Y-12361571D01*
X9481666Y-12333000D01*
X9453095Y-12318714D01*
X9410238Y-12318714D01*
X9381666Y-12304429D01*
X9367381Y-12275857D01*
X9367381Y-12261571D01*
X9381666Y-12233000D01*
X9410238Y-12218714D01*
X9453095Y-12218714D01*
X9481666Y-12233000D01*
X9853095Y-12304429D02*
X10081666Y-12304429D01*
X9967381Y-12418714D02*
X9967381Y-12190143D01*
X10438809Y-12147286D02*
X10453095Y-12133000D01*
X10481666Y-12118714D01*
X10553095Y-12118714D01*
X10581666Y-12133000D01*
X10595952Y-12147286D01*
X10610238Y-12175857D01*
X10610238Y-12204429D01*
X10595952Y-12247286D01*
X10424523Y-12418714D01*
X10610238Y-12418714D01*
X10953095Y-12404429D02*
X10981666Y-12418714D01*
X11038809Y-12418714D01*
X11067381Y-12404429D01*
X11081666Y-12375857D01*
X11081666Y-12361571D01*
X11067381Y-12333000D01*
X11038809Y-12318714D01*
X10995952Y-12318714D01*
X10967381Y-12304429D01*
X10953095Y-12275857D01*
X10953095Y-12261571D01*
X10967381Y-12233000D01*
X10995952Y-12218714D01*
X11038809Y-12218714D01*
X11067381Y-12233000D01*
X11253095Y-12418714D02*
X11224523Y-12404429D01*
X11210238Y-12375857D01*
X11210238Y-12118714D01*
X11410238Y-12418714D02*
X11381666Y-12404429D01*
X11367381Y-12390143D01*
X11353095Y-12361571D01*
X11353095Y-12275857D01*
X11367381Y-12247286D01*
X11381666Y-12233000D01*
X11410238Y-12218714D01*
X11453095Y-12218714D01*
X11481666Y-12233000D01*
X11495952Y-12247286D01*
X11510238Y-12275857D01*
X11510238Y-12361571D01*
X11495952Y-12390143D01*
X11481666Y-12404429D01*
X11453095Y-12418714D01*
X11410238Y-12418714D01*
X11595952Y-12218714D02*
X11710238Y-12218714D01*
X11638809Y-12118714D02*
X11638809Y-12375857D01*
X11653095Y-12404429D01*
X11681666Y-12418714D01*
X11710238Y-12418714D01*
X11795952Y-12404429D02*
X11824523Y-12418714D01*
X11881666Y-12418714D01*
X11910238Y-12404429D01*
X11924523Y-12375857D01*
X11924523Y-12361571D01*
X11910238Y-12333000D01*
X11881666Y-12318714D01*
X11838809Y-12318714D01*
X11810238Y-12304429D01*
X11795952Y-12275857D01*
X11795952Y-12261571D01*
X11810238Y-12233000D01*
X11838809Y-12218714D01*
X11881666Y-12218714D01*
X11910238Y-12233000D01*
X12024523Y-12533000D02*
X12038809Y-12518714D01*
X12067381Y-12475857D01*
X12081666Y-12447286D01*
X12095952Y-12404429D01*
X12110238Y-12333000D01*
X12110238Y-12275857D01*
X12095952Y-12204429D01*
X12081666Y-12161571D01*
X12067381Y-12133000D01*
X12038809Y-12090143D01*
X12024523Y-12075857D01*
X2505595Y-12646500D02*
X2505595Y-12711500D01*
X2473095Y-12679000D02*
X2538095Y-12679000D01*
X2881666Y-12514714D02*
X2910238Y-12514714D01*
X2938809Y-12529000D01*
X2953095Y-12543286D01*
X2967381Y-12571857D01*
X2981666Y-12629000D01*
X2981666Y-12700429D01*
X2967381Y-12757571D01*
X2953095Y-12786143D01*
X2938809Y-12800429D01*
X2910238Y-12814714D01*
X2881666Y-12814714D01*
X2853095Y-12800429D01*
X2838809Y-12786143D01*
X2824523Y-12757571D01*
X2810238Y-12700429D01*
X2810238Y-12629000D01*
X2824523Y-12571857D01*
X2838809Y-12543286D01*
X2853095Y-12529000D01*
X2881666Y-12514714D01*
X3110238Y-12786143D02*
X3124523Y-12800429D01*
X3110238Y-12814714D01*
X3095952Y-12800429D01*
X3110238Y-12786143D01*
X3110238Y-12814714D01*
X3381666Y-12514714D02*
X3324523Y-12514714D01*
X3295952Y-12529000D01*
X3281666Y-12543286D01*
X3253095Y-12586143D01*
X3238809Y-12643286D01*
X3238809Y-12757571D01*
X3253095Y-12786143D01*
X3267381Y-12800429D01*
X3295952Y-12814714D01*
X3353095Y-12814714D01*
X3381666Y-12800429D01*
X3395952Y-12786143D01*
X3410238Y-12757571D01*
X3410238Y-12686143D01*
X3395952Y-12657571D01*
X3381666Y-12643286D01*
X3353095Y-12629000D01*
X3295952Y-12629000D01*
X3267381Y-12643286D01*
X3253095Y-12657571D01*
X3238809Y-12686143D01*
X3681666Y-12514714D02*
X3538809Y-12514714D01*
X3524523Y-12657571D01*
X3538809Y-12643286D01*
X3567381Y-12629000D01*
X3638809Y-12629000D01*
X3667381Y-12643286D01*
X3681666Y-12657571D01*
X3695952Y-12686143D01*
X3695952Y-12757571D01*
X3681666Y-12786143D01*
X3667381Y-12800429D01*
X3638809Y-12814714D01*
X3567381Y-12814714D01*
X3538809Y-12800429D01*
X3524523Y-12786143D01*
X3881666Y-12514714D02*
X3910238Y-12514714D01*
X3938809Y-12529000D01*
X3953095Y-12543286D01*
X3967381Y-12571857D01*
X3981666Y-12629000D01*
X3981666Y-12700429D01*
X3967381Y-12757571D01*
X3953095Y-12786143D01*
X3938809Y-12800429D01*
X3910238Y-12814714D01*
X3881666Y-12814714D01*
X3853095Y-12800429D01*
X3838809Y-12786143D01*
X3824523Y-12757571D01*
X3810238Y-12700429D01*
X3810238Y-12629000D01*
X3824523Y-12571857D01*
X3838809Y-12543286D01*
X3853095Y-12529000D01*
X3881666Y-12514714D01*
X4110238Y-12814714D02*
X4110238Y-12614714D01*
X4110238Y-12643286D02*
X4124523Y-12629000D01*
X4153095Y-12614714D01*
X4195952Y-12614714D01*
X4224523Y-12629000D01*
X4238809Y-12657571D01*
X4238809Y-12814714D01*
X4238809Y-12657571D02*
X4253095Y-12629000D01*
X4281666Y-12614714D01*
X4324523Y-12614714D01*
X4353095Y-12629000D01*
X4367381Y-12657571D01*
X4367381Y-12814714D01*
X4510238Y-12814714D02*
X4510238Y-12614714D01*
X4510238Y-12643286D02*
X4524523Y-12629000D01*
X4553095Y-12614714D01*
X4595952Y-12614714D01*
X4624523Y-12629000D01*
X4638809Y-12657571D01*
X4638809Y-12814714D01*
X4638809Y-12657571D02*
X4653095Y-12629000D01*
X4681666Y-12614714D01*
X4724523Y-12614714D01*
X4753095Y-12629000D01*
X4767381Y-12657571D01*
X4767381Y-12814714D01*
X5353095Y-12500429D02*
X5095952Y-12886143D01*
X5738809Y-12514714D02*
X5767381Y-12514714D01*
X5795952Y-12529000D01*
X5810238Y-12543286D01*
X5824523Y-12571857D01*
X5838809Y-12629000D01*
X5838809Y-12700429D01*
X5824523Y-12757571D01*
X5810238Y-12786143D01*
X5795952Y-12800429D01*
X5767381Y-12814714D01*
X5738809Y-12814714D01*
X5710238Y-12800429D01*
X5695952Y-12786143D01*
X5681666Y-12757571D01*
X5667381Y-12700429D01*
X5667381Y-12629000D01*
X5681666Y-12571857D01*
X5695952Y-12543286D01*
X5710238Y-12529000D01*
X5738809Y-12514714D01*
X5967381Y-12786143D02*
X5981666Y-12800429D01*
X5967381Y-12814714D01*
X5953095Y-12800429D01*
X5967381Y-12786143D01*
X5967381Y-12814714D01*
X6167381Y-12514714D02*
X6195952Y-12514714D01*
X6224523Y-12529000D01*
X6238809Y-12543286D01*
X6253095Y-12571857D01*
X6267381Y-12629000D01*
X6267381Y-12700429D01*
X6253095Y-12757571D01*
X6238809Y-12786143D01*
X6224523Y-12800429D01*
X6195952Y-12814714D01*
X6167381Y-12814714D01*
X6138809Y-12800429D01*
X6124523Y-12786143D01*
X6110238Y-12757571D01*
X6095952Y-12700429D01*
X6095952Y-12629000D01*
X6110238Y-12571857D01*
X6124523Y-12543286D01*
X6138809Y-12529000D01*
X6167381Y-12514714D01*
X6381666Y-12543286D02*
X6395952Y-12529000D01*
X6424523Y-12514714D01*
X6495952Y-12514714D01*
X6524523Y-12529000D01*
X6538809Y-12543286D01*
X6553095Y-12571857D01*
X6553095Y-12600429D01*
X6538809Y-12643286D01*
X6367381Y-12814714D01*
X6553095Y-12814714D01*
X6824523Y-12514714D02*
X6681666Y-12514714D01*
X6667381Y-12657571D01*
X6681666Y-12643286D01*
X6710238Y-12629000D01*
X6781666Y-12629000D01*
X6810238Y-12643286D01*
X6824523Y-12657571D01*
X6838809Y-12686143D01*
X6838809Y-12757571D01*
X6824523Y-12786143D01*
X6810238Y-12800429D01*
X6781666Y-12814714D01*
X6710238Y-12814714D01*
X6681666Y-12800429D01*
X6667381Y-12786143D01*
X7095952Y-12514714D02*
X7038809Y-12514714D01*
X7010238Y-12529000D01*
X6995952Y-12543286D01*
X6967381Y-12586143D01*
X6953095Y-12643286D01*
X6953095Y-12757571D01*
X6967381Y-12786143D01*
X6981666Y-12800429D01*
X7010238Y-12814714D01*
X7067381Y-12814714D01*
X7095952Y-12800429D01*
X7110238Y-12786143D01*
X7124523Y-12757571D01*
X7124523Y-12686143D01*
X7110238Y-12657571D01*
X7095952Y-12643286D01*
X7067381Y-12629000D01*
X7010238Y-12629000D01*
X6981666Y-12643286D01*
X6967381Y-12657571D01*
X6953095Y-12686143D01*
X7238809Y-12514714D02*
X7238809Y-12571857D01*
X7353095Y-12514714D02*
X7353095Y-12571857D01*
X7795952Y-12929000D02*
X7781666Y-12914714D01*
X7753095Y-12871857D01*
X7738809Y-12843286D01*
X7724523Y-12800429D01*
X7710238Y-12729000D01*
X7710238Y-12671857D01*
X7724523Y-12600429D01*
X7738809Y-12557571D01*
X7753095Y-12529000D01*
X7781666Y-12486143D01*
X7795952Y-12471857D01*
X7967381Y-12514714D02*
X7995952Y-12514714D01*
X8024523Y-12529000D01*
X8038809Y-12543286D01*
X8053095Y-12571857D01*
X8067381Y-12629000D01*
X8067381Y-12700429D01*
X8053095Y-12757571D01*
X8038809Y-12786143D01*
X8024523Y-12800429D01*
X7995952Y-12814714D01*
X7967381Y-12814714D01*
X7938809Y-12800429D01*
X7924523Y-12786143D01*
X7910238Y-12757571D01*
X7895952Y-12700429D01*
X7895952Y-12629000D01*
X7910238Y-12571857D01*
X7924523Y-12543286D01*
X7938809Y-12529000D01*
X7967381Y-12514714D01*
X8424523Y-12814714D02*
X8424523Y-12514714D01*
X8553095Y-12814714D02*
X8553095Y-12657571D01*
X8538809Y-12629000D01*
X8510238Y-12614714D01*
X8467381Y-12614714D01*
X8438809Y-12629000D01*
X8424523Y-12643286D01*
X8738809Y-12814714D02*
X8710238Y-12800429D01*
X8695952Y-12786143D01*
X8681666Y-12757571D01*
X8681666Y-12671857D01*
X8695952Y-12643286D01*
X8710238Y-12629000D01*
X8738809Y-12614714D01*
X8781666Y-12614714D01*
X8810238Y-12629000D01*
X8824523Y-12643286D01*
X8838809Y-12671857D01*
X8838809Y-12757571D01*
X8824523Y-12786143D01*
X8810238Y-12800429D01*
X8781666Y-12814714D01*
X8738809Y-12814714D01*
X9010238Y-12814714D02*
X8981666Y-12800429D01*
X8967381Y-12771857D01*
X8967381Y-12514714D01*
X9238809Y-12800429D02*
X9210238Y-12814714D01*
X9153095Y-12814714D01*
X9124523Y-12800429D01*
X9110238Y-12771857D01*
X9110238Y-12657571D01*
X9124523Y-12629000D01*
X9153095Y-12614714D01*
X9210238Y-12614714D01*
X9238809Y-12629000D01*
X9253095Y-12657571D01*
X9253095Y-12686143D01*
X9110238Y-12714714D01*
X9367381Y-12800429D02*
X9395952Y-12814714D01*
X9453095Y-12814714D01*
X9481666Y-12800429D01*
X9495952Y-12771857D01*
X9495952Y-12757571D01*
X9481666Y-12729000D01*
X9453095Y-12714714D01*
X9410238Y-12714714D01*
X9381666Y-12700429D01*
X9367381Y-12671857D01*
X9367381Y-12657571D01*
X9381666Y-12629000D01*
X9410238Y-12614714D01*
X9453095Y-12614714D01*
X9481666Y-12629000D01*
X9853095Y-12700429D02*
X10081666Y-12700429D01*
X9967381Y-12814714D02*
X9967381Y-12586143D01*
X10438809Y-12543286D02*
X10453095Y-12529000D01*
X10481666Y-12514714D01*
X10553095Y-12514714D01*
X10581666Y-12529000D01*
X10595952Y-12543286D01*
X10610238Y-12571857D01*
X10610238Y-12600429D01*
X10595952Y-12643286D01*
X10424523Y-12814714D01*
X10610238Y-12814714D01*
X10953095Y-12800429D02*
X10981666Y-12814714D01*
X11038809Y-12814714D01*
X11067381Y-12800429D01*
X11081666Y-12771857D01*
X11081666Y-12757571D01*
X11067381Y-12729000D01*
X11038809Y-12714714D01*
X10995952Y-12714714D01*
X10967381Y-12700429D01*
X10953095Y-12671857D01*
X10953095Y-12657571D01*
X10967381Y-12629000D01*
X10995952Y-12614714D01*
X11038809Y-12614714D01*
X11067381Y-12629000D01*
X11253095Y-12814714D02*
X11224523Y-12800429D01*
X11210238Y-12771857D01*
X11210238Y-12514714D01*
X11410238Y-12814714D02*
X11381666Y-12800429D01*
X11367381Y-12786143D01*
X11353095Y-12757571D01*
X11353095Y-12671857D01*
X11367381Y-12643286D01*
X11381666Y-12629000D01*
X11410238Y-12614714D01*
X11453095Y-12614714D01*
X11481666Y-12629000D01*
X11495952Y-12643286D01*
X11510238Y-12671857D01*
X11510238Y-12757571D01*
X11495952Y-12786143D01*
X11481666Y-12800429D01*
X11453095Y-12814714D01*
X11410238Y-12814714D01*
X11595952Y-12614714D02*
X11710238Y-12614714D01*
X11638809Y-12514714D02*
X11638809Y-12771857D01*
X11653095Y-12800429D01*
X11681666Y-12814714D01*
X11710238Y-12814714D01*
X11795952Y-12800429D02*
X11824523Y-12814714D01*
X11881666Y-12814714D01*
X11910238Y-12800429D01*
X11924523Y-12771857D01*
X11924523Y-12757571D01*
X11910238Y-12729000D01*
X11881666Y-12714714D01*
X11838809Y-12714714D01*
X11810238Y-12700429D01*
X11795952Y-12671857D01*
X11795952Y-12657571D01*
X11810238Y-12629000D01*
X11838809Y-12614714D01*
X11881666Y-12614714D01*
X11910238Y-12629000D01*
X12024523Y-12929000D02*
X12038809Y-12914714D01*
X12067381Y-12871857D01*
X12081666Y-12843286D01*
X12095952Y-12800429D01*
X12110238Y-12729000D01*
X12110238Y-12671857D01*
X12095952Y-12600429D01*
X12081666Y-12557571D01*
X12067381Y-12529000D01*
X12038809Y-12486143D01*
X12024523Y-12471857D01*
X2523451Y-13110356D02*
X2523451Y-13039644D01*
X2452739Y-13039644D01*
X2452739Y-13110356D01*
X2523451Y-13110356D01*
X2981666Y-13210714D02*
X2810238Y-13210714D01*
X2895952Y-13210714D02*
X2895952Y-12910714D01*
X2867381Y-12953571D01*
X2838809Y-12982143D01*
X2810238Y-12996429D01*
X3110238Y-13182143D02*
X3124523Y-13196429D01*
X3110238Y-13210714D01*
X3095952Y-13196429D01*
X3110238Y-13182143D01*
X3110238Y-13210714D01*
X3310238Y-12910714D02*
X3338809Y-12910714D01*
X3367381Y-12925000D01*
X3381666Y-12939286D01*
X3395952Y-12967857D01*
X3410238Y-13025000D01*
X3410238Y-13096429D01*
X3395952Y-13153571D01*
X3381666Y-13182143D01*
X3367381Y-13196429D01*
X3338809Y-13210714D01*
X3310238Y-13210714D01*
X3281666Y-13196429D01*
X3267381Y-13182143D01*
X3253095Y-13153571D01*
X3238809Y-13096429D01*
X3238809Y-13025000D01*
X3253095Y-12967857D01*
X3267381Y-12939286D01*
X3281666Y-12925000D01*
X3310238Y-12910714D01*
X3595952Y-12910714D02*
X3624523Y-12910714D01*
X3653095Y-12925000D01*
X3667381Y-12939286D01*
X3681666Y-12967857D01*
X3695952Y-13025000D01*
X3695952Y-13096429D01*
X3681666Y-13153571D01*
X3667381Y-13182143D01*
X3653095Y-13196429D01*
X3624523Y-13210714D01*
X3595952Y-13210714D01*
X3567381Y-13196429D01*
X3553095Y-13182143D01*
X3538809Y-13153571D01*
X3524523Y-13096429D01*
X3524523Y-13025000D01*
X3538809Y-12967857D01*
X3553095Y-12939286D01*
X3567381Y-12925000D01*
X3595952Y-12910714D01*
X3881666Y-12910714D02*
X3910238Y-12910714D01*
X3938809Y-12925000D01*
X3953095Y-12939286D01*
X3967381Y-12967857D01*
X3981666Y-13025000D01*
X3981666Y-13096429D01*
X3967381Y-13153571D01*
X3953095Y-13182143D01*
X3938809Y-13196429D01*
X3910238Y-13210714D01*
X3881666Y-13210714D01*
X3853095Y-13196429D01*
X3838809Y-13182143D01*
X3824523Y-13153571D01*
X3810238Y-13096429D01*
X3810238Y-13025000D01*
X3824523Y-12967857D01*
X3838809Y-12939286D01*
X3853095Y-12925000D01*
X3881666Y-12910714D01*
X4110238Y-13210714D02*
X4110238Y-13010714D01*
X4110238Y-13039286D02*
X4124523Y-13025000D01*
X4153095Y-13010714D01*
X4195952Y-13010714D01*
X4224523Y-13025000D01*
X4238809Y-13053571D01*
X4238809Y-13210714D01*
X4238809Y-13053571D02*
X4253095Y-13025000D01*
X4281666Y-13010714D01*
X4324523Y-13010714D01*
X4353095Y-13025000D01*
X4367381Y-13053571D01*
X4367381Y-13210714D01*
X4510238Y-13210714D02*
X4510238Y-13010714D01*
X4510238Y-13039286D02*
X4524523Y-13025000D01*
X4553095Y-13010714D01*
X4595952Y-13010714D01*
X4624523Y-13025000D01*
X4638809Y-13053571D01*
X4638809Y-13210714D01*
X4638809Y-13053571D02*
X4653095Y-13025000D01*
X4681666Y-13010714D01*
X4724523Y-13010714D01*
X4753095Y-13025000D01*
X4767381Y-13053571D01*
X4767381Y-13210714D01*
X5353095Y-12896429D02*
X5095952Y-13282143D01*
X5738809Y-12910714D02*
X5767381Y-12910714D01*
X5795952Y-12925000D01*
X5810238Y-12939286D01*
X5824523Y-12967857D01*
X5838809Y-13025000D01*
X5838809Y-13096429D01*
X5824523Y-13153571D01*
X5810238Y-13182143D01*
X5795952Y-13196429D01*
X5767381Y-13210714D01*
X5738809Y-13210714D01*
X5710238Y-13196429D01*
X5695952Y-13182143D01*
X5681666Y-13153571D01*
X5667381Y-13096429D01*
X5667381Y-13025000D01*
X5681666Y-12967857D01*
X5695952Y-12939286D01*
X5710238Y-12925000D01*
X5738809Y-12910714D01*
X5967381Y-13182143D02*
X5981666Y-13196429D01*
X5967381Y-13210714D01*
X5953095Y-13196429D01*
X5967381Y-13182143D01*
X5967381Y-13210714D01*
X6167381Y-12910714D02*
X6195952Y-12910714D01*
X6224523Y-12925000D01*
X6238809Y-12939286D01*
X6253095Y-12967857D01*
X6267381Y-13025000D01*
X6267381Y-13096429D01*
X6253095Y-13153571D01*
X6238809Y-13182143D01*
X6224523Y-13196429D01*
X6195952Y-13210714D01*
X6167381Y-13210714D01*
X6138809Y-13196429D01*
X6124523Y-13182143D01*
X6110238Y-13153571D01*
X6095952Y-13096429D01*
X6095952Y-13025000D01*
X6110238Y-12967857D01*
X6124523Y-12939286D01*
X6138809Y-12925000D01*
X6167381Y-12910714D01*
X6367381Y-12910714D02*
X6553095Y-12910714D01*
X6453095Y-13025000D01*
X6495952Y-13025000D01*
X6524523Y-13039286D01*
X6538809Y-13053571D01*
X6553095Y-13082143D01*
X6553095Y-13153571D01*
X6538809Y-13182143D01*
X6524523Y-13196429D01*
X6495952Y-13210714D01*
X6410238Y-13210714D01*
X6381666Y-13196429D01*
X6367381Y-13182143D01*
X6695952Y-13210714D02*
X6753095Y-13210714D01*
X6781666Y-13196429D01*
X6795952Y-13182143D01*
X6824523Y-13139286D01*
X6838809Y-13082143D01*
X6838809Y-12967857D01*
X6824523Y-12939286D01*
X6810238Y-12925000D01*
X6781666Y-12910714D01*
X6724523Y-12910714D01*
X6695952Y-12925000D01*
X6681666Y-12939286D01*
X6667381Y-12967857D01*
X6667381Y-13039286D01*
X6681666Y-13067857D01*
X6695952Y-13082143D01*
X6724523Y-13096429D01*
X6781666Y-13096429D01*
X6810238Y-13082143D01*
X6824523Y-13067857D01*
X6838809Y-13039286D01*
X7095952Y-13010714D02*
X7095952Y-13210714D01*
X7024523Y-12896429D02*
X6953095Y-13110714D01*
X7138809Y-13110714D01*
X7238809Y-12910714D02*
X7238809Y-12967857D01*
X7353095Y-12910714D02*
X7353095Y-12967857D01*
X7795952Y-13325000D02*
X7781666Y-13310714D01*
X7753095Y-13267857D01*
X7738809Y-13239286D01*
X7724523Y-13196429D01*
X7710238Y-13125000D01*
X7710238Y-13067857D01*
X7724523Y-12996429D01*
X7738809Y-12953571D01*
X7753095Y-12925000D01*
X7781666Y-12882143D01*
X7795952Y-12867857D01*
X8038809Y-13010714D02*
X8038809Y-13210714D01*
X7967381Y-12896429D02*
X7895952Y-13110714D01*
X8081666Y-13110714D01*
X8167381Y-12910714D02*
X8353095Y-12910714D01*
X8253095Y-13025000D01*
X8295952Y-13025000D01*
X8324523Y-13039286D01*
X8338809Y-13053571D01*
X8353095Y-13082143D01*
X8353095Y-13153571D01*
X8338809Y-13182143D01*
X8324523Y-13196429D01*
X8295952Y-13210714D01*
X8210238Y-13210714D01*
X8181666Y-13196429D01*
X8167381Y-13182143D01*
X8710238Y-13210714D02*
X8710238Y-12910714D01*
X8838809Y-13210714D02*
X8838809Y-13053571D01*
X8824523Y-13025000D01*
X8795952Y-13010714D01*
X8753095Y-13010714D01*
X8724523Y-13025000D01*
X8710238Y-13039286D01*
X9024523Y-13210714D02*
X8995952Y-13196429D01*
X8981666Y-13182143D01*
X8967381Y-13153571D01*
X8967381Y-13067857D01*
X8981666Y-13039286D01*
X8995952Y-13025000D01*
X9024523Y-13010714D01*
X9067381Y-13010714D01*
X9095952Y-13025000D01*
X9110238Y-13039286D01*
X9124523Y-13067857D01*
X9124523Y-13153571D01*
X9110238Y-13182143D01*
X9095952Y-13196429D01*
X9067381Y-13210714D01*
X9024523Y-13210714D01*
X9295952Y-13210714D02*
X9267381Y-13196429D01*
X9253095Y-13167857D01*
X9253095Y-12910714D01*
X9524523Y-13196429D02*
X9495952Y-13210714D01*
X9438809Y-13210714D01*
X9410238Y-13196429D01*
X9395952Y-13167857D01*
X9395952Y-13053571D01*
X9410238Y-13025000D01*
X9438809Y-13010714D01*
X9495952Y-13010714D01*
X9524523Y-13025000D01*
X9538809Y-13053571D01*
X9538809Y-13082143D01*
X9395952Y-13110714D01*
X9653095Y-13196429D02*
X9681666Y-13210714D01*
X9738809Y-13210714D01*
X9767381Y-13196429D01*
X9781666Y-13167857D01*
X9781666Y-13153571D01*
X9767381Y-13125000D01*
X9738809Y-13110714D01*
X9695952Y-13110714D01*
X9667381Y-13096429D01*
X9653095Y-13067857D01*
X9653095Y-13053571D01*
X9667381Y-13025000D01*
X9695952Y-13010714D01*
X9738809Y-13010714D01*
X9767381Y-13025000D01*
X9881666Y-13325000D02*
X9895952Y-13310714D01*
X9924523Y-13267857D01*
X9938809Y-13239286D01*
X9953095Y-13196429D01*
X9967381Y-13125000D01*
X9967381Y-13067857D01*
X9953095Y-12996429D01*
X9938809Y-12953571D01*
X9924523Y-12925000D01*
X9895952Y-12882143D01*
X9881666Y-12867857D01*
M02*
