G04 #@! TF.GenerationSoftware,KiCad,Pcbnew,(5.1.10)-1*
G04 #@! TF.CreationDate,2021-12-04T16:44:40+01:00*
G04 #@! TF.ProjectId,nRF52832_development_board_schematic,6e524635-3238-4333-925f-646576656c6f,1*
G04 #@! TF.SameCoordinates,Original*
G04 #@! TF.FileFunction,Legend,Top*
G04 #@! TF.FilePolarity,Positive*
%FSLAX46Y46*%
G04 Gerber Fmt 4.6, Leading zero omitted, Abs format (unit mm)*
G04 Created by KiCad (PCBNEW (5.1.10)-1) date 2021-12-04 16:44:40*
%MOMM*%
%LPD*%
G01*
G04 APERTURE LIST*
%ADD10C,0.152400*%
%ADD11C,0.120000*%
%ADD12C,0.150000*%
%ADD13R,0.600000X1.500000*%
%ADD14R,0.900000X1.300000*%
%ADD15O,1.700000X1.700000*%
%ADD16R,1.700000X1.700000*%
%ADD17C,1.700000*%
%ADD18R,0.875000X1.900000*%
%ADD19R,2.900000X1.900000*%
%ADD20R,0.400000X1.350000*%
%ADD21O,1.000000X1.900000*%
%ADD22O,1.050000X1.250000*%
G04 APERTURE END LIST*
D10*
X50613409Y-73867695D02*
X50613409Y-73054895D01*
X50923047Y-73054895D01*
X51000457Y-73093600D01*
X51039161Y-73132304D01*
X51077866Y-73209714D01*
X51077866Y-73325828D01*
X51039161Y-73403238D01*
X51000457Y-73441942D01*
X50923047Y-73480647D01*
X50613409Y-73480647D01*
X51542323Y-73867695D02*
X51464914Y-73828990D01*
X51426209Y-73790285D01*
X51387504Y-73712876D01*
X51387504Y-73480647D01*
X51426209Y-73403238D01*
X51464914Y-73364533D01*
X51542323Y-73325828D01*
X51658438Y-73325828D01*
X51735847Y-73364533D01*
X51774552Y-73403238D01*
X51813257Y-73480647D01*
X51813257Y-73712876D01*
X51774552Y-73790285D01*
X51735847Y-73828990D01*
X51658438Y-73867695D01*
X51542323Y-73867695D01*
X52084190Y-73325828D02*
X52239009Y-73867695D01*
X52393828Y-73480647D01*
X52548647Y-73867695D01*
X52703466Y-73325828D01*
X53322742Y-73828990D02*
X53245333Y-73867695D01*
X53090514Y-73867695D01*
X53013104Y-73828990D01*
X52974400Y-73751580D01*
X52974400Y-73441942D01*
X53013104Y-73364533D01*
X53090514Y-73325828D01*
X53245333Y-73325828D01*
X53322742Y-73364533D01*
X53361447Y-73441942D01*
X53361447Y-73519352D01*
X52974400Y-73596761D01*
X53709790Y-73867695D02*
X53709790Y-73325828D01*
X53709790Y-73480647D02*
X53748495Y-73403238D01*
X53787200Y-73364533D01*
X53864609Y-73325828D01*
X53942019Y-73325828D01*
X54832228Y-73325828D02*
X54832228Y-74022514D01*
X54793523Y-74099923D01*
X54716114Y-74138628D01*
X54677409Y-74138628D01*
X54832228Y-73054895D02*
X54793523Y-73093600D01*
X54832228Y-73132304D01*
X54870933Y-73093600D01*
X54832228Y-73054895D01*
X54832228Y-73132304D01*
X55567619Y-73325828D02*
X55567619Y-73867695D01*
X55219276Y-73325828D02*
X55219276Y-73751580D01*
X55257980Y-73828990D01*
X55335390Y-73867695D01*
X55451504Y-73867695D01*
X55528914Y-73828990D01*
X55567619Y-73790285D01*
X55954666Y-73867695D02*
X55954666Y-73325828D01*
X55954666Y-73403238D02*
X55993371Y-73364533D01*
X56070780Y-73325828D01*
X56186895Y-73325828D01*
X56264304Y-73364533D01*
X56303009Y-73441942D01*
X56303009Y-73867695D01*
X56303009Y-73441942D02*
X56341714Y-73364533D01*
X56419123Y-73325828D01*
X56535238Y-73325828D01*
X56612647Y-73364533D01*
X56651352Y-73441942D01*
X56651352Y-73867695D01*
X57038400Y-73325828D02*
X57038400Y-74138628D01*
X57038400Y-73364533D02*
X57115809Y-73325828D01*
X57270628Y-73325828D01*
X57348038Y-73364533D01*
X57386742Y-73403238D01*
X57425447Y-73480647D01*
X57425447Y-73712876D01*
X57386742Y-73790285D01*
X57348038Y-73828990D01*
X57270628Y-73867695D01*
X57115809Y-73867695D01*
X57038400Y-73828990D01*
X58083428Y-73828990D02*
X58006019Y-73867695D01*
X57851200Y-73867695D01*
X57773790Y-73828990D01*
X57735085Y-73751580D01*
X57735085Y-73441942D01*
X57773790Y-73364533D01*
X57851200Y-73325828D01*
X58006019Y-73325828D01*
X58083428Y-73364533D01*
X58122133Y-73441942D01*
X58122133Y-73519352D01*
X57735085Y-73596761D01*
X58470476Y-73867695D02*
X58470476Y-73325828D01*
X58470476Y-73480647D02*
X58509180Y-73403238D01*
X58547885Y-73364533D01*
X58625295Y-73325828D01*
X58702704Y-73325828D01*
X30763028Y-74027695D02*
X30763028Y-73214895D01*
X31072666Y-73214895D01*
X31150076Y-73253600D01*
X31188780Y-73292304D01*
X31227485Y-73369714D01*
X31227485Y-73485828D01*
X31188780Y-73563238D01*
X31150076Y-73601942D01*
X31072666Y-73640647D01*
X30763028Y-73640647D01*
X31537123Y-73292304D02*
X31575828Y-73253600D01*
X31653238Y-73214895D01*
X31846761Y-73214895D01*
X31924171Y-73253600D01*
X31962876Y-73292304D01*
X32001580Y-73369714D01*
X32001580Y-73447123D01*
X31962876Y-73563238D01*
X31498419Y-74027695D01*
X32001580Y-74027695D01*
X32736971Y-73214895D02*
X32349923Y-73214895D01*
X32311219Y-73601942D01*
X32349923Y-73563238D01*
X32427333Y-73524533D01*
X32620857Y-73524533D01*
X32698266Y-73563238D01*
X32736971Y-73601942D01*
X32775676Y-73679352D01*
X32775676Y-73872876D01*
X32736971Y-73950285D01*
X32698266Y-73988990D01*
X32620857Y-74027695D01*
X32427333Y-74027695D01*
X32349923Y-73988990D01*
X32311219Y-73950285D01*
X31130723Y-106273600D02*
X31053314Y-106234895D01*
X30937200Y-106234895D01*
X30821085Y-106273600D01*
X30743676Y-106351009D01*
X30704971Y-106428419D01*
X30666266Y-106583238D01*
X30666266Y-106699352D01*
X30704971Y-106854171D01*
X30743676Y-106931580D01*
X30821085Y-107008990D01*
X30937200Y-107047695D01*
X31014609Y-107047695D01*
X31130723Y-107008990D01*
X31169428Y-106970285D01*
X31169428Y-106699352D01*
X31014609Y-106699352D01*
X31517771Y-107047695D02*
X31517771Y-106234895D01*
X31982228Y-107047695D01*
X31982228Y-106234895D01*
X32369276Y-107047695D02*
X32369276Y-106234895D01*
X32562800Y-106234895D01*
X32678914Y-106273600D01*
X32756323Y-106351009D01*
X32795028Y-106428419D01*
X32833733Y-106583238D01*
X32833733Y-106699352D01*
X32795028Y-106854171D01*
X32756323Y-106931580D01*
X32678914Y-107008990D01*
X32562800Y-107047695D01*
X32369276Y-107047695D01*
X30763028Y-104507695D02*
X30763028Y-103694895D01*
X31072666Y-103694895D01*
X31150076Y-103733600D01*
X31188780Y-103772304D01*
X31227485Y-103849714D01*
X31227485Y-103965828D01*
X31188780Y-104043238D01*
X31150076Y-104081942D01*
X31072666Y-104120647D01*
X30763028Y-104120647D01*
X32001580Y-104507695D02*
X31537123Y-104507695D01*
X31769352Y-104507695D02*
X31769352Y-103694895D01*
X31691942Y-103811009D01*
X31614533Y-103888419D01*
X31537123Y-103927123D01*
X32466038Y-104043238D02*
X32388628Y-104004533D01*
X32349923Y-103965828D01*
X32311219Y-103888419D01*
X32311219Y-103849714D01*
X32349923Y-103772304D01*
X32388628Y-103733600D01*
X32466038Y-103694895D01*
X32620857Y-103694895D01*
X32698266Y-103733600D01*
X32736971Y-103772304D01*
X32775676Y-103849714D01*
X32775676Y-103888419D01*
X32736971Y-103965828D01*
X32698266Y-104004533D01*
X32620857Y-104043238D01*
X32466038Y-104043238D01*
X32388628Y-104081942D01*
X32349923Y-104120647D01*
X32311219Y-104198057D01*
X32311219Y-104352876D01*
X32349923Y-104430285D01*
X32388628Y-104468990D01*
X32466038Y-104507695D01*
X32620857Y-104507695D01*
X32698266Y-104468990D01*
X32736971Y-104430285D01*
X32775676Y-104352876D01*
X32775676Y-104198057D01*
X32736971Y-104120647D01*
X32698266Y-104081942D01*
X32620857Y-104043238D01*
X30763028Y-101967695D02*
X30763028Y-101154895D01*
X31072666Y-101154895D01*
X31150076Y-101193600D01*
X31188780Y-101232304D01*
X31227485Y-101309714D01*
X31227485Y-101425828D01*
X31188780Y-101503238D01*
X31150076Y-101541942D01*
X31072666Y-101580647D01*
X30763028Y-101580647D01*
X32001580Y-101967695D02*
X31537123Y-101967695D01*
X31769352Y-101967695D02*
X31769352Y-101154895D01*
X31691942Y-101271009D01*
X31614533Y-101348419D01*
X31537123Y-101387123D01*
X32388628Y-101967695D02*
X32543447Y-101967695D01*
X32620857Y-101928990D01*
X32659561Y-101890285D01*
X32736971Y-101774171D01*
X32775676Y-101619352D01*
X32775676Y-101309714D01*
X32736971Y-101232304D01*
X32698266Y-101193600D01*
X32620857Y-101154895D01*
X32466038Y-101154895D01*
X32388628Y-101193600D01*
X32349923Y-101232304D01*
X32311219Y-101309714D01*
X32311219Y-101503238D01*
X32349923Y-101580647D01*
X32388628Y-101619352D01*
X32466038Y-101658057D01*
X32620857Y-101658057D01*
X32698266Y-101619352D01*
X32736971Y-101580647D01*
X32775676Y-101503238D01*
X30763028Y-99427695D02*
X30763028Y-98614895D01*
X31072666Y-98614895D01*
X31150076Y-98653600D01*
X31188780Y-98692304D01*
X31227485Y-98769714D01*
X31227485Y-98885828D01*
X31188780Y-98963238D01*
X31150076Y-99001942D01*
X31072666Y-99040647D01*
X30763028Y-99040647D01*
X31537123Y-98692304D02*
X31575828Y-98653600D01*
X31653238Y-98614895D01*
X31846761Y-98614895D01*
X31924171Y-98653600D01*
X31962876Y-98692304D01*
X32001580Y-98769714D01*
X32001580Y-98847123D01*
X31962876Y-98963238D01*
X31498419Y-99427695D01*
X32001580Y-99427695D01*
X32504742Y-98614895D02*
X32582152Y-98614895D01*
X32659561Y-98653600D01*
X32698266Y-98692304D01*
X32736971Y-98769714D01*
X32775676Y-98924533D01*
X32775676Y-99118057D01*
X32736971Y-99272876D01*
X32698266Y-99350285D01*
X32659561Y-99388990D01*
X32582152Y-99427695D01*
X32504742Y-99427695D01*
X32427333Y-99388990D01*
X32388628Y-99350285D01*
X32349923Y-99272876D01*
X32311219Y-99118057D01*
X32311219Y-98924533D01*
X32349923Y-98769714D01*
X32388628Y-98692304D01*
X32427333Y-98653600D01*
X32504742Y-98614895D01*
X30763028Y-96887695D02*
X30763028Y-96074895D01*
X31072666Y-96074895D01*
X31150076Y-96113600D01*
X31188780Y-96152304D01*
X31227485Y-96229714D01*
X31227485Y-96345828D01*
X31188780Y-96423238D01*
X31150076Y-96461942D01*
X31072666Y-96500647D01*
X30763028Y-96500647D01*
X31537123Y-96152304D02*
X31575828Y-96113600D01*
X31653238Y-96074895D01*
X31846761Y-96074895D01*
X31924171Y-96113600D01*
X31962876Y-96152304D01*
X32001580Y-96229714D01*
X32001580Y-96307123D01*
X31962876Y-96423238D01*
X31498419Y-96887695D01*
X32001580Y-96887695D01*
X32311219Y-96152304D02*
X32349923Y-96113600D01*
X32427333Y-96074895D01*
X32620857Y-96074895D01*
X32698266Y-96113600D01*
X32736971Y-96152304D01*
X32775676Y-96229714D01*
X32775676Y-96307123D01*
X32736971Y-96423238D01*
X32272514Y-96887695D01*
X32775676Y-96887695D01*
X30763028Y-94347695D02*
X30763028Y-93534895D01*
X31072666Y-93534895D01*
X31150076Y-93573600D01*
X31188780Y-93612304D01*
X31227485Y-93689714D01*
X31227485Y-93805828D01*
X31188780Y-93883238D01*
X31150076Y-93921942D01*
X31072666Y-93960647D01*
X30763028Y-93960647D01*
X31537123Y-93612304D02*
X31575828Y-93573600D01*
X31653238Y-93534895D01*
X31846761Y-93534895D01*
X31924171Y-93573600D01*
X31962876Y-93612304D01*
X32001580Y-93689714D01*
X32001580Y-93767123D01*
X31962876Y-93883238D01*
X31498419Y-94347695D01*
X32001580Y-94347695D01*
X32272514Y-93534895D02*
X32775676Y-93534895D01*
X32504742Y-93844533D01*
X32620857Y-93844533D01*
X32698266Y-93883238D01*
X32736971Y-93921942D01*
X32775676Y-93999352D01*
X32775676Y-94192876D01*
X32736971Y-94270285D01*
X32698266Y-94308990D01*
X32620857Y-94347695D01*
X32388628Y-94347695D01*
X32311219Y-94308990D01*
X32272514Y-94270285D01*
X30763028Y-91807695D02*
X30763028Y-90994895D01*
X31072666Y-90994895D01*
X31150076Y-91033600D01*
X31188780Y-91072304D01*
X31227485Y-91149714D01*
X31227485Y-91265828D01*
X31188780Y-91343238D01*
X31150076Y-91381942D01*
X31072666Y-91420647D01*
X30763028Y-91420647D01*
X31537123Y-91072304D02*
X31575828Y-91033600D01*
X31653238Y-90994895D01*
X31846761Y-90994895D01*
X31924171Y-91033600D01*
X31962876Y-91072304D01*
X32001580Y-91149714D01*
X32001580Y-91227123D01*
X31962876Y-91343238D01*
X31498419Y-91807695D01*
X32001580Y-91807695D01*
X32698266Y-91265828D02*
X32698266Y-91807695D01*
X32504742Y-90956190D02*
X32311219Y-91536761D01*
X32814380Y-91536761D01*
X30763028Y-89267695D02*
X30763028Y-88454895D01*
X31072666Y-88454895D01*
X31150076Y-88493600D01*
X31188780Y-88532304D01*
X31227485Y-88609714D01*
X31227485Y-88725828D01*
X31188780Y-88803238D01*
X31150076Y-88841942D01*
X31072666Y-88880647D01*
X30763028Y-88880647D01*
X31498419Y-88454895D02*
X32001580Y-88454895D01*
X31730647Y-88764533D01*
X31846761Y-88764533D01*
X31924171Y-88803238D01*
X31962876Y-88841942D01*
X32001580Y-88919352D01*
X32001580Y-89112876D01*
X31962876Y-89190285D01*
X31924171Y-89228990D01*
X31846761Y-89267695D01*
X31614533Y-89267695D01*
X31537123Y-89228990D01*
X31498419Y-89190285D01*
X32775676Y-89267695D02*
X32311219Y-89267695D01*
X32543447Y-89267695D02*
X32543447Y-88454895D01*
X32466038Y-88571009D01*
X32388628Y-88648419D01*
X32311219Y-88687123D01*
X30763028Y-86727695D02*
X30763028Y-85914895D01*
X31072666Y-85914895D01*
X31150076Y-85953600D01*
X31188780Y-85992304D01*
X31227485Y-86069714D01*
X31227485Y-86185828D01*
X31188780Y-86263238D01*
X31150076Y-86301942D01*
X31072666Y-86340647D01*
X30763028Y-86340647D01*
X31498419Y-85914895D02*
X32001580Y-85914895D01*
X31730647Y-86224533D01*
X31846761Y-86224533D01*
X31924171Y-86263238D01*
X31962876Y-86301942D01*
X32001580Y-86379352D01*
X32001580Y-86572876D01*
X31962876Y-86650285D01*
X31924171Y-86688990D01*
X31846761Y-86727695D01*
X31614533Y-86727695D01*
X31537123Y-86688990D01*
X31498419Y-86650285D01*
X32504742Y-85914895D02*
X32582152Y-85914895D01*
X32659561Y-85953600D01*
X32698266Y-85992304D01*
X32736971Y-86069714D01*
X32775676Y-86224533D01*
X32775676Y-86418057D01*
X32736971Y-86572876D01*
X32698266Y-86650285D01*
X32659561Y-86688990D01*
X32582152Y-86727695D01*
X32504742Y-86727695D01*
X32427333Y-86688990D01*
X32388628Y-86650285D01*
X32349923Y-86572876D01*
X32311219Y-86418057D01*
X32311219Y-86224533D01*
X32349923Y-86069714D01*
X32388628Y-85992304D01*
X32427333Y-85953600D01*
X32504742Y-85914895D01*
X30763028Y-84187695D02*
X30763028Y-83374895D01*
X31072666Y-83374895D01*
X31150076Y-83413600D01*
X31188780Y-83452304D01*
X31227485Y-83529714D01*
X31227485Y-83645828D01*
X31188780Y-83723238D01*
X31150076Y-83761942D01*
X31072666Y-83800647D01*
X30763028Y-83800647D01*
X31537123Y-83452304D02*
X31575828Y-83413600D01*
X31653238Y-83374895D01*
X31846761Y-83374895D01*
X31924171Y-83413600D01*
X31962876Y-83452304D01*
X32001580Y-83529714D01*
X32001580Y-83607123D01*
X31962876Y-83723238D01*
X31498419Y-84187695D01*
X32001580Y-84187695D01*
X32388628Y-84187695D02*
X32543447Y-84187695D01*
X32620857Y-84148990D01*
X32659561Y-84110285D01*
X32736971Y-83994171D01*
X32775676Y-83839352D01*
X32775676Y-83529714D01*
X32736971Y-83452304D01*
X32698266Y-83413600D01*
X32620857Y-83374895D01*
X32466038Y-83374895D01*
X32388628Y-83413600D01*
X32349923Y-83452304D01*
X32311219Y-83529714D01*
X32311219Y-83723238D01*
X32349923Y-83800647D01*
X32388628Y-83839352D01*
X32466038Y-83878057D01*
X32620857Y-83878057D01*
X32698266Y-83839352D01*
X32736971Y-83800647D01*
X32775676Y-83723238D01*
X30763028Y-81647695D02*
X30763028Y-80834895D01*
X31072666Y-80834895D01*
X31150076Y-80873600D01*
X31188780Y-80912304D01*
X31227485Y-80989714D01*
X31227485Y-81105828D01*
X31188780Y-81183238D01*
X31150076Y-81221942D01*
X31072666Y-81260647D01*
X30763028Y-81260647D01*
X31537123Y-80912304D02*
X31575828Y-80873600D01*
X31653238Y-80834895D01*
X31846761Y-80834895D01*
X31924171Y-80873600D01*
X31962876Y-80912304D01*
X32001580Y-80989714D01*
X32001580Y-81067123D01*
X31962876Y-81183238D01*
X31498419Y-81647695D01*
X32001580Y-81647695D01*
X32466038Y-81183238D02*
X32388628Y-81144533D01*
X32349923Y-81105828D01*
X32311219Y-81028419D01*
X32311219Y-80989714D01*
X32349923Y-80912304D01*
X32388628Y-80873600D01*
X32466038Y-80834895D01*
X32620857Y-80834895D01*
X32698266Y-80873600D01*
X32736971Y-80912304D01*
X32775676Y-80989714D01*
X32775676Y-81028419D01*
X32736971Y-81105828D01*
X32698266Y-81144533D01*
X32620857Y-81183238D01*
X32466038Y-81183238D01*
X32388628Y-81221942D01*
X32349923Y-81260647D01*
X32311219Y-81338057D01*
X32311219Y-81492876D01*
X32349923Y-81570285D01*
X32388628Y-81608990D01*
X32466038Y-81647695D01*
X32620857Y-81647695D01*
X32698266Y-81608990D01*
X32736971Y-81570285D01*
X32775676Y-81492876D01*
X32775676Y-81338057D01*
X32736971Y-81260647D01*
X32698266Y-81221942D01*
X32620857Y-81183238D01*
X30763028Y-79107695D02*
X30763028Y-78294895D01*
X31072666Y-78294895D01*
X31150076Y-78333600D01*
X31188780Y-78372304D01*
X31227485Y-78449714D01*
X31227485Y-78565828D01*
X31188780Y-78643238D01*
X31150076Y-78681942D01*
X31072666Y-78720647D01*
X30763028Y-78720647D01*
X31537123Y-78372304D02*
X31575828Y-78333600D01*
X31653238Y-78294895D01*
X31846761Y-78294895D01*
X31924171Y-78333600D01*
X31962876Y-78372304D01*
X32001580Y-78449714D01*
X32001580Y-78527123D01*
X31962876Y-78643238D01*
X31498419Y-79107695D01*
X32001580Y-79107695D01*
X32272514Y-78294895D02*
X32814380Y-78294895D01*
X32466038Y-79107695D01*
X30763028Y-76567695D02*
X30763028Y-75754895D01*
X31072666Y-75754895D01*
X31150076Y-75793600D01*
X31188780Y-75832304D01*
X31227485Y-75909714D01*
X31227485Y-76025828D01*
X31188780Y-76103238D01*
X31150076Y-76141942D01*
X31072666Y-76180647D01*
X30763028Y-76180647D01*
X31537123Y-75832304D02*
X31575828Y-75793600D01*
X31653238Y-75754895D01*
X31846761Y-75754895D01*
X31924171Y-75793600D01*
X31962876Y-75832304D01*
X32001580Y-75909714D01*
X32001580Y-75987123D01*
X31962876Y-76103238D01*
X31498419Y-76567695D01*
X32001580Y-76567695D01*
X32698266Y-75754895D02*
X32543447Y-75754895D01*
X32466038Y-75793600D01*
X32427333Y-75832304D01*
X32349923Y-75948419D01*
X32311219Y-76103238D01*
X32311219Y-76412876D01*
X32349923Y-76490285D01*
X32388628Y-76528990D01*
X32466038Y-76567695D01*
X32620857Y-76567695D01*
X32698266Y-76528990D01*
X32736971Y-76490285D01*
X32775676Y-76412876D01*
X32775676Y-76219352D01*
X32736971Y-76141942D01*
X32698266Y-76103238D01*
X32620857Y-76064533D01*
X32466038Y-76064533D01*
X32388628Y-76103238D01*
X32349923Y-76141942D01*
X32311219Y-76219352D01*
X30639657Y-71487695D02*
X30639657Y-70945828D01*
X30639657Y-71023238D02*
X30678361Y-70984533D01*
X30755771Y-70945828D01*
X30871885Y-70945828D01*
X30949295Y-70984533D01*
X30988000Y-71061942D01*
X30988000Y-71487695D01*
X30988000Y-71061942D02*
X31026704Y-70984533D01*
X31104114Y-70945828D01*
X31220228Y-70945828D01*
X31297638Y-70984533D01*
X31336342Y-71061942D01*
X31336342Y-71487695D01*
X32071733Y-71448990D02*
X31994323Y-71487695D01*
X31839504Y-71487695D01*
X31762095Y-71448990D01*
X31723390Y-71410285D01*
X31684685Y-71332876D01*
X31684685Y-71100647D01*
X31723390Y-71023238D01*
X31762095Y-70984533D01*
X31839504Y-70945828D01*
X31994323Y-70945828D01*
X32071733Y-70984533D01*
X32768419Y-70945828D02*
X32768419Y-71487695D01*
X32420076Y-70945828D02*
X32420076Y-71371580D01*
X32458780Y-71448990D01*
X32536190Y-71487695D01*
X32652304Y-71487695D01*
X32729714Y-71448990D01*
X32768419Y-71410285D01*
X33697333Y-70945828D02*
X33890857Y-71487695D01*
X34084380Y-70945828D01*
X34742361Y-71448990D02*
X34664952Y-71487695D01*
X34510133Y-71487695D01*
X34432723Y-71448990D01*
X34394019Y-71410285D01*
X34355314Y-71332876D01*
X34355314Y-71100647D01*
X34394019Y-71023238D01*
X34432723Y-70984533D01*
X34510133Y-70945828D01*
X34664952Y-70945828D01*
X34742361Y-70984533D01*
X35439047Y-71448990D02*
X35361638Y-71487695D01*
X35206819Y-71487695D01*
X35129409Y-71448990D01*
X35090704Y-71410285D01*
X35052000Y-71332876D01*
X35052000Y-71100647D01*
X35090704Y-71023238D01*
X35129409Y-70984533D01*
X35206819Y-70945828D01*
X35361638Y-70945828D01*
X35439047Y-70984533D01*
X71557847Y-106234895D02*
X71828780Y-107047695D01*
X72099714Y-106234895D01*
X72370647Y-107047695D02*
X72370647Y-106505828D01*
X72370647Y-106234895D02*
X72331942Y-106273600D01*
X72370647Y-106312304D01*
X72409352Y-106273600D01*
X72370647Y-106234895D01*
X72370647Y-106312304D01*
X72757695Y-106505828D02*
X72757695Y-107047695D01*
X72757695Y-106583238D02*
X72796400Y-106544533D01*
X72873809Y-106505828D01*
X72989923Y-106505828D01*
X73067333Y-106544533D01*
X73106038Y-106621942D01*
X73106038Y-107047695D01*
X71286914Y-103356664D02*
X72099714Y-103356664D01*
X71944895Y-104507695D02*
X71673961Y-104120647D01*
X71480438Y-104507695D02*
X71480438Y-103694895D01*
X71790076Y-103694895D01*
X71867485Y-103733600D01*
X71906190Y-103772304D01*
X71944895Y-103849714D01*
X71944895Y-103965828D01*
X71906190Y-104043238D01*
X71867485Y-104081942D01*
X71790076Y-104120647D01*
X71480438Y-104120647D01*
X72099714Y-103356664D02*
X72873809Y-103356664D01*
X72254533Y-104468990D02*
X72370647Y-104507695D01*
X72564171Y-104507695D01*
X72641580Y-104468990D01*
X72680285Y-104430285D01*
X72718990Y-104352876D01*
X72718990Y-104275466D01*
X72680285Y-104198057D01*
X72641580Y-104159352D01*
X72564171Y-104120647D01*
X72409352Y-104081942D01*
X72331942Y-104043238D01*
X72293238Y-104004533D01*
X72254533Y-103927123D01*
X72254533Y-103849714D01*
X72293238Y-103772304D01*
X72331942Y-103733600D01*
X72409352Y-103694895D01*
X72602876Y-103694895D01*
X72718990Y-103733600D01*
X72873809Y-103356664D02*
X73493085Y-103356664D01*
X72951219Y-103694895D02*
X73415676Y-103694895D01*
X73183447Y-104507695D02*
X73183447Y-103694895D01*
X71790076Y-101967695D02*
X71790076Y-101154895D01*
X72099714Y-101154895D01*
X72177123Y-101193600D01*
X72215828Y-101232304D01*
X72254533Y-101309714D01*
X72254533Y-101425828D01*
X72215828Y-101503238D01*
X72177123Y-101541942D01*
X72099714Y-101580647D01*
X71790076Y-101580647D01*
X72951219Y-101154895D02*
X72796400Y-101154895D01*
X72718990Y-101193600D01*
X72680285Y-101232304D01*
X72602876Y-101348419D01*
X72564171Y-101503238D01*
X72564171Y-101812876D01*
X72602876Y-101890285D01*
X72641580Y-101928990D01*
X72718990Y-101967695D01*
X72873809Y-101967695D01*
X72951219Y-101928990D01*
X72989923Y-101890285D01*
X73028628Y-101812876D01*
X73028628Y-101619352D01*
X72989923Y-101541942D01*
X72951219Y-101503238D01*
X72873809Y-101464533D01*
X72718990Y-101464533D01*
X72641580Y-101503238D01*
X72602876Y-101541942D01*
X72564171Y-101619352D01*
X71790076Y-99427695D02*
X71790076Y-98614895D01*
X72099714Y-98614895D01*
X72177123Y-98653600D01*
X72215828Y-98692304D01*
X72254533Y-98769714D01*
X72254533Y-98885828D01*
X72215828Y-98963238D01*
X72177123Y-99001942D01*
X72099714Y-99040647D01*
X71790076Y-99040647D01*
X72525466Y-98614895D02*
X73067333Y-98614895D01*
X72718990Y-99427695D01*
X71790076Y-96887695D02*
X71790076Y-96074895D01*
X72099714Y-96074895D01*
X72177123Y-96113600D01*
X72215828Y-96152304D01*
X72254533Y-96229714D01*
X72254533Y-96345828D01*
X72215828Y-96423238D01*
X72177123Y-96461942D01*
X72099714Y-96500647D01*
X71790076Y-96500647D01*
X72718990Y-96423238D02*
X72641580Y-96384533D01*
X72602876Y-96345828D01*
X72564171Y-96268419D01*
X72564171Y-96229714D01*
X72602876Y-96152304D01*
X72641580Y-96113600D01*
X72718990Y-96074895D01*
X72873809Y-96074895D01*
X72951219Y-96113600D01*
X72989923Y-96152304D01*
X73028628Y-96229714D01*
X73028628Y-96268419D01*
X72989923Y-96345828D01*
X72951219Y-96384533D01*
X72873809Y-96423238D01*
X72718990Y-96423238D01*
X72641580Y-96461942D01*
X72602876Y-96500647D01*
X72564171Y-96578057D01*
X72564171Y-96732876D01*
X72602876Y-96810285D01*
X72641580Y-96848990D01*
X72718990Y-96887695D01*
X72873809Y-96887695D01*
X72951219Y-96848990D01*
X72989923Y-96810285D01*
X73028628Y-96732876D01*
X73028628Y-96578057D01*
X72989923Y-96500647D01*
X72951219Y-96461942D01*
X72873809Y-96423238D01*
X71790076Y-94347695D02*
X71790076Y-93534895D01*
X72099714Y-93534895D01*
X72177123Y-93573600D01*
X72215828Y-93612304D01*
X72254533Y-93689714D01*
X72254533Y-93805828D01*
X72215828Y-93883238D01*
X72177123Y-93921942D01*
X72099714Y-93960647D01*
X71790076Y-93960647D01*
X72641580Y-94347695D02*
X72796400Y-94347695D01*
X72873809Y-94308990D01*
X72912514Y-94270285D01*
X72989923Y-94154171D01*
X73028628Y-93999352D01*
X73028628Y-93689714D01*
X72989923Y-93612304D01*
X72951219Y-93573600D01*
X72873809Y-93534895D01*
X72718990Y-93534895D01*
X72641580Y-93573600D01*
X72602876Y-93612304D01*
X72564171Y-93689714D01*
X72564171Y-93883238D01*
X72602876Y-93960647D01*
X72641580Y-93999352D01*
X72718990Y-94038057D01*
X72873809Y-94038057D01*
X72951219Y-93999352D01*
X72989923Y-93960647D01*
X73028628Y-93883238D01*
X71403028Y-91807695D02*
X71403028Y-90994895D01*
X71712666Y-90994895D01*
X71790076Y-91033600D01*
X71828780Y-91072304D01*
X71867485Y-91149714D01*
X71867485Y-91265828D01*
X71828780Y-91343238D01*
X71790076Y-91381942D01*
X71712666Y-91420647D01*
X71403028Y-91420647D01*
X72641580Y-91807695D02*
X72177123Y-91807695D01*
X72409352Y-91807695D02*
X72409352Y-90994895D01*
X72331942Y-91111009D01*
X72254533Y-91188419D01*
X72177123Y-91227123D01*
X73144742Y-90994895D02*
X73222152Y-90994895D01*
X73299561Y-91033600D01*
X73338266Y-91072304D01*
X73376971Y-91149714D01*
X73415676Y-91304533D01*
X73415676Y-91498057D01*
X73376971Y-91652876D01*
X73338266Y-91730285D01*
X73299561Y-91768990D01*
X73222152Y-91807695D01*
X73144742Y-91807695D01*
X73067333Y-91768990D01*
X73028628Y-91730285D01*
X72989923Y-91652876D01*
X72951219Y-91498057D01*
X72951219Y-91304533D01*
X72989923Y-91149714D01*
X73028628Y-91072304D01*
X73067333Y-91033600D01*
X73144742Y-90994895D01*
X71403028Y-89267695D02*
X71403028Y-88454895D01*
X71712666Y-88454895D01*
X71790076Y-88493600D01*
X71828780Y-88532304D01*
X71867485Y-88609714D01*
X71867485Y-88725828D01*
X71828780Y-88803238D01*
X71790076Y-88841942D01*
X71712666Y-88880647D01*
X71403028Y-88880647D01*
X72641580Y-89267695D02*
X72177123Y-89267695D01*
X72409352Y-89267695D02*
X72409352Y-88454895D01*
X72331942Y-88571009D01*
X72254533Y-88648419D01*
X72177123Y-88687123D01*
X73415676Y-89267695D02*
X72951219Y-89267695D01*
X73183447Y-89267695D02*
X73183447Y-88454895D01*
X73106038Y-88571009D01*
X73028628Y-88648419D01*
X72951219Y-88687123D01*
X71403028Y-86727695D02*
X71403028Y-85914895D01*
X71712666Y-85914895D01*
X71790076Y-85953600D01*
X71828780Y-85992304D01*
X71867485Y-86069714D01*
X71867485Y-86185828D01*
X71828780Y-86263238D01*
X71790076Y-86301942D01*
X71712666Y-86340647D01*
X71403028Y-86340647D01*
X72641580Y-86727695D02*
X72177123Y-86727695D01*
X72409352Y-86727695D02*
X72409352Y-85914895D01*
X72331942Y-86031009D01*
X72254533Y-86108419D01*
X72177123Y-86147123D01*
X72951219Y-85992304D02*
X72989923Y-85953600D01*
X73067333Y-85914895D01*
X73260857Y-85914895D01*
X73338266Y-85953600D01*
X73376971Y-85992304D01*
X73415676Y-86069714D01*
X73415676Y-86147123D01*
X73376971Y-86263238D01*
X72912514Y-86727695D01*
X73415676Y-86727695D01*
X71403028Y-84187695D02*
X71403028Y-83374895D01*
X71712666Y-83374895D01*
X71790076Y-83413600D01*
X71828780Y-83452304D01*
X71867485Y-83529714D01*
X71867485Y-83645828D01*
X71828780Y-83723238D01*
X71790076Y-83761942D01*
X71712666Y-83800647D01*
X71403028Y-83800647D01*
X72641580Y-84187695D02*
X72177123Y-84187695D01*
X72409352Y-84187695D02*
X72409352Y-83374895D01*
X72331942Y-83491009D01*
X72254533Y-83568419D01*
X72177123Y-83607123D01*
X72912514Y-83374895D02*
X73415676Y-83374895D01*
X73144742Y-83684533D01*
X73260857Y-83684533D01*
X73338266Y-83723238D01*
X73376971Y-83761942D01*
X73415676Y-83839352D01*
X73415676Y-84032876D01*
X73376971Y-84110285D01*
X73338266Y-84148990D01*
X73260857Y-84187695D01*
X73028628Y-84187695D01*
X72951219Y-84148990D01*
X72912514Y-84110285D01*
X71403028Y-81647695D02*
X71403028Y-80834895D01*
X71712666Y-80834895D01*
X71790076Y-80873600D01*
X71828780Y-80912304D01*
X71867485Y-80989714D01*
X71867485Y-81105828D01*
X71828780Y-81183238D01*
X71790076Y-81221942D01*
X71712666Y-81260647D01*
X71403028Y-81260647D01*
X72641580Y-81647695D02*
X72177123Y-81647695D01*
X72409352Y-81647695D02*
X72409352Y-80834895D01*
X72331942Y-80951009D01*
X72254533Y-81028419D01*
X72177123Y-81067123D01*
X73338266Y-81105828D02*
X73338266Y-81647695D01*
X73144742Y-80796190D02*
X72951219Y-81376761D01*
X73454380Y-81376761D01*
X71403028Y-79107695D02*
X71403028Y-78294895D01*
X71712666Y-78294895D01*
X71790076Y-78333600D01*
X71828780Y-78372304D01*
X71867485Y-78449714D01*
X71867485Y-78565828D01*
X71828780Y-78643238D01*
X71790076Y-78681942D01*
X71712666Y-78720647D01*
X71403028Y-78720647D01*
X72641580Y-79107695D02*
X72177123Y-79107695D01*
X72409352Y-79107695D02*
X72409352Y-78294895D01*
X72331942Y-78411009D01*
X72254533Y-78488419D01*
X72177123Y-78527123D01*
X73376971Y-78294895D02*
X72989923Y-78294895D01*
X72951219Y-78681942D01*
X72989923Y-78643238D01*
X73067333Y-78604533D01*
X73260857Y-78604533D01*
X73338266Y-78643238D01*
X73376971Y-78681942D01*
X73415676Y-78759352D01*
X73415676Y-78952876D01*
X73376971Y-79030285D01*
X73338266Y-79068990D01*
X73260857Y-79107695D01*
X73067333Y-79107695D01*
X72989923Y-79068990D01*
X72951219Y-79030285D01*
X71403028Y-76567695D02*
X71403028Y-75754895D01*
X71712666Y-75754895D01*
X71790076Y-75793600D01*
X71828780Y-75832304D01*
X71867485Y-75909714D01*
X71867485Y-76025828D01*
X71828780Y-76103238D01*
X71790076Y-76141942D01*
X71712666Y-76180647D01*
X71403028Y-76180647D01*
X72641580Y-76567695D02*
X72177123Y-76567695D01*
X72409352Y-76567695D02*
X72409352Y-75754895D01*
X72331942Y-75871009D01*
X72254533Y-75948419D01*
X72177123Y-75987123D01*
X73338266Y-75754895D02*
X73183447Y-75754895D01*
X73106038Y-75793600D01*
X73067333Y-75832304D01*
X72989923Y-75948419D01*
X72951219Y-76103238D01*
X72951219Y-76412876D01*
X72989923Y-76490285D01*
X73028628Y-76528990D01*
X73106038Y-76567695D01*
X73260857Y-76567695D01*
X73338266Y-76528990D01*
X73376971Y-76490285D01*
X73415676Y-76412876D01*
X73415676Y-76219352D01*
X73376971Y-76141942D01*
X73338266Y-76103238D01*
X73260857Y-76064533D01*
X73106038Y-76064533D01*
X73028628Y-76103238D01*
X72989923Y-76141942D01*
X72951219Y-76219352D01*
X71403028Y-74027695D02*
X71403028Y-73214895D01*
X71712666Y-73214895D01*
X71790076Y-73253600D01*
X71828780Y-73292304D01*
X71867485Y-73369714D01*
X71867485Y-73485828D01*
X71828780Y-73563238D01*
X71790076Y-73601942D01*
X71712666Y-73640647D01*
X71403028Y-73640647D01*
X72641580Y-74027695D02*
X72177123Y-74027695D01*
X72409352Y-74027695D02*
X72409352Y-73214895D01*
X72331942Y-73331009D01*
X72254533Y-73408419D01*
X72177123Y-73447123D01*
X72912514Y-73214895D02*
X73454380Y-73214895D01*
X73106038Y-74027695D01*
X75580723Y-67793600D02*
X75503314Y-67754895D01*
X75387200Y-67754895D01*
X75271085Y-67793600D01*
X75193676Y-67871009D01*
X75154971Y-67948419D01*
X75116266Y-68103238D01*
X75116266Y-68219352D01*
X75154971Y-68374171D01*
X75193676Y-68451580D01*
X75271085Y-68528990D01*
X75387200Y-68567695D01*
X75464609Y-68567695D01*
X75580723Y-68528990D01*
X75619428Y-68490285D01*
X75619428Y-68219352D01*
X75464609Y-68219352D01*
X75967771Y-68567695D02*
X75967771Y-67754895D01*
X76432228Y-68567695D01*
X76432228Y-67754895D01*
X76819276Y-68567695D02*
X76819276Y-67754895D01*
X77012800Y-67754895D01*
X77128914Y-67793600D01*
X77206323Y-67871009D01*
X77245028Y-67948419D01*
X77283733Y-68103238D01*
X77283733Y-68219352D01*
X77245028Y-68374171D01*
X77206323Y-68451580D01*
X77128914Y-68528990D01*
X77012800Y-68567695D01*
X76819276Y-68567695D01*
X67754895Y-89625676D02*
X68412876Y-89625676D01*
X68490285Y-89586971D01*
X68528990Y-89548266D01*
X68567695Y-89470857D01*
X68567695Y-89316038D01*
X68528990Y-89238628D01*
X68490285Y-89199923D01*
X68412876Y-89161219D01*
X67754895Y-89161219D01*
X68528990Y-88812876D02*
X68567695Y-88696761D01*
X68567695Y-88503238D01*
X68528990Y-88425828D01*
X68490285Y-88387123D01*
X68412876Y-88348419D01*
X68335466Y-88348419D01*
X68258057Y-88387123D01*
X68219352Y-88425828D01*
X68180647Y-88503238D01*
X68141942Y-88658057D01*
X68103238Y-88735466D01*
X68064533Y-88774171D01*
X67987123Y-88812876D01*
X67909714Y-88812876D01*
X67832304Y-88774171D01*
X67793600Y-88735466D01*
X67754895Y-88658057D01*
X67754895Y-88464533D01*
X67793600Y-88348419D01*
X68141942Y-87729142D02*
X68180647Y-87613028D01*
X68219352Y-87574323D01*
X68296761Y-87535619D01*
X68412876Y-87535619D01*
X68490285Y-87574323D01*
X68528990Y-87613028D01*
X68567695Y-87690438D01*
X68567695Y-88000076D01*
X67754895Y-88000076D01*
X67754895Y-87729142D01*
X67793600Y-87651733D01*
X67832304Y-87613028D01*
X67909714Y-87574323D01*
X67987123Y-87574323D01*
X68064533Y-87613028D01*
X68103238Y-87651733D01*
X68141942Y-87729142D01*
X68141942Y-88000076D01*
X67554895Y-94432152D02*
X68367695Y-94161219D01*
X67554895Y-93890285D01*
X68367695Y-93619352D02*
X67825828Y-93619352D01*
X67554895Y-93619352D02*
X67593600Y-93658057D01*
X67632304Y-93619352D01*
X67593600Y-93580647D01*
X67554895Y-93619352D01*
X67632304Y-93619352D01*
X67825828Y-93232304D02*
X68367695Y-93232304D01*
X67903238Y-93232304D02*
X67864533Y-93193600D01*
X67825828Y-93116190D01*
X67825828Y-93000076D01*
X67864533Y-92922666D01*
X67941942Y-92883961D01*
X68367695Y-92883961D01*
X48454895Y-98367695D02*
X48183961Y-97980647D01*
X47990438Y-98367695D02*
X47990438Y-97554895D01*
X48300076Y-97554895D01*
X48377485Y-97593600D01*
X48416190Y-97632304D01*
X48454895Y-97709714D01*
X48454895Y-97825828D01*
X48416190Y-97903238D01*
X48377485Y-97941942D01*
X48300076Y-97980647D01*
X47990438Y-97980647D01*
X48764533Y-98328990D02*
X48880647Y-98367695D01*
X49074171Y-98367695D01*
X49151580Y-98328990D01*
X49190285Y-98290285D01*
X49228990Y-98212876D01*
X49228990Y-98135466D01*
X49190285Y-98058057D01*
X49151580Y-98019352D01*
X49074171Y-97980647D01*
X48919352Y-97941942D01*
X48841942Y-97903238D01*
X48803238Y-97864533D01*
X48764533Y-97787123D01*
X48764533Y-97709714D01*
X48803238Y-97632304D01*
X48841942Y-97593600D01*
X48919352Y-97554895D01*
X49112876Y-97554895D01*
X49228990Y-97593600D01*
X49461219Y-97554895D02*
X49925676Y-97554895D01*
X49693447Y-98367695D02*
X49693447Y-97554895D01*
X42068000Y-97725828D02*
X42068000Y-98267695D01*
X41719657Y-97725828D02*
X41719657Y-98151580D01*
X41758361Y-98228990D01*
X41835771Y-98267695D01*
X41951885Y-98267695D01*
X42029295Y-98228990D01*
X42068000Y-98190285D01*
X42416342Y-98228990D02*
X42493752Y-98267695D01*
X42648571Y-98267695D01*
X42725980Y-98228990D01*
X42764685Y-98151580D01*
X42764685Y-98112876D01*
X42725980Y-98035466D01*
X42648571Y-97996761D01*
X42532457Y-97996761D01*
X42455047Y-97958057D01*
X42416342Y-97880647D01*
X42416342Y-97841942D01*
X42455047Y-97764533D01*
X42532457Y-97725828D01*
X42648571Y-97725828D01*
X42725980Y-97764533D01*
X43422666Y-98228990D02*
X43345257Y-98267695D01*
X43190438Y-98267695D01*
X43113028Y-98228990D01*
X43074323Y-98151580D01*
X43074323Y-97841942D01*
X43113028Y-97764533D01*
X43190438Y-97725828D01*
X43345257Y-97725828D01*
X43422666Y-97764533D01*
X43461371Y-97841942D01*
X43461371Y-97919352D01*
X43074323Y-97996761D01*
X43809714Y-98267695D02*
X43809714Y-97725828D01*
X43809714Y-97880647D02*
X43848419Y-97803238D01*
X43887123Y-97764533D01*
X43964533Y-97725828D01*
X44041942Y-97725828D01*
X44119352Y-98345104D02*
X44738628Y-98345104D01*
X44932152Y-98267695D02*
X44932152Y-97454895D01*
X44932152Y-97764533D02*
X45009561Y-97725828D01*
X45164380Y-97725828D01*
X45241790Y-97764533D01*
X45280495Y-97803238D01*
X45319200Y-97880647D01*
X45319200Y-98112876D01*
X45280495Y-98190285D01*
X45241790Y-98228990D01*
X45164380Y-98267695D01*
X45009561Y-98267695D01*
X44932152Y-98228990D01*
X45551428Y-97725828D02*
X45861066Y-97725828D01*
X45667542Y-97454895D02*
X45667542Y-98151580D01*
X45706247Y-98228990D01*
X45783657Y-98267695D01*
X45861066Y-98267695D01*
X46132000Y-97725828D02*
X46132000Y-98267695D01*
X46132000Y-97803238D02*
X46170704Y-97764533D01*
X46248114Y-97725828D01*
X46364228Y-97725828D01*
X46441638Y-97764533D01*
X46480342Y-97841942D01*
X46480342Y-98267695D01*
X38825828Y-100051504D02*
X39638628Y-100051504D01*
X38864533Y-100051504D02*
X38825828Y-99974095D01*
X38825828Y-99819276D01*
X38864533Y-99741866D01*
X38903238Y-99703161D01*
X38980647Y-99664457D01*
X39212876Y-99664457D01*
X39290285Y-99703161D01*
X39328990Y-99741866D01*
X39367695Y-99819276D01*
X39367695Y-99974095D01*
X39328990Y-100051504D01*
X38825828Y-99393523D02*
X39367695Y-99238704D01*
X38980647Y-99083885D01*
X39367695Y-98929066D01*
X38825828Y-98774247D01*
X39367695Y-98464609D02*
X38825828Y-98464609D01*
X38980647Y-98464609D02*
X38903238Y-98425904D01*
X38864533Y-98387200D01*
X38825828Y-98309790D01*
X38825828Y-98232380D01*
X35425828Y-99593295D02*
X35967695Y-99593295D01*
X35425828Y-99941638D02*
X35851580Y-99941638D01*
X35928990Y-99902933D01*
X35967695Y-99825523D01*
X35967695Y-99709409D01*
X35928990Y-99632000D01*
X35890285Y-99593295D01*
X35928990Y-99244952D02*
X35967695Y-99167542D01*
X35967695Y-99012723D01*
X35928990Y-98935314D01*
X35851580Y-98896609D01*
X35812876Y-98896609D01*
X35735466Y-98935314D01*
X35696761Y-99012723D01*
X35696761Y-99128838D01*
X35658057Y-99206247D01*
X35580647Y-99244952D01*
X35541942Y-99244952D01*
X35464533Y-99206247D01*
X35425828Y-99128838D01*
X35425828Y-99012723D01*
X35464533Y-98935314D01*
X35928990Y-98238628D02*
X35967695Y-98316038D01*
X35967695Y-98470857D01*
X35928990Y-98548266D01*
X35851580Y-98586971D01*
X35541942Y-98586971D01*
X35464533Y-98548266D01*
X35425828Y-98470857D01*
X35425828Y-98316038D01*
X35464533Y-98238628D01*
X35541942Y-98199923D01*
X35619352Y-98199923D01*
X35696761Y-98586971D01*
X35967695Y-97851580D02*
X35425828Y-97851580D01*
X35580647Y-97851580D02*
X35503238Y-97812876D01*
X35464533Y-97774171D01*
X35425828Y-97696761D01*
X35425828Y-97619352D01*
X36045104Y-97541942D02*
X36045104Y-96922666D01*
X35967695Y-96613028D02*
X35928990Y-96690438D01*
X35851580Y-96729142D01*
X35154895Y-96729142D01*
X35928990Y-95993752D02*
X35967695Y-96071161D01*
X35967695Y-96225980D01*
X35928990Y-96303390D01*
X35851580Y-96342095D01*
X35541942Y-96342095D01*
X35464533Y-96303390D01*
X35425828Y-96225980D01*
X35425828Y-96071161D01*
X35464533Y-95993752D01*
X35541942Y-95955047D01*
X35619352Y-95955047D01*
X35696761Y-96342095D01*
X35967695Y-95258361D02*
X35154895Y-95258361D01*
X35928990Y-95258361D02*
X35967695Y-95335771D01*
X35967695Y-95490590D01*
X35928990Y-95568000D01*
X35890285Y-95606704D01*
X35812876Y-95645409D01*
X35580647Y-95645409D01*
X35503238Y-95606704D01*
X35464533Y-95568000D01*
X35425828Y-95490590D01*
X35425828Y-95335771D01*
X35464533Y-95258361D01*
D11*
X50600000Y-107000000D02*
X50600000Y-101000000D01*
X50600000Y-101000000D02*
X47100000Y-101000000D01*
X47100000Y-101000000D02*
X47100000Y-107000000D01*
X47100000Y-107000000D02*
X50600000Y-107000000D01*
X49600000Y-106000000D02*
X49600000Y-102000000D01*
X49600000Y-102000000D02*
X48100000Y-102000000D01*
X48100000Y-102000000D02*
X48100000Y-106000000D01*
X48100000Y-106000000D02*
X49600000Y-106000000D01*
X45800000Y-107000000D02*
X45800000Y-101000000D01*
X45800000Y-101000000D02*
X42300000Y-101000000D01*
X42300000Y-101000000D02*
X42300000Y-107000000D01*
X42300000Y-107000000D02*
X45800000Y-107000000D01*
X44800000Y-106000000D02*
X44800000Y-102000000D01*
X44800000Y-102000000D02*
X43300000Y-102000000D01*
X43300000Y-102000000D02*
X43300000Y-106000000D01*
X43300000Y-106000000D02*
X44800000Y-106000000D01*
X42340000Y-91088748D02*
X42340000Y-92511252D01*
X44160000Y-91088748D02*
X44160000Y-92511252D01*
X45690000Y-91088748D02*
X45690000Y-92511252D01*
X47510000Y-91088748D02*
X47510000Y-92511252D01*
X37200000Y-77000000D02*
X49200000Y-77000000D01*
X49200000Y-77000000D02*
X49200000Y-61100000D01*
X49200000Y-61100000D02*
X37200000Y-61100000D01*
X37200000Y-61100000D02*
X37200000Y-77000000D01*
X58540000Y-80220000D02*
X58770000Y-80220000D01*
X63260000Y-80220000D02*
X63030000Y-80220000D01*
X63260000Y-80220000D02*
X63260000Y-82940000D01*
X63260000Y-82940000D02*
X61950000Y-82940000D01*
X63030000Y-79080000D02*
X63030000Y-80220000D01*
X58540000Y-82940000D02*
X58540000Y-80220000D01*
X59850000Y-82940000D02*
X58540000Y-82940000D01*
X49960000Y-91040000D02*
X49960000Y-94490000D01*
X49960000Y-91040000D02*
X49960000Y-89090000D01*
X60080000Y-91040000D02*
X60080000Y-92990000D01*
X60080000Y-91040000D02*
X60080000Y-89090000D01*
X34690000Y-91122936D02*
X34690000Y-92577064D01*
X36510000Y-91122936D02*
X36510000Y-92577064D01*
X38290000Y-91122936D02*
X38290000Y-92577064D01*
X40110000Y-91122936D02*
X40110000Y-92577064D01*
X52280000Y-76900000D02*
X52280000Y-75500000D01*
X52980000Y-74800000D02*
X53580000Y-74800000D01*
X54280000Y-75500000D02*
X54280000Y-76900000D01*
X53580000Y-77600000D02*
X52980000Y-77600000D01*
X52980000Y-77600000D02*
G75*
G02*
X52280000Y-76900000I0J700000D01*
G01*
X54280000Y-76900000D02*
G75*
G02*
X53580000Y-77600000I-700000J0D01*
G01*
X53580000Y-74800000D02*
G75*
G02*
X54280000Y-75500000I0J-700000D01*
G01*
X52280000Y-75500000D02*
G75*
G02*
X52980000Y-74800000I700000J0D01*
G01*
X26610000Y-69790000D02*
X27940000Y-69790000D01*
X26610000Y-71120000D02*
X26610000Y-69790000D01*
X26610000Y-72390000D02*
X29270000Y-72390000D01*
X29270000Y-72390000D02*
X29270000Y-108010000D01*
X26610000Y-72390000D02*
X26610000Y-108010000D01*
X26610000Y-108010000D02*
X29270000Y-108010000D01*
X77530000Y-108010000D02*
X76200000Y-108010000D01*
X77530000Y-106680000D02*
X77530000Y-108010000D01*
X77530000Y-105410000D02*
X74870000Y-105410000D01*
X74870000Y-105410000D02*
X74870000Y-69790000D01*
X77530000Y-105410000D02*
X77530000Y-69790000D01*
X77530000Y-69790000D02*
X74870000Y-69790000D01*
X58480000Y-72080000D02*
X57980000Y-71080000D01*
X57480000Y-72080000D02*
X58480000Y-72080000D01*
X57980000Y-71080000D02*
X57480000Y-72080000D01*
X65110000Y-69380000D02*
X65110000Y-70690000D01*
X65110000Y-69380000D02*
X65110000Y-69380000D01*
X72050000Y-69380000D02*
X65110000Y-69380000D01*
X72050000Y-62880000D02*
X72050000Y-69380000D01*
X54070000Y-62880000D02*
X72050000Y-62880000D01*
X54070000Y-69380000D02*
X54070000Y-62880000D01*
X61010000Y-69380000D02*
X54070000Y-69380000D01*
X61010000Y-70690000D02*
X61010000Y-69380000D01*
X73350000Y-70690000D02*
X52770000Y-70690000D01*
X73350000Y-61570000D02*
X73350000Y-70690000D01*
X52770000Y-61570000D02*
X73350000Y-61570000D01*
X52770000Y-70690000D02*
X52770000Y-61570000D01*
X63850000Y-87170000D02*
X65180000Y-87170000D01*
X63850000Y-88500000D02*
X63850000Y-87170000D01*
X63850000Y-89770000D02*
X66510000Y-89770000D01*
X66510000Y-89770000D02*
X66510000Y-94910000D01*
X63850000Y-89770000D02*
X63850000Y-94910000D01*
X63850000Y-94910000D02*
X66510000Y-94910000D01*
X57330000Y-108970000D02*
X57330000Y-109220000D01*
X65070000Y-108970000D02*
X65070000Y-109220000D01*
X64200000Y-104500000D02*
X65070000Y-104500000D01*
X57330000Y-104500000D02*
X57330000Y-106570000D01*
X65070000Y-104500000D02*
X65070000Y-106570000D01*
X57330000Y-104500000D02*
X58200000Y-104500000D01*
X62500000Y-104270000D02*
X62200000Y-103970000D01*
X62500000Y-104270000D02*
X62800000Y-103970000D01*
X62200000Y-103970000D02*
X62800000Y-103970000D01*
X36735000Y-105572500D02*
X36735000Y-101512500D01*
X34465000Y-105572500D02*
X36735000Y-105572500D01*
X34465000Y-101512500D02*
X34465000Y-105572500D01*
X40335000Y-105572500D02*
X40335000Y-101512500D01*
X38065000Y-105572500D02*
X40335000Y-105572500D01*
X38065000Y-101512500D02*
X38065000Y-105572500D01*
X37190000Y-80968748D02*
X37190000Y-82391252D01*
X39010000Y-80968748D02*
X39010000Y-82391252D01*
X60188748Y-77110000D02*
X61611252Y-77110000D01*
X60188748Y-75290000D02*
X61611252Y-75290000D01*
X52840000Y-97788748D02*
X52840000Y-99211252D01*
X54660000Y-97788748D02*
X54660000Y-99211252D01*
X66890000Y-81991252D02*
X66890000Y-80568748D01*
X65070000Y-81991252D02*
X65070000Y-80568748D01*
D12*
X45457142Y-91966666D02*
X45504761Y-92014285D01*
X45552380Y-92157142D01*
X45552380Y-92252380D01*
X45504761Y-92395238D01*
X45409523Y-92490476D01*
X45314285Y-92538095D01*
X45123809Y-92585714D01*
X44980952Y-92585714D01*
X44790476Y-92538095D01*
X44695238Y-92490476D01*
X44600000Y-92395238D01*
X44552380Y-92252380D01*
X44552380Y-92157142D01*
X44600000Y-92014285D01*
X44647619Y-91966666D01*
X44552380Y-91109523D02*
X44552380Y-91300000D01*
X44600000Y-91395238D01*
X44647619Y-91442857D01*
X44790476Y-91538095D01*
X44980952Y-91585714D01*
X45361904Y-91585714D01*
X45457142Y-91538095D01*
X45504761Y-91490476D01*
X45552380Y-91395238D01*
X45552380Y-91204761D01*
X45504761Y-91109523D01*
X45457142Y-91061904D01*
X45361904Y-91014285D01*
X45123809Y-91014285D01*
X45028571Y-91061904D01*
X44980952Y-91109523D01*
X44933333Y-91204761D01*
X44933333Y-91395238D01*
X44980952Y-91490476D01*
X45028571Y-91538095D01*
X45123809Y-91585714D01*
X48807142Y-91966666D02*
X48854761Y-92014285D01*
X48902380Y-92157142D01*
X48902380Y-92252380D01*
X48854761Y-92395238D01*
X48759523Y-92490476D01*
X48664285Y-92538095D01*
X48473809Y-92585714D01*
X48330952Y-92585714D01*
X48140476Y-92538095D01*
X48045238Y-92490476D01*
X47950000Y-92395238D01*
X47902380Y-92252380D01*
X47902380Y-92157142D01*
X47950000Y-92014285D01*
X47997619Y-91966666D01*
X47902380Y-91061904D02*
X47902380Y-91538095D01*
X48378571Y-91585714D01*
X48330952Y-91538095D01*
X48283333Y-91442857D01*
X48283333Y-91204761D01*
X48330952Y-91109523D01*
X48378571Y-91061904D01*
X48473809Y-91014285D01*
X48711904Y-91014285D01*
X48807142Y-91061904D01*
X48854761Y-91109523D01*
X48902380Y-91204761D01*
X48902380Y-91442857D01*
X48854761Y-91538095D01*
X48807142Y-91585714D01*
X42692380Y-69421904D02*
X43501904Y-69421904D01*
X43597142Y-69374285D01*
X43644761Y-69326666D01*
X43692380Y-69231428D01*
X43692380Y-69040952D01*
X43644761Y-68945714D01*
X43597142Y-68898095D01*
X43501904Y-68850476D01*
X42692380Y-68850476D01*
X42692380Y-68469523D02*
X42692380Y-67850476D01*
X43073333Y-68183809D01*
X43073333Y-68040952D01*
X43120952Y-67945714D01*
X43168571Y-67898095D01*
X43263809Y-67850476D01*
X43501904Y-67850476D01*
X43597142Y-67898095D01*
X43644761Y-67945714D01*
X43692380Y-68040952D01*
X43692380Y-68326666D01*
X43644761Y-68421904D01*
X43597142Y-68469523D01*
X57052380Y-82161904D02*
X57861904Y-82161904D01*
X57957142Y-82114285D01*
X58004761Y-82066666D01*
X58052380Y-81971428D01*
X58052380Y-81780952D01*
X58004761Y-81685714D01*
X57957142Y-81638095D01*
X57861904Y-81590476D01*
X57052380Y-81590476D01*
X57147619Y-81161904D02*
X57100000Y-81114285D01*
X57052380Y-81019047D01*
X57052380Y-80780952D01*
X57100000Y-80685714D01*
X57147619Y-80638095D01*
X57242857Y-80590476D01*
X57338095Y-80590476D01*
X57480952Y-80638095D01*
X58052380Y-81209523D01*
X58052380Y-80590476D01*
X54252380Y-86761904D02*
X55061904Y-86761904D01*
X55157142Y-86714285D01*
X55204761Y-86666666D01*
X55252380Y-86571428D01*
X55252380Y-86380952D01*
X55204761Y-86285714D01*
X55157142Y-86238095D01*
X55061904Y-86190476D01*
X54252380Y-86190476D01*
X55252380Y-85190476D02*
X55252380Y-85761904D01*
X55252380Y-85476190D02*
X54252380Y-85476190D01*
X54395238Y-85571428D01*
X54490476Y-85666666D01*
X54538095Y-85761904D01*
X37872380Y-92016666D02*
X37396190Y-92350000D01*
X37872380Y-92588095D02*
X36872380Y-92588095D01*
X36872380Y-92207142D01*
X36920000Y-92111904D01*
X36967619Y-92064285D01*
X37062857Y-92016666D01*
X37205714Y-92016666D01*
X37300952Y-92064285D01*
X37348571Y-92111904D01*
X37396190Y-92207142D01*
X37396190Y-92588095D01*
X36967619Y-91635714D02*
X36920000Y-91588095D01*
X36872380Y-91492857D01*
X36872380Y-91254761D01*
X36920000Y-91159523D01*
X36967619Y-91111904D01*
X37062857Y-91064285D01*
X37158095Y-91064285D01*
X37300952Y-91111904D01*
X37872380Y-91683333D01*
X37872380Y-91064285D01*
X41472380Y-92016666D02*
X40996190Y-92350000D01*
X41472380Y-92588095D02*
X40472380Y-92588095D01*
X40472380Y-92207142D01*
X40520000Y-92111904D01*
X40567619Y-92064285D01*
X40662857Y-92016666D01*
X40805714Y-92016666D01*
X40900952Y-92064285D01*
X40948571Y-92111904D01*
X40996190Y-92207142D01*
X40996190Y-92588095D01*
X41472380Y-91064285D02*
X41472380Y-91635714D01*
X41472380Y-91350000D02*
X40472380Y-91350000D01*
X40615238Y-91445238D01*
X40710476Y-91540476D01*
X40758095Y-91635714D01*
X50932380Y-77033333D02*
X51646666Y-77033333D01*
X51789523Y-77080952D01*
X51884761Y-77176190D01*
X51932380Y-77319047D01*
X51932380Y-77414285D01*
X51932380Y-76557142D02*
X50932380Y-76557142D01*
X50932380Y-76176190D01*
X50980000Y-76080952D01*
X51027619Y-76033333D01*
X51122857Y-75985714D01*
X51265714Y-75985714D01*
X51360952Y-76033333D01*
X51408571Y-76080952D01*
X51456190Y-76176190D01*
X51456190Y-76557142D01*
X51932380Y-75033333D02*
X51932380Y-75604761D01*
X51932380Y-75319047D02*
X50932380Y-75319047D01*
X51075238Y-75414285D01*
X51170476Y-75509523D01*
X51218095Y-75604761D01*
X51332380Y-66463333D02*
X52046666Y-66463333D01*
X52189523Y-66510952D01*
X52284761Y-66606190D01*
X52332380Y-66749047D01*
X52332380Y-66844285D01*
X51332380Y-66082380D02*
X51332380Y-65463333D01*
X51713333Y-65796666D01*
X51713333Y-65653809D01*
X51760952Y-65558571D01*
X51808571Y-65510952D01*
X51903809Y-65463333D01*
X52141904Y-65463333D01*
X52237142Y-65510952D01*
X52284761Y-65558571D01*
X52332380Y-65653809D01*
X52332380Y-65939523D01*
X52284761Y-66034761D01*
X52237142Y-66082380D01*
X64632380Y-86333333D02*
X65346666Y-86333333D01*
X65489523Y-86380952D01*
X65584761Y-86476190D01*
X65632380Y-86619047D01*
X65632380Y-86714285D01*
X64727619Y-85904761D02*
X64680000Y-85857142D01*
X64632380Y-85761904D01*
X64632380Y-85523809D01*
X64680000Y-85428571D01*
X64727619Y-85380952D01*
X64822857Y-85333333D01*
X64918095Y-85333333D01*
X65060952Y-85380952D01*
X65632380Y-85952380D01*
X65632380Y-85333333D01*
X60452380Y-102933333D02*
X61166666Y-102933333D01*
X61309523Y-102980952D01*
X61404761Y-103076190D01*
X61452380Y-103219047D01*
X61452380Y-103314285D01*
X61452380Y-101933333D02*
X61452380Y-102504761D01*
X61452380Y-102219047D02*
X60452380Y-102219047D01*
X60595238Y-102314285D01*
X60690476Y-102409523D01*
X60738095Y-102504761D01*
X36052380Y-107338095D02*
X35052380Y-107338095D01*
X35052380Y-107100000D01*
X35100000Y-106957142D01*
X35195238Y-106861904D01*
X35290476Y-106814285D01*
X35480952Y-106766666D01*
X35623809Y-106766666D01*
X35814285Y-106814285D01*
X35909523Y-106861904D01*
X36004761Y-106957142D01*
X36052380Y-107100000D01*
X36052380Y-107338095D01*
X35147619Y-106385714D02*
X35100000Y-106338095D01*
X35052380Y-106242857D01*
X35052380Y-106004761D01*
X35100000Y-105909523D01*
X35147619Y-105861904D01*
X35242857Y-105814285D01*
X35338095Y-105814285D01*
X35480952Y-105861904D01*
X36052380Y-106433333D01*
X36052380Y-105814285D01*
X39652380Y-107250595D02*
X38652380Y-107250595D01*
X38652380Y-107012500D01*
X38700000Y-106869642D01*
X38795238Y-106774404D01*
X38890476Y-106726785D01*
X39080952Y-106679166D01*
X39223809Y-106679166D01*
X39414285Y-106726785D01*
X39509523Y-106774404D01*
X39604761Y-106869642D01*
X39652380Y-107012500D01*
X39652380Y-107250595D01*
X39652380Y-105726785D02*
X39652380Y-106298214D01*
X39652380Y-106012500D02*
X38652380Y-106012500D01*
X38795238Y-106107738D01*
X38890476Y-106202976D01*
X38938095Y-106298214D01*
X40307142Y-81846666D02*
X40354761Y-81894285D01*
X40402380Y-82037142D01*
X40402380Y-82132380D01*
X40354761Y-82275238D01*
X40259523Y-82370476D01*
X40164285Y-82418095D01*
X39973809Y-82465714D01*
X39830952Y-82465714D01*
X39640476Y-82418095D01*
X39545238Y-82370476D01*
X39450000Y-82275238D01*
X39402380Y-82132380D01*
X39402380Y-82037142D01*
X39450000Y-81894285D01*
X39497619Y-81846666D01*
X39735714Y-80989523D02*
X40402380Y-80989523D01*
X39354761Y-81227619D02*
X40069047Y-81465714D01*
X40069047Y-80846666D01*
X57957142Y-76366666D02*
X58004761Y-76414285D01*
X58052380Y-76557142D01*
X58052380Y-76652380D01*
X58004761Y-76795238D01*
X57909523Y-76890476D01*
X57814285Y-76938095D01*
X57623809Y-76985714D01*
X57480952Y-76985714D01*
X57290476Y-76938095D01*
X57195238Y-76890476D01*
X57100000Y-76795238D01*
X57052380Y-76652380D01*
X57052380Y-76557142D01*
X57100000Y-76414285D01*
X57147619Y-76366666D01*
X57052380Y-76033333D02*
X57052380Y-75414285D01*
X57433333Y-75747619D01*
X57433333Y-75604761D01*
X57480952Y-75509523D01*
X57528571Y-75461904D01*
X57623809Y-75414285D01*
X57861904Y-75414285D01*
X57957142Y-75461904D01*
X58004761Y-75509523D01*
X58052380Y-75604761D01*
X58052380Y-75890476D01*
X58004761Y-75985714D01*
X57957142Y-76033333D01*
X54107142Y-102266666D02*
X54154761Y-102314285D01*
X54202380Y-102457142D01*
X54202380Y-102552380D01*
X54154761Y-102695238D01*
X54059523Y-102790476D01*
X53964285Y-102838095D01*
X53773809Y-102885714D01*
X53630952Y-102885714D01*
X53440476Y-102838095D01*
X53345238Y-102790476D01*
X53250000Y-102695238D01*
X53202380Y-102552380D01*
X53202380Y-102457142D01*
X53250000Y-102314285D01*
X53297619Y-102266666D01*
X53297619Y-101885714D02*
X53250000Y-101838095D01*
X53202380Y-101742857D01*
X53202380Y-101504761D01*
X53250000Y-101409523D01*
X53297619Y-101361904D01*
X53392857Y-101314285D01*
X53488095Y-101314285D01*
X53630952Y-101361904D01*
X54202380Y-101933333D01*
X54202380Y-101314285D01*
X64487142Y-81446666D02*
X64534761Y-81494285D01*
X64582380Y-81637142D01*
X64582380Y-81732380D01*
X64534761Y-81875238D01*
X64439523Y-81970476D01*
X64344285Y-82018095D01*
X64153809Y-82065714D01*
X64010952Y-82065714D01*
X63820476Y-82018095D01*
X63725238Y-81970476D01*
X63630000Y-81875238D01*
X63582380Y-81732380D01*
X63582380Y-81637142D01*
X63630000Y-81494285D01*
X63677619Y-81446666D01*
X64582380Y-80494285D02*
X64582380Y-81065714D01*
X64582380Y-80780000D02*
X63582380Y-80780000D01*
X63725238Y-80875238D01*
X63820476Y-80970476D01*
X63868095Y-81065714D01*
%LPC*%
D13*
X48850000Y-100175000D03*
X48850000Y-107825000D03*
X44050000Y-100175000D03*
X44050000Y-107825000D03*
G36*
G01*
X42599999Y-92700000D02*
X43900001Y-92700000D01*
G75*
G02*
X44150000Y-92949999I0J-249999D01*
G01*
X44150000Y-93775001D01*
G75*
G02*
X43900001Y-94025000I-249999J0D01*
G01*
X42599999Y-94025000D01*
G75*
G02*
X42350000Y-93775001I0J249999D01*
G01*
X42350000Y-92949999D01*
G75*
G02*
X42599999Y-92700000I249999J0D01*
G01*
G37*
G36*
G01*
X42599999Y-89575000D02*
X43900001Y-89575000D01*
G75*
G02*
X44150000Y-89824999I0J-249999D01*
G01*
X44150000Y-90650001D01*
G75*
G02*
X43900001Y-90900000I-249999J0D01*
G01*
X42599999Y-90900000D01*
G75*
G02*
X42350000Y-90650001I0J249999D01*
G01*
X42350000Y-89824999D01*
G75*
G02*
X42599999Y-89575000I249999J0D01*
G01*
G37*
G36*
G01*
X45949999Y-92700000D02*
X47250001Y-92700000D01*
G75*
G02*
X47500000Y-92949999I0J-249999D01*
G01*
X47500000Y-93775001D01*
G75*
G02*
X47250001Y-94025000I-249999J0D01*
G01*
X45949999Y-94025000D01*
G75*
G02*
X45700000Y-93775001I0J249999D01*
G01*
X45700000Y-92949999D01*
G75*
G02*
X45949999Y-92700000I249999J0D01*
G01*
G37*
G36*
G01*
X45949999Y-89575000D02*
X47250001Y-89575000D01*
G75*
G02*
X47500000Y-89824999I0J-249999D01*
G01*
X47500000Y-90650001D01*
G75*
G02*
X47250001Y-90900000I-249999J0D01*
G01*
X45949999Y-90900000D01*
G75*
G02*
X45700000Y-90650001I0J249999D01*
G01*
X45700000Y-89824999D01*
G75*
G02*
X45949999Y-89575000I249999J0D01*
G01*
G37*
G36*
G01*
X48200000Y-62000000D02*
X48200000Y-61700000D01*
G75*
G02*
X48350000Y-61550000I150000J0D01*
G01*
X49650000Y-61550000D01*
G75*
G02*
X49800000Y-61700000I0J-150000D01*
G01*
X49800000Y-62000000D01*
G75*
G02*
X49650000Y-62150000I-150000J0D01*
G01*
X48350000Y-62150000D01*
G75*
G02*
X48200000Y-62000000I0J150000D01*
G01*
G37*
G36*
G01*
X48200000Y-62850000D02*
X48200000Y-62550000D01*
G75*
G02*
X48350000Y-62400000I150000J0D01*
G01*
X49650000Y-62400000D01*
G75*
G02*
X49800000Y-62550000I0J-150000D01*
G01*
X49800000Y-62850000D01*
G75*
G02*
X49650000Y-63000000I-150000J0D01*
G01*
X48350000Y-63000000D01*
G75*
G02*
X48200000Y-62850000I0J150000D01*
G01*
G37*
G36*
G01*
X48200000Y-63700000D02*
X48200000Y-63400000D01*
G75*
G02*
X48350000Y-63250000I150000J0D01*
G01*
X49650000Y-63250000D01*
G75*
G02*
X49800000Y-63400000I0J-150000D01*
G01*
X49800000Y-63700000D01*
G75*
G02*
X49650000Y-63850000I-150000J0D01*
G01*
X48350000Y-63850000D01*
G75*
G02*
X48200000Y-63700000I0J150000D01*
G01*
G37*
G36*
G01*
X48200000Y-64550000D02*
X48200000Y-64250000D01*
G75*
G02*
X48350000Y-64100000I150000J0D01*
G01*
X49650000Y-64100000D01*
G75*
G02*
X49800000Y-64250000I0J-150000D01*
G01*
X49800000Y-64550000D01*
G75*
G02*
X49650000Y-64700000I-150000J0D01*
G01*
X48350000Y-64700000D01*
G75*
G02*
X48200000Y-64550000I0J150000D01*
G01*
G37*
G36*
G01*
X48200000Y-65400000D02*
X48200000Y-65100000D01*
G75*
G02*
X48350000Y-64950000I150000J0D01*
G01*
X49650000Y-64950000D01*
G75*
G02*
X49800000Y-65100000I0J-150000D01*
G01*
X49800000Y-65400000D01*
G75*
G02*
X49650000Y-65550000I-150000J0D01*
G01*
X48350000Y-65550000D01*
G75*
G02*
X48200000Y-65400000I0J150000D01*
G01*
G37*
G36*
G01*
X48200000Y-66250000D02*
X48200000Y-65950000D01*
G75*
G02*
X48350000Y-65800000I150000J0D01*
G01*
X49650000Y-65800000D01*
G75*
G02*
X49800000Y-65950000I0J-150000D01*
G01*
X49800000Y-66250000D01*
G75*
G02*
X49650000Y-66400000I-150000J0D01*
G01*
X48350000Y-66400000D01*
G75*
G02*
X48200000Y-66250000I0J150000D01*
G01*
G37*
G36*
G01*
X48200000Y-67100000D02*
X48200000Y-66800000D01*
G75*
G02*
X48350000Y-66650000I150000J0D01*
G01*
X49650000Y-66650000D01*
G75*
G02*
X49800000Y-66800000I0J-150000D01*
G01*
X49800000Y-67100000D01*
G75*
G02*
X49650000Y-67250000I-150000J0D01*
G01*
X48350000Y-67250000D01*
G75*
G02*
X48200000Y-67100000I0J150000D01*
G01*
G37*
G36*
G01*
X48200000Y-67950000D02*
X48200000Y-67650000D01*
G75*
G02*
X48350000Y-67500000I150000J0D01*
G01*
X49650000Y-67500000D01*
G75*
G02*
X49800000Y-67650000I0J-150000D01*
G01*
X49800000Y-67950000D01*
G75*
G02*
X49650000Y-68100000I-150000J0D01*
G01*
X48350000Y-68100000D01*
G75*
G02*
X48200000Y-67950000I0J150000D01*
G01*
G37*
G36*
G01*
X48200000Y-68800000D02*
X48200000Y-68500000D01*
G75*
G02*
X48350000Y-68350000I150000J0D01*
G01*
X49650000Y-68350000D01*
G75*
G02*
X49800000Y-68500000I0J-150000D01*
G01*
X49800000Y-68800000D01*
G75*
G02*
X49650000Y-68950000I-150000J0D01*
G01*
X48350000Y-68950000D01*
G75*
G02*
X48200000Y-68800000I0J150000D01*
G01*
G37*
G36*
G01*
X48200000Y-69650000D02*
X48200000Y-69350000D01*
G75*
G02*
X48350000Y-69200000I150000J0D01*
G01*
X49650000Y-69200000D01*
G75*
G02*
X49800000Y-69350000I0J-150000D01*
G01*
X49800000Y-69650000D01*
G75*
G02*
X49650000Y-69800000I-150000J0D01*
G01*
X48350000Y-69800000D01*
G75*
G02*
X48200000Y-69650000I0J150000D01*
G01*
G37*
G36*
G01*
X48200000Y-70500000D02*
X48200000Y-70200000D01*
G75*
G02*
X48350000Y-70050000I150000J0D01*
G01*
X49650000Y-70050000D01*
G75*
G02*
X49800000Y-70200000I0J-150000D01*
G01*
X49800000Y-70500000D01*
G75*
G02*
X49650000Y-70650000I-150000J0D01*
G01*
X48350000Y-70650000D01*
G75*
G02*
X48200000Y-70500000I0J150000D01*
G01*
G37*
G36*
G01*
X48200000Y-71350000D02*
X48200000Y-71050000D01*
G75*
G02*
X48350000Y-70900000I150000J0D01*
G01*
X49650000Y-70900000D01*
G75*
G02*
X49800000Y-71050000I0J-150000D01*
G01*
X49800000Y-71350000D01*
G75*
G02*
X49650000Y-71500000I-150000J0D01*
G01*
X48350000Y-71500000D01*
G75*
G02*
X48200000Y-71350000I0J150000D01*
G01*
G37*
G36*
G01*
X48200000Y-72200000D02*
X48200000Y-71900000D01*
G75*
G02*
X48350000Y-71750000I150000J0D01*
G01*
X49650000Y-71750000D01*
G75*
G02*
X49800000Y-71900000I0J-150000D01*
G01*
X49800000Y-72200000D01*
G75*
G02*
X49650000Y-72350000I-150000J0D01*
G01*
X48350000Y-72350000D01*
G75*
G02*
X48200000Y-72200000I0J150000D01*
G01*
G37*
G36*
G01*
X48200000Y-73050000D02*
X48200000Y-72750000D01*
G75*
G02*
X48350000Y-72600000I150000J0D01*
G01*
X49650000Y-72600000D01*
G75*
G02*
X49800000Y-72750000I0J-150000D01*
G01*
X49800000Y-73050000D01*
G75*
G02*
X49650000Y-73200000I-150000J0D01*
G01*
X48350000Y-73200000D01*
G75*
G02*
X48200000Y-73050000I0J150000D01*
G01*
G37*
G36*
G01*
X48200000Y-73900000D02*
X48200000Y-73600000D01*
G75*
G02*
X48350000Y-73450000I150000J0D01*
G01*
X49650000Y-73450000D01*
G75*
G02*
X49800000Y-73600000I0J-150000D01*
G01*
X49800000Y-73900000D01*
G75*
G02*
X49650000Y-74050000I-150000J0D01*
G01*
X48350000Y-74050000D01*
G75*
G02*
X48200000Y-73900000I0J150000D01*
G01*
G37*
G36*
G01*
X48200000Y-74750000D02*
X48200000Y-74450000D01*
G75*
G02*
X48350000Y-74300000I150000J0D01*
G01*
X49650000Y-74300000D01*
G75*
G02*
X49800000Y-74450000I0J-150000D01*
G01*
X49800000Y-74750000D01*
G75*
G02*
X49650000Y-74900000I-150000J0D01*
G01*
X48350000Y-74900000D01*
G75*
G02*
X48200000Y-74750000I0J150000D01*
G01*
G37*
G36*
G01*
X37700000Y-77450000D02*
X37700000Y-76150000D01*
G75*
G02*
X37850000Y-76000000I150000J0D01*
G01*
X38150000Y-76000000D01*
G75*
G02*
X38300000Y-76150000I0J-150000D01*
G01*
X38300000Y-77450000D01*
G75*
G02*
X38150000Y-77600000I-150000J0D01*
G01*
X37850000Y-77600000D01*
G75*
G02*
X37700000Y-77450000I0J150000D01*
G01*
G37*
G36*
G01*
X38550000Y-77450000D02*
X38550000Y-76150000D01*
G75*
G02*
X38700000Y-76000000I150000J0D01*
G01*
X39000000Y-76000000D01*
G75*
G02*
X39150000Y-76150000I0J-150000D01*
G01*
X39150000Y-77450000D01*
G75*
G02*
X39000000Y-77600000I-150000J0D01*
G01*
X38700000Y-77600000D01*
G75*
G02*
X38550000Y-77450000I0J150000D01*
G01*
G37*
G36*
G01*
X39400000Y-77450000D02*
X39400000Y-76150000D01*
G75*
G02*
X39550000Y-76000000I150000J0D01*
G01*
X39850000Y-76000000D01*
G75*
G02*
X40000000Y-76150000I0J-150000D01*
G01*
X40000000Y-77450000D01*
G75*
G02*
X39850000Y-77600000I-150000J0D01*
G01*
X39550000Y-77600000D01*
G75*
G02*
X39400000Y-77450000I0J150000D01*
G01*
G37*
G36*
G01*
X40250000Y-77450000D02*
X40250000Y-76150000D01*
G75*
G02*
X40400000Y-76000000I150000J0D01*
G01*
X40700000Y-76000000D01*
G75*
G02*
X40850000Y-76150000I0J-150000D01*
G01*
X40850000Y-77450000D01*
G75*
G02*
X40700000Y-77600000I-150000J0D01*
G01*
X40400000Y-77600000D01*
G75*
G02*
X40250000Y-77450000I0J150000D01*
G01*
G37*
G36*
G01*
X41100000Y-77450000D02*
X41100000Y-76150000D01*
G75*
G02*
X41250000Y-76000000I150000J0D01*
G01*
X41550000Y-76000000D01*
G75*
G02*
X41700000Y-76150000I0J-150000D01*
G01*
X41700000Y-77450000D01*
G75*
G02*
X41550000Y-77600000I-150000J0D01*
G01*
X41250000Y-77600000D01*
G75*
G02*
X41100000Y-77450000I0J150000D01*
G01*
G37*
G36*
G01*
X41950000Y-77450000D02*
X41950000Y-76150000D01*
G75*
G02*
X42100000Y-76000000I150000J0D01*
G01*
X42400000Y-76000000D01*
G75*
G02*
X42550000Y-76150000I0J-150000D01*
G01*
X42550000Y-77450000D01*
G75*
G02*
X42400000Y-77600000I-150000J0D01*
G01*
X42100000Y-77600000D01*
G75*
G02*
X41950000Y-77450000I0J150000D01*
G01*
G37*
G36*
G01*
X42800000Y-77450000D02*
X42800000Y-76150000D01*
G75*
G02*
X42950000Y-76000000I150000J0D01*
G01*
X43250000Y-76000000D01*
G75*
G02*
X43400000Y-76150000I0J-150000D01*
G01*
X43400000Y-77450000D01*
G75*
G02*
X43250000Y-77600000I-150000J0D01*
G01*
X42950000Y-77600000D01*
G75*
G02*
X42800000Y-77450000I0J150000D01*
G01*
G37*
G36*
G01*
X43650000Y-77450000D02*
X43650000Y-76150000D01*
G75*
G02*
X43800000Y-76000000I150000J0D01*
G01*
X44100000Y-76000000D01*
G75*
G02*
X44250000Y-76150000I0J-150000D01*
G01*
X44250000Y-77450000D01*
G75*
G02*
X44100000Y-77600000I-150000J0D01*
G01*
X43800000Y-77600000D01*
G75*
G02*
X43650000Y-77450000I0J150000D01*
G01*
G37*
G36*
G01*
X44500000Y-77450000D02*
X44500000Y-76150000D01*
G75*
G02*
X44650000Y-76000000I150000J0D01*
G01*
X44950000Y-76000000D01*
G75*
G02*
X45100000Y-76150000I0J-150000D01*
G01*
X45100000Y-77450000D01*
G75*
G02*
X44950000Y-77600000I-150000J0D01*
G01*
X44650000Y-77600000D01*
G75*
G02*
X44500000Y-77450000I0J150000D01*
G01*
G37*
G36*
G01*
X45350000Y-77450000D02*
X45350000Y-76150000D01*
G75*
G02*
X45500000Y-76000000I150000J0D01*
G01*
X45800000Y-76000000D01*
G75*
G02*
X45950000Y-76150000I0J-150000D01*
G01*
X45950000Y-77450000D01*
G75*
G02*
X45800000Y-77600000I-150000J0D01*
G01*
X45500000Y-77600000D01*
G75*
G02*
X45350000Y-77450000I0J150000D01*
G01*
G37*
G36*
G01*
X46200000Y-77450000D02*
X46200000Y-76150000D01*
G75*
G02*
X46350000Y-76000000I150000J0D01*
G01*
X46650000Y-76000000D01*
G75*
G02*
X46800000Y-76150000I0J-150000D01*
G01*
X46800000Y-77450000D01*
G75*
G02*
X46650000Y-77600000I-150000J0D01*
G01*
X46350000Y-77600000D01*
G75*
G02*
X46200000Y-77450000I0J150000D01*
G01*
G37*
G36*
G01*
X47050000Y-77450000D02*
X47050000Y-76150000D01*
G75*
G02*
X47200000Y-76000000I150000J0D01*
G01*
X47500000Y-76000000D01*
G75*
G02*
X47650000Y-76150000I0J-150000D01*
G01*
X47650000Y-77450000D01*
G75*
G02*
X47500000Y-77600000I-150000J0D01*
G01*
X47200000Y-77600000D01*
G75*
G02*
X47050000Y-77450000I0J150000D01*
G01*
G37*
G36*
G01*
X47900000Y-77450000D02*
X47900000Y-76150000D01*
G75*
G02*
X48050000Y-76000000I150000J0D01*
G01*
X48350000Y-76000000D01*
G75*
G02*
X48500000Y-76150000I0J-150000D01*
G01*
X48500000Y-77450000D01*
G75*
G02*
X48350000Y-77600000I-150000J0D01*
G01*
X48050000Y-77600000D01*
G75*
G02*
X47900000Y-77450000I0J150000D01*
G01*
G37*
G36*
G01*
X36600000Y-65400000D02*
X36600000Y-65100000D01*
G75*
G02*
X36750000Y-64950000I150000J0D01*
G01*
X38050000Y-64950000D01*
G75*
G02*
X38200000Y-65100000I0J-150000D01*
G01*
X38200000Y-65400000D01*
G75*
G02*
X38050000Y-65550000I-150000J0D01*
G01*
X36750000Y-65550000D01*
G75*
G02*
X36600000Y-65400000I0J150000D01*
G01*
G37*
G36*
G01*
X36600000Y-66250000D02*
X36600000Y-65950000D01*
G75*
G02*
X36750000Y-65800000I150000J0D01*
G01*
X38050000Y-65800000D01*
G75*
G02*
X38200000Y-65950000I0J-150000D01*
G01*
X38200000Y-66250000D01*
G75*
G02*
X38050000Y-66400000I-150000J0D01*
G01*
X36750000Y-66400000D01*
G75*
G02*
X36600000Y-66250000I0J150000D01*
G01*
G37*
G36*
G01*
X36600000Y-67100000D02*
X36600000Y-66800000D01*
G75*
G02*
X36750000Y-66650000I150000J0D01*
G01*
X38050000Y-66650000D01*
G75*
G02*
X38200000Y-66800000I0J-150000D01*
G01*
X38200000Y-67100000D01*
G75*
G02*
X38050000Y-67250000I-150000J0D01*
G01*
X36750000Y-67250000D01*
G75*
G02*
X36600000Y-67100000I0J150000D01*
G01*
G37*
G36*
G01*
X36600000Y-67950000D02*
X36600000Y-67650000D01*
G75*
G02*
X36750000Y-67500000I150000J0D01*
G01*
X38050000Y-67500000D01*
G75*
G02*
X38200000Y-67650000I0J-150000D01*
G01*
X38200000Y-67950000D01*
G75*
G02*
X38050000Y-68100000I-150000J0D01*
G01*
X36750000Y-68100000D01*
G75*
G02*
X36600000Y-67950000I0J150000D01*
G01*
G37*
G36*
G01*
X36600000Y-68800000D02*
X36600000Y-68500000D01*
G75*
G02*
X36750000Y-68350000I150000J0D01*
G01*
X38050000Y-68350000D01*
G75*
G02*
X38200000Y-68500000I0J-150000D01*
G01*
X38200000Y-68800000D01*
G75*
G02*
X38050000Y-68950000I-150000J0D01*
G01*
X36750000Y-68950000D01*
G75*
G02*
X36600000Y-68800000I0J150000D01*
G01*
G37*
G36*
G01*
X36600000Y-69650000D02*
X36600000Y-69350000D01*
G75*
G02*
X36750000Y-69200000I150000J0D01*
G01*
X38050000Y-69200000D01*
G75*
G02*
X38200000Y-69350000I0J-150000D01*
G01*
X38200000Y-69650000D01*
G75*
G02*
X38050000Y-69800000I-150000J0D01*
G01*
X36750000Y-69800000D01*
G75*
G02*
X36600000Y-69650000I0J150000D01*
G01*
G37*
G36*
G01*
X36600000Y-70500000D02*
X36600000Y-70200000D01*
G75*
G02*
X36750000Y-70050000I150000J0D01*
G01*
X38050000Y-70050000D01*
G75*
G02*
X38200000Y-70200000I0J-150000D01*
G01*
X38200000Y-70500000D01*
G75*
G02*
X38050000Y-70650000I-150000J0D01*
G01*
X36750000Y-70650000D01*
G75*
G02*
X36600000Y-70500000I0J150000D01*
G01*
G37*
G36*
G01*
X36600000Y-71350000D02*
X36600000Y-71050000D01*
G75*
G02*
X36750000Y-70900000I150000J0D01*
G01*
X38050000Y-70900000D01*
G75*
G02*
X38200000Y-71050000I0J-150000D01*
G01*
X38200000Y-71350000D01*
G75*
G02*
X38050000Y-71500000I-150000J0D01*
G01*
X36750000Y-71500000D01*
G75*
G02*
X36600000Y-71350000I0J150000D01*
G01*
G37*
G36*
G01*
X36600000Y-72200000D02*
X36600000Y-71900000D01*
G75*
G02*
X36750000Y-71750000I150000J0D01*
G01*
X38050000Y-71750000D01*
G75*
G02*
X38200000Y-71900000I0J-150000D01*
G01*
X38200000Y-72200000D01*
G75*
G02*
X38050000Y-72350000I-150000J0D01*
G01*
X36750000Y-72350000D01*
G75*
G02*
X36600000Y-72200000I0J150000D01*
G01*
G37*
G36*
G01*
X36600000Y-73050000D02*
X36600000Y-72750000D01*
G75*
G02*
X36750000Y-72600000I150000J0D01*
G01*
X38050000Y-72600000D01*
G75*
G02*
X38200000Y-72750000I0J-150000D01*
G01*
X38200000Y-73050000D01*
G75*
G02*
X38050000Y-73200000I-150000J0D01*
G01*
X36750000Y-73200000D01*
G75*
G02*
X36600000Y-73050000I0J150000D01*
G01*
G37*
G36*
G01*
X36600000Y-73900000D02*
X36600000Y-73600000D01*
G75*
G02*
X36750000Y-73450000I150000J0D01*
G01*
X38050000Y-73450000D01*
G75*
G02*
X38200000Y-73600000I0J-150000D01*
G01*
X38200000Y-73900000D01*
G75*
G02*
X38050000Y-74050000I-150000J0D01*
G01*
X36750000Y-74050000D01*
G75*
G02*
X36600000Y-73900000I0J150000D01*
G01*
G37*
G36*
G01*
X36600000Y-74750000D02*
X36600000Y-74450000D01*
G75*
G02*
X36750000Y-74300000I150000J0D01*
G01*
X38050000Y-74300000D01*
G75*
G02*
X38200000Y-74450000I0J-150000D01*
G01*
X38200000Y-74750000D01*
G75*
G02*
X38050000Y-74900000I-150000J0D01*
G01*
X36750000Y-74900000D01*
G75*
G02*
X36600000Y-74750000I0J150000D01*
G01*
G37*
D10*
G36*
X60033500Y-83580000D02*
G01*
X60033500Y-80455000D01*
X60450000Y-80455000D01*
X60450000Y-78980000D01*
X61350000Y-78980000D01*
X61350000Y-80455000D01*
X61766500Y-80455000D01*
X61766500Y-83580000D01*
X60033500Y-83580000D01*
G37*
D14*
X59400000Y-79630000D03*
X62400000Y-79630000D03*
G36*
G01*
X50725000Y-89540000D02*
X50425000Y-89540000D01*
G75*
G02*
X50275000Y-89390000I0J150000D01*
G01*
X50275000Y-87740000D01*
G75*
G02*
X50425000Y-87590000I150000J0D01*
G01*
X50725000Y-87590000D01*
G75*
G02*
X50875000Y-87740000I0J-150000D01*
G01*
X50875000Y-89390000D01*
G75*
G02*
X50725000Y-89540000I-150000J0D01*
G01*
G37*
G36*
G01*
X51995000Y-89540000D02*
X51695000Y-89540000D01*
G75*
G02*
X51545000Y-89390000I0J150000D01*
G01*
X51545000Y-87740000D01*
G75*
G02*
X51695000Y-87590000I150000J0D01*
G01*
X51995000Y-87590000D01*
G75*
G02*
X52145000Y-87740000I0J-150000D01*
G01*
X52145000Y-89390000D01*
G75*
G02*
X51995000Y-89540000I-150000J0D01*
G01*
G37*
G36*
G01*
X53265000Y-89540000D02*
X52965000Y-89540000D01*
G75*
G02*
X52815000Y-89390000I0J150000D01*
G01*
X52815000Y-87740000D01*
G75*
G02*
X52965000Y-87590000I150000J0D01*
G01*
X53265000Y-87590000D01*
G75*
G02*
X53415000Y-87740000I0J-150000D01*
G01*
X53415000Y-89390000D01*
G75*
G02*
X53265000Y-89540000I-150000J0D01*
G01*
G37*
G36*
G01*
X54535000Y-89540000D02*
X54235000Y-89540000D01*
G75*
G02*
X54085000Y-89390000I0J150000D01*
G01*
X54085000Y-87740000D01*
G75*
G02*
X54235000Y-87590000I150000J0D01*
G01*
X54535000Y-87590000D01*
G75*
G02*
X54685000Y-87740000I0J-150000D01*
G01*
X54685000Y-89390000D01*
G75*
G02*
X54535000Y-89540000I-150000J0D01*
G01*
G37*
G36*
G01*
X55805000Y-89540000D02*
X55505000Y-89540000D01*
G75*
G02*
X55355000Y-89390000I0J150000D01*
G01*
X55355000Y-87740000D01*
G75*
G02*
X55505000Y-87590000I150000J0D01*
G01*
X55805000Y-87590000D01*
G75*
G02*
X55955000Y-87740000I0J-150000D01*
G01*
X55955000Y-89390000D01*
G75*
G02*
X55805000Y-89540000I-150000J0D01*
G01*
G37*
G36*
G01*
X57075000Y-89540000D02*
X56775000Y-89540000D01*
G75*
G02*
X56625000Y-89390000I0J150000D01*
G01*
X56625000Y-87740000D01*
G75*
G02*
X56775000Y-87590000I150000J0D01*
G01*
X57075000Y-87590000D01*
G75*
G02*
X57225000Y-87740000I0J-150000D01*
G01*
X57225000Y-89390000D01*
G75*
G02*
X57075000Y-89540000I-150000J0D01*
G01*
G37*
G36*
G01*
X58345000Y-89540000D02*
X58045000Y-89540000D01*
G75*
G02*
X57895000Y-89390000I0J150000D01*
G01*
X57895000Y-87740000D01*
G75*
G02*
X58045000Y-87590000I150000J0D01*
G01*
X58345000Y-87590000D01*
G75*
G02*
X58495000Y-87740000I0J-150000D01*
G01*
X58495000Y-89390000D01*
G75*
G02*
X58345000Y-89540000I-150000J0D01*
G01*
G37*
G36*
G01*
X59615000Y-89540000D02*
X59315000Y-89540000D01*
G75*
G02*
X59165000Y-89390000I0J150000D01*
G01*
X59165000Y-87740000D01*
G75*
G02*
X59315000Y-87590000I150000J0D01*
G01*
X59615000Y-87590000D01*
G75*
G02*
X59765000Y-87740000I0J-150000D01*
G01*
X59765000Y-89390000D01*
G75*
G02*
X59615000Y-89540000I-150000J0D01*
G01*
G37*
G36*
G01*
X59615000Y-94490000D02*
X59315000Y-94490000D01*
G75*
G02*
X59165000Y-94340000I0J150000D01*
G01*
X59165000Y-92690000D01*
G75*
G02*
X59315000Y-92540000I150000J0D01*
G01*
X59615000Y-92540000D01*
G75*
G02*
X59765000Y-92690000I0J-150000D01*
G01*
X59765000Y-94340000D01*
G75*
G02*
X59615000Y-94490000I-150000J0D01*
G01*
G37*
G36*
G01*
X58345000Y-94490000D02*
X58045000Y-94490000D01*
G75*
G02*
X57895000Y-94340000I0J150000D01*
G01*
X57895000Y-92690000D01*
G75*
G02*
X58045000Y-92540000I150000J0D01*
G01*
X58345000Y-92540000D01*
G75*
G02*
X58495000Y-92690000I0J-150000D01*
G01*
X58495000Y-94340000D01*
G75*
G02*
X58345000Y-94490000I-150000J0D01*
G01*
G37*
G36*
G01*
X57075000Y-94490000D02*
X56775000Y-94490000D01*
G75*
G02*
X56625000Y-94340000I0J150000D01*
G01*
X56625000Y-92690000D01*
G75*
G02*
X56775000Y-92540000I150000J0D01*
G01*
X57075000Y-92540000D01*
G75*
G02*
X57225000Y-92690000I0J-150000D01*
G01*
X57225000Y-94340000D01*
G75*
G02*
X57075000Y-94490000I-150000J0D01*
G01*
G37*
G36*
G01*
X55805000Y-94490000D02*
X55505000Y-94490000D01*
G75*
G02*
X55355000Y-94340000I0J150000D01*
G01*
X55355000Y-92690000D01*
G75*
G02*
X55505000Y-92540000I150000J0D01*
G01*
X55805000Y-92540000D01*
G75*
G02*
X55955000Y-92690000I0J-150000D01*
G01*
X55955000Y-94340000D01*
G75*
G02*
X55805000Y-94490000I-150000J0D01*
G01*
G37*
G36*
G01*
X54535000Y-94490000D02*
X54235000Y-94490000D01*
G75*
G02*
X54085000Y-94340000I0J150000D01*
G01*
X54085000Y-92690000D01*
G75*
G02*
X54235000Y-92540000I150000J0D01*
G01*
X54535000Y-92540000D01*
G75*
G02*
X54685000Y-92690000I0J-150000D01*
G01*
X54685000Y-94340000D01*
G75*
G02*
X54535000Y-94490000I-150000J0D01*
G01*
G37*
G36*
G01*
X53265000Y-94490000D02*
X52965000Y-94490000D01*
G75*
G02*
X52815000Y-94340000I0J150000D01*
G01*
X52815000Y-92690000D01*
G75*
G02*
X52965000Y-92540000I150000J0D01*
G01*
X53265000Y-92540000D01*
G75*
G02*
X53415000Y-92690000I0J-150000D01*
G01*
X53415000Y-94340000D01*
G75*
G02*
X53265000Y-94490000I-150000J0D01*
G01*
G37*
G36*
G01*
X51995000Y-94490000D02*
X51695000Y-94490000D01*
G75*
G02*
X51545000Y-94340000I0J150000D01*
G01*
X51545000Y-92690000D01*
G75*
G02*
X51695000Y-92540000I150000J0D01*
G01*
X51995000Y-92540000D01*
G75*
G02*
X52145000Y-92690000I0J-150000D01*
G01*
X52145000Y-94340000D01*
G75*
G02*
X51995000Y-94490000I-150000J0D01*
G01*
G37*
G36*
G01*
X50725000Y-94490000D02*
X50425000Y-94490000D01*
G75*
G02*
X50275000Y-94340000I0J150000D01*
G01*
X50275000Y-92690000D01*
G75*
G02*
X50425000Y-92540000I150000J0D01*
G01*
X50725000Y-92540000D01*
G75*
G02*
X50875000Y-92690000I0J-150000D01*
G01*
X50875000Y-94340000D01*
G75*
G02*
X50725000Y-94490000I-150000J0D01*
G01*
G37*
G36*
G01*
X34975000Y-92750000D02*
X36225000Y-92750000D01*
G75*
G02*
X36475000Y-93000000I0J-250000D01*
G01*
X36475000Y-93800000D01*
G75*
G02*
X36225000Y-94050000I-250000J0D01*
G01*
X34975000Y-94050000D01*
G75*
G02*
X34725000Y-93800000I0J250000D01*
G01*
X34725000Y-93000000D01*
G75*
G02*
X34975000Y-92750000I250000J0D01*
G01*
G37*
G36*
G01*
X34975000Y-89650000D02*
X36225000Y-89650000D01*
G75*
G02*
X36475000Y-89900000I0J-250000D01*
G01*
X36475000Y-90700000D01*
G75*
G02*
X36225000Y-90950000I-250000J0D01*
G01*
X34975000Y-90950000D01*
G75*
G02*
X34725000Y-90700000I0J250000D01*
G01*
X34725000Y-89900000D01*
G75*
G02*
X34975000Y-89650000I250000J0D01*
G01*
G37*
G36*
G01*
X38575000Y-92750000D02*
X39825000Y-92750000D01*
G75*
G02*
X40075000Y-93000000I0J-250000D01*
G01*
X40075000Y-93800000D01*
G75*
G02*
X39825000Y-94050000I-250000J0D01*
G01*
X38575000Y-94050000D01*
G75*
G02*
X38325000Y-93800000I0J250000D01*
G01*
X38325000Y-93000000D01*
G75*
G02*
X38575000Y-92750000I250000J0D01*
G01*
G37*
G36*
G01*
X38575000Y-89650000D02*
X39825000Y-89650000D01*
G75*
G02*
X40075000Y-89900000I0J-250000D01*
G01*
X40075000Y-90700000D01*
G75*
G02*
X39825000Y-90950000I-250000J0D01*
G01*
X38575000Y-90950000D01*
G75*
G02*
X38325000Y-90700000I0J250000D01*
G01*
X38325000Y-89900000D01*
G75*
G02*
X38575000Y-89650000I250000J0D01*
G01*
G37*
D10*
G36*
X52530602Y-75550000D02*
G01*
X52530602Y-75525466D01*
X52535412Y-75476635D01*
X52544984Y-75428510D01*
X52559228Y-75381555D01*
X52578005Y-75336222D01*
X52601136Y-75292949D01*
X52628396Y-75252150D01*
X52659524Y-75214221D01*
X52694221Y-75179524D01*
X52732150Y-75148396D01*
X52772949Y-75121136D01*
X52816222Y-75098005D01*
X52861555Y-75079228D01*
X52908510Y-75064984D01*
X52956635Y-75055412D01*
X53005466Y-75050602D01*
X53030000Y-75050602D01*
X53030000Y-75050000D01*
X53530000Y-75050000D01*
X53530000Y-75050602D01*
X53554534Y-75050602D01*
X53603365Y-75055412D01*
X53651490Y-75064984D01*
X53698445Y-75079228D01*
X53743778Y-75098005D01*
X53787051Y-75121136D01*
X53827850Y-75148396D01*
X53865779Y-75179524D01*
X53900476Y-75214221D01*
X53931604Y-75252150D01*
X53958864Y-75292949D01*
X53981995Y-75336222D01*
X54000772Y-75381555D01*
X54015016Y-75428510D01*
X54024588Y-75476635D01*
X54029398Y-75525466D01*
X54029398Y-75550000D01*
X54030000Y-75550000D01*
X54030000Y-76050000D01*
X52530000Y-76050000D01*
X52530000Y-75550000D01*
X52530602Y-75550000D01*
G37*
G36*
X54030000Y-76350000D02*
G01*
X54030000Y-76850000D01*
X54029398Y-76850000D01*
X54029398Y-76874534D01*
X54024588Y-76923365D01*
X54015016Y-76971490D01*
X54000772Y-77018445D01*
X53981995Y-77063778D01*
X53958864Y-77107051D01*
X53931604Y-77147850D01*
X53900476Y-77185779D01*
X53865779Y-77220476D01*
X53827850Y-77251604D01*
X53787051Y-77278864D01*
X53743778Y-77301995D01*
X53698445Y-77320772D01*
X53651490Y-77335016D01*
X53603365Y-77344588D01*
X53554534Y-77349398D01*
X53530000Y-77349398D01*
X53530000Y-77350000D01*
X53030000Y-77350000D01*
X53030000Y-77349398D01*
X53005466Y-77349398D01*
X52956635Y-77344588D01*
X52908510Y-77335016D01*
X52861555Y-77320772D01*
X52816222Y-77301995D01*
X52772949Y-77278864D01*
X52732150Y-77251604D01*
X52694221Y-77220476D01*
X52659524Y-77185779D01*
X52628396Y-77147850D01*
X52601136Y-77107051D01*
X52578005Y-77063778D01*
X52559228Y-77018445D01*
X52544984Y-76971490D01*
X52535412Y-76923365D01*
X52530602Y-76874534D01*
X52530602Y-76850000D01*
X52530000Y-76850000D01*
X52530000Y-76350000D01*
X54030000Y-76350000D01*
G37*
D15*
X27940000Y-106680000D03*
X27940000Y-104140000D03*
X27940000Y-101600000D03*
X27940000Y-99060000D03*
X27940000Y-96520000D03*
X27940000Y-93980000D03*
X27940000Y-91440000D03*
X27940000Y-88900000D03*
X27940000Y-86360000D03*
X27940000Y-83820000D03*
X27940000Y-81280000D03*
X27940000Y-78740000D03*
X27940000Y-76200000D03*
X27940000Y-73660000D03*
D16*
X27940000Y-71120000D03*
D15*
X76200000Y-71120000D03*
X76200000Y-73660000D03*
X76200000Y-76200000D03*
X76200000Y-78740000D03*
X76200000Y-81280000D03*
X76200000Y-83820000D03*
X76200000Y-86360000D03*
X76200000Y-88900000D03*
X76200000Y-91440000D03*
X76200000Y-93980000D03*
X76200000Y-96520000D03*
X76200000Y-99060000D03*
X76200000Y-101600000D03*
X76200000Y-104140000D03*
D16*
X76200000Y-106680000D03*
D17*
X68140000Y-64860000D03*
X65600000Y-64860000D03*
X63060000Y-64860000D03*
X60520000Y-64860000D03*
X57980000Y-64860000D03*
X68140000Y-67400000D03*
X65600000Y-67400000D03*
X63060000Y-67400000D03*
X60520000Y-67400000D03*
G36*
G01*
X58580000Y-68250000D02*
X57380000Y-68250000D01*
G75*
G02*
X57130000Y-68000000I0J250000D01*
G01*
X57130000Y-66800000D01*
G75*
G02*
X57380000Y-66550000I250000J0D01*
G01*
X58580000Y-66550000D01*
G75*
G02*
X58830000Y-66800000I0J-250000D01*
G01*
X58830000Y-68000000D01*
G75*
G02*
X58580000Y-68250000I-250000J0D01*
G01*
G37*
D15*
X65180000Y-93580000D03*
X65180000Y-91040000D03*
D16*
X65180000Y-88500000D03*
D18*
X57462500Y-107770000D03*
X64937500Y-107770000D03*
D19*
X61200000Y-107770000D03*
D20*
X61850000Y-105095000D03*
D21*
X65375000Y-107770000D03*
X57025000Y-107770000D03*
D22*
X63425000Y-104770000D03*
D20*
X62500000Y-105095000D03*
X61200000Y-105095000D03*
X60550000Y-105095000D03*
X59900000Y-105095000D03*
D22*
X58975000Y-104770000D03*
G36*
G01*
X36225000Y-102337500D02*
X34975000Y-102337500D01*
G75*
G02*
X34725000Y-102087500I0J250000D01*
G01*
X34725000Y-101162500D01*
G75*
G02*
X34975000Y-100912500I250000J0D01*
G01*
X36225000Y-100912500D01*
G75*
G02*
X36475000Y-101162500I0J-250000D01*
G01*
X36475000Y-102087500D01*
G75*
G02*
X36225000Y-102337500I-250000J0D01*
G01*
G37*
G36*
G01*
X36225000Y-105312500D02*
X34975000Y-105312500D01*
G75*
G02*
X34725000Y-105062500I0J250000D01*
G01*
X34725000Y-104137500D01*
G75*
G02*
X34975000Y-103887500I250000J0D01*
G01*
X36225000Y-103887500D01*
G75*
G02*
X36475000Y-104137500I0J-250000D01*
G01*
X36475000Y-105062500D01*
G75*
G02*
X36225000Y-105312500I-250000J0D01*
G01*
G37*
G36*
G01*
X39825000Y-102337500D02*
X38575000Y-102337500D01*
G75*
G02*
X38325000Y-102087500I0J250000D01*
G01*
X38325000Y-101162500D01*
G75*
G02*
X38575000Y-100912500I250000J0D01*
G01*
X39825000Y-100912500D01*
G75*
G02*
X40075000Y-101162500I0J-250000D01*
G01*
X40075000Y-102087500D01*
G75*
G02*
X39825000Y-102337500I-250000J0D01*
G01*
G37*
G36*
G01*
X39825000Y-105312500D02*
X38575000Y-105312500D01*
G75*
G02*
X38325000Y-105062500I0J250000D01*
G01*
X38325000Y-104137500D01*
G75*
G02*
X38575000Y-103887500I250000J0D01*
G01*
X39825000Y-103887500D01*
G75*
G02*
X40075000Y-104137500I0J-250000D01*
G01*
X40075000Y-105062500D01*
G75*
G02*
X39825000Y-105312500I-250000J0D01*
G01*
G37*
G36*
G01*
X37449999Y-82580000D02*
X38750001Y-82580000D01*
G75*
G02*
X39000000Y-82829999I0J-249999D01*
G01*
X39000000Y-83655001D01*
G75*
G02*
X38750001Y-83905000I-249999J0D01*
G01*
X37449999Y-83905000D01*
G75*
G02*
X37200000Y-83655001I0J249999D01*
G01*
X37200000Y-82829999D01*
G75*
G02*
X37449999Y-82580000I249999J0D01*
G01*
G37*
G36*
G01*
X37449999Y-79455000D02*
X38750001Y-79455000D01*
G75*
G02*
X39000000Y-79704999I0J-249999D01*
G01*
X39000000Y-80530001D01*
G75*
G02*
X38750001Y-80780000I-249999J0D01*
G01*
X37449999Y-80780000D01*
G75*
G02*
X37200000Y-80530001I0J249999D01*
G01*
X37200000Y-79704999D01*
G75*
G02*
X37449999Y-79455000I249999J0D01*
G01*
G37*
G36*
G01*
X61800000Y-76850001D02*
X61800000Y-75549999D01*
G75*
G02*
X62049999Y-75300000I249999J0D01*
G01*
X62875001Y-75300000D01*
G75*
G02*
X63125000Y-75549999I0J-249999D01*
G01*
X63125000Y-76850001D01*
G75*
G02*
X62875001Y-77100000I-249999J0D01*
G01*
X62049999Y-77100000D01*
G75*
G02*
X61800000Y-76850001I0J249999D01*
G01*
G37*
G36*
G01*
X58675000Y-76850001D02*
X58675000Y-75549999D01*
G75*
G02*
X58924999Y-75300000I249999J0D01*
G01*
X59750001Y-75300000D01*
G75*
G02*
X60000000Y-75549999I0J-249999D01*
G01*
X60000000Y-76850001D01*
G75*
G02*
X59750001Y-77100000I-249999J0D01*
G01*
X58924999Y-77100000D01*
G75*
G02*
X58675000Y-76850001I0J249999D01*
G01*
G37*
G36*
G01*
X53099999Y-99400000D02*
X54400001Y-99400000D01*
G75*
G02*
X54650000Y-99649999I0J-249999D01*
G01*
X54650000Y-100475001D01*
G75*
G02*
X54400001Y-100725000I-249999J0D01*
G01*
X53099999Y-100725000D01*
G75*
G02*
X52850000Y-100475001I0J249999D01*
G01*
X52850000Y-99649999D01*
G75*
G02*
X53099999Y-99400000I249999J0D01*
G01*
G37*
G36*
G01*
X53099999Y-96275000D02*
X54400001Y-96275000D01*
G75*
G02*
X54650000Y-96524999I0J-249999D01*
G01*
X54650000Y-97350001D01*
G75*
G02*
X54400001Y-97600000I-249999J0D01*
G01*
X53099999Y-97600000D01*
G75*
G02*
X52850000Y-97350001I0J249999D01*
G01*
X52850000Y-96524999D01*
G75*
G02*
X53099999Y-96275000I249999J0D01*
G01*
G37*
G36*
G01*
X66630001Y-80380000D02*
X65329999Y-80380000D01*
G75*
G02*
X65080000Y-80130001I0J249999D01*
G01*
X65080000Y-79304999D01*
G75*
G02*
X65329999Y-79055000I249999J0D01*
G01*
X66630001Y-79055000D01*
G75*
G02*
X66880000Y-79304999I0J-249999D01*
G01*
X66880000Y-80130001D01*
G75*
G02*
X66630001Y-80380000I-249999J0D01*
G01*
G37*
G36*
G01*
X66630001Y-83505000D02*
X65329999Y-83505000D01*
G75*
G02*
X65080000Y-83255001I0J249999D01*
G01*
X65080000Y-82429999D01*
G75*
G02*
X65329999Y-82180000I249999J0D01*
G01*
X66630001Y-82180000D01*
G75*
G02*
X66880000Y-82429999I0J-249999D01*
G01*
X66880000Y-83255001D01*
G75*
G02*
X66630001Y-83505000I-249999J0D01*
G01*
G37*
M02*
