G04 #@! TF.GenerationSoftware,KiCad,Pcbnew,(5.1.10)-1*
G04 #@! TF.CreationDate,2021-12-04T16:44:40+01:00*
G04 #@! TF.ProjectId,nRF52832_development_board_schematic,6e524635-3238-4333-925f-646576656c6f,1*
G04 #@! TF.SameCoordinates,Original*
G04 #@! TF.FileFunction,Legend,Bot*
G04 #@! TF.FilePolarity,Positive*
%FSLAX46Y46*%
G04 Gerber Fmt 4.6, Leading zero omitted, Abs format (unit mm)*
G04 Created by KiCad (PCBNEW (5.1.10)-1) date 2021-12-04 16:44:40*
%MOMM*%
%LPD*%
G01*
G04 APERTURE LIST*
%ADD10C,0.120000*%
%ADD11C,0.150000*%
%ADD12O,1.700000X1.700000*%
%ADD13R,1.700000X1.700000*%
%ADD14C,1.700000*%
%ADD15O,1.000000X1.900000*%
%ADD16O,1.050000X1.250000*%
G04 APERTURE END LIST*
D10*
X49710000Y-102072936D02*
X49710000Y-103527064D01*
X47890000Y-102072936D02*
X47890000Y-103527064D01*
X44910000Y-102072936D02*
X44910000Y-103527064D01*
X43090000Y-102072936D02*
X43090000Y-103527064D01*
D11*
X49252380Y-106233333D02*
X48776190Y-105900000D01*
X49252380Y-105661904D02*
X48252380Y-105661904D01*
X48252380Y-106042857D01*
X48300000Y-106138095D01*
X48347619Y-106185714D01*
X48442857Y-106233333D01*
X48585714Y-106233333D01*
X48680952Y-106185714D01*
X48728571Y-106138095D01*
X48776190Y-106042857D01*
X48776190Y-105661904D01*
X48585714Y-107090476D02*
X49252380Y-107090476D01*
X48204761Y-106852380D02*
X48919047Y-106614285D01*
X48919047Y-107233333D01*
X44252380Y-106433333D02*
X43776190Y-106100000D01*
X44252380Y-105861904D02*
X43252380Y-105861904D01*
X43252380Y-106242857D01*
X43300000Y-106338095D01*
X43347619Y-106385714D01*
X43442857Y-106433333D01*
X43585714Y-106433333D01*
X43680952Y-106385714D01*
X43728571Y-106338095D01*
X43776190Y-106242857D01*
X43776190Y-105861904D01*
X43252380Y-106766666D02*
X43252380Y-107385714D01*
X43633333Y-107052380D01*
X43633333Y-107195238D01*
X43680952Y-107290476D01*
X43728571Y-107338095D01*
X43823809Y-107385714D01*
X44061904Y-107385714D01*
X44157142Y-107338095D01*
X44204761Y-107290476D01*
X44252380Y-107195238D01*
X44252380Y-106909523D01*
X44204761Y-106814285D01*
X44157142Y-106766666D01*
%LPC*%
G36*
G01*
X48175000Y-103700000D02*
X49425000Y-103700000D01*
G75*
G02*
X49675000Y-103950000I0J-250000D01*
G01*
X49675000Y-104750000D01*
G75*
G02*
X49425000Y-105000000I-250000J0D01*
G01*
X48175000Y-105000000D01*
G75*
G02*
X47925000Y-104750000I0J250000D01*
G01*
X47925000Y-103950000D01*
G75*
G02*
X48175000Y-103700000I250000J0D01*
G01*
G37*
G36*
G01*
X48175000Y-100600000D02*
X49425000Y-100600000D01*
G75*
G02*
X49675000Y-100850000I0J-250000D01*
G01*
X49675000Y-101650000D01*
G75*
G02*
X49425000Y-101900000I-250000J0D01*
G01*
X48175000Y-101900000D01*
G75*
G02*
X47925000Y-101650000I0J250000D01*
G01*
X47925000Y-100850000D01*
G75*
G02*
X48175000Y-100600000I250000J0D01*
G01*
G37*
G36*
G01*
X43375000Y-103700000D02*
X44625000Y-103700000D01*
G75*
G02*
X44875000Y-103950000I0J-250000D01*
G01*
X44875000Y-104750000D01*
G75*
G02*
X44625000Y-105000000I-250000J0D01*
G01*
X43375000Y-105000000D01*
G75*
G02*
X43125000Y-104750000I0J250000D01*
G01*
X43125000Y-103950000D01*
G75*
G02*
X43375000Y-103700000I250000J0D01*
G01*
G37*
G36*
G01*
X43375000Y-100600000D02*
X44625000Y-100600000D01*
G75*
G02*
X44875000Y-100850000I0J-250000D01*
G01*
X44875000Y-101650000D01*
G75*
G02*
X44625000Y-101900000I-250000J0D01*
G01*
X43375000Y-101900000D01*
G75*
G02*
X43125000Y-101650000I0J250000D01*
G01*
X43125000Y-100850000D01*
G75*
G02*
X43375000Y-100600000I250000J0D01*
G01*
G37*
D12*
X27940000Y-106680000D03*
X27940000Y-104140000D03*
X27940000Y-101600000D03*
X27940000Y-99060000D03*
X27940000Y-96520000D03*
X27940000Y-93980000D03*
X27940000Y-91440000D03*
X27940000Y-88900000D03*
X27940000Y-86360000D03*
X27940000Y-83820000D03*
X27940000Y-81280000D03*
X27940000Y-78740000D03*
X27940000Y-76200000D03*
X27940000Y-73660000D03*
D13*
X27940000Y-71120000D03*
D12*
X76200000Y-71120000D03*
X76200000Y-73660000D03*
X76200000Y-76200000D03*
X76200000Y-78740000D03*
X76200000Y-81280000D03*
X76200000Y-83820000D03*
X76200000Y-86360000D03*
X76200000Y-88900000D03*
X76200000Y-91440000D03*
X76200000Y-93980000D03*
X76200000Y-96520000D03*
X76200000Y-99060000D03*
X76200000Y-101600000D03*
X76200000Y-104140000D03*
D13*
X76200000Y-106680000D03*
D14*
X68140000Y-64860000D03*
X65600000Y-64860000D03*
X63060000Y-64860000D03*
X60520000Y-64860000D03*
X57980000Y-64860000D03*
X68140000Y-67400000D03*
X65600000Y-67400000D03*
X63060000Y-67400000D03*
X60520000Y-67400000D03*
G36*
G01*
X58580000Y-68250000D02*
X57380000Y-68250000D01*
G75*
G02*
X57130000Y-68000000I0J250000D01*
G01*
X57130000Y-66800000D01*
G75*
G02*
X57380000Y-66550000I250000J0D01*
G01*
X58580000Y-66550000D01*
G75*
G02*
X58830000Y-66800000I0J-250000D01*
G01*
X58830000Y-68000000D01*
G75*
G02*
X58580000Y-68250000I-250000J0D01*
G01*
G37*
D12*
X65180000Y-93580000D03*
X65180000Y-91040000D03*
D13*
X65180000Y-88500000D03*
D15*
X65375000Y-107770000D03*
X57025000Y-107770000D03*
D16*
X63425000Y-104770000D03*
X58975000Y-104770000D03*
M02*
