G04 #@! TF.GenerationSoftware,KiCad,Pcbnew,(5.1.10)-1*
G04 #@! TF.CreationDate,2021-12-04T16:44:40+01:00*
G04 #@! TF.ProjectId,nRF52832_development_board_schematic,6e524635-3238-4333-925f-646576656c6f,1*
G04 #@! TF.SameCoordinates,Original*
G04 #@! TF.FileFunction,Copper,L4,Bot*
G04 #@! TF.FilePolarity,Positive*
%FSLAX46Y46*%
G04 Gerber Fmt 4.6, Leading zero omitted, Abs format (unit mm)*
G04 Created by KiCad (PCBNEW (5.1.10)-1) date 2021-12-04 16:44:40*
%MOMM*%
%LPD*%
G01*
G04 APERTURE LIST*
G04 #@! TA.AperFunction,ComponentPad*
%ADD10O,1.700000X1.700000*%
G04 #@! TD*
G04 #@! TA.AperFunction,ComponentPad*
%ADD11R,1.700000X1.700000*%
G04 #@! TD*
G04 #@! TA.AperFunction,ComponentPad*
%ADD12C,1.700000*%
G04 #@! TD*
G04 #@! TA.AperFunction,ComponentPad*
%ADD13O,1.000000X1.900000*%
G04 #@! TD*
G04 #@! TA.AperFunction,ComponentPad*
%ADD14O,1.050000X1.250000*%
G04 #@! TD*
G04 #@! TA.AperFunction,ViaPad*
%ADD15C,0.600000*%
G04 #@! TD*
G04 #@! TA.AperFunction,Conductor*
%ADD16C,0.400000*%
G04 #@! TD*
G04 #@! TA.AperFunction,Conductor*
%ADD17C,0.150000*%
G04 #@! TD*
G04 #@! TA.AperFunction,Conductor*
%ADD18C,0.254000*%
G04 #@! TD*
G04 #@! TA.AperFunction,Conductor*
%ADD19C,0.152400*%
G04 #@! TD*
G04 APERTURE END LIST*
G04 #@! TA.AperFunction,SMDPad,CuDef*
G36*
G01*
X48175000Y-103700000D02*
X49425000Y-103700000D01*
G75*
G02*
X49675000Y-103950000I0J-250000D01*
G01*
X49675000Y-104750000D01*
G75*
G02*
X49425000Y-105000000I-250000J0D01*
G01*
X48175000Y-105000000D01*
G75*
G02*
X47925000Y-104750000I0J250000D01*
G01*
X47925000Y-103950000D01*
G75*
G02*
X48175000Y-103700000I250000J0D01*
G01*
G37*
G04 #@! TD.AperFunction*
G04 #@! TA.AperFunction,SMDPad,CuDef*
G36*
G01*
X48175000Y-100600000D02*
X49425000Y-100600000D01*
G75*
G02*
X49675000Y-100850000I0J-250000D01*
G01*
X49675000Y-101650000D01*
G75*
G02*
X49425000Y-101900000I-250000J0D01*
G01*
X48175000Y-101900000D01*
G75*
G02*
X47925000Y-101650000I0J250000D01*
G01*
X47925000Y-100850000D01*
G75*
G02*
X48175000Y-100600000I250000J0D01*
G01*
G37*
G04 #@! TD.AperFunction*
G04 #@! TA.AperFunction,SMDPad,CuDef*
G36*
G01*
X43375000Y-103700000D02*
X44625000Y-103700000D01*
G75*
G02*
X44875000Y-103950000I0J-250000D01*
G01*
X44875000Y-104750000D01*
G75*
G02*
X44625000Y-105000000I-250000J0D01*
G01*
X43375000Y-105000000D01*
G75*
G02*
X43125000Y-104750000I0J250000D01*
G01*
X43125000Y-103950000D01*
G75*
G02*
X43375000Y-103700000I250000J0D01*
G01*
G37*
G04 #@! TD.AperFunction*
G04 #@! TA.AperFunction,SMDPad,CuDef*
G36*
G01*
X43375000Y-100600000D02*
X44625000Y-100600000D01*
G75*
G02*
X44875000Y-100850000I0J-250000D01*
G01*
X44875000Y-101650000D01*
G75*
G02*
X44625000Y-101900000I-250000J0D01*
G01*
X43375000Y-101900000D01*
G75*
G02*
X43125000Y-101650000I0J250000D01*
G01*
X43125000Y-100850000D01*
G75*
G02*
X43375000Y-100600000I250000J0D01*
G01*
G37*
G04 #@! TD.AperFunction*
D10*
X27940000Y-106680000D03*
X27940000Y-104140000D03*
X27940000Y-101600000D03*
X27940000Y-99060000D03*
X27940000Y-96520000D03*
X27940000Y-93980000D03*
X27940000Y-91440000D03*
X27940000Y-88900000D03*
X27940000Y-86360000D03*
X27940000Y-83820000D03*
X27940000Y-81280000D03*
X27940000Y-78740000D03*
X27940000Y-76200000D03*
X27940000Y-73660000D03*
D11*
X27940000Y-71120000D03*
D10*
X76200000Y-71120000D03*
X76200000Y-73660000D03*
X76200000Y-76200000D03*
X76200000Y-78740000D03*
X76200000Y-81280000D03*
X76200000Y-83820000D03*
X76200000Y-86360000D03*
X76200000Y-88900000D03*
X76200000Y-91440000D03*
X76200000Y-93980000D03*
X76200000Y-96520000D03*
X76200000Y-99060000D03*
X76200000Y-101600000D03*
X76200000Y-104140000D03*
D11*
X76200000Y-106680000D03*
D12*
X68140000Y-64860000D03*
X65600000Y-64860000D03*
X63060000Y-64860000D03*
X60520000Y-64860000D03*
X57980000Y-64860000D03*
X68140000Y-67400000D03*
X65600000Y-67400000D03*
X63060000Y-67400000D03*
X60520000Y-67400000D03*
G04 #@! TA.AperFunction,ComponentPad*
G36*
G01*
X58580000Y-68250000D02*
X57380000Y-68250000D01*
G75*
G02*
X57130000Y-68000000I0J250000D01*
G01*
X57130000Y-66800000D01*
G75*
G02*
X57380000Y-66550000I250000J0D01*
G01*
X58580000Y-66550000D01*
G75*
G02*
X58830000Y-66800000I0J-250000D01*
G01*
X58830000Y-68000000D01*
G75*
G02*
X58580000Y-68250000I-250000J0D01*
G01*
G37*
G04 #@! TD.AperFunction*
D10*
X65180000Y-93580000D03*
X65180000Y-91040000D03*
D11*
X65180000Y-88500000D03*
D13*
X65375000Y-107770000D03*
X57025000Y-107770000D03*
D14*
X63425000Y-104770000D03*
X58975000Y-104770000D03*
D15*
X45700000Y-99800000D03*
X59200000Y-98600000D03*
X57000000Y-95600000D03*
X58000000Y-101200000D03*
X55800000Y-99000000D03*
X48800000Y-106000000D03*
X44200000Y-82200000D03*
X44000000Y-87600000D03*
X43600000Y-70000000D03*
X53000000Y-103300000D03*
X55200000Y-103300000D03*
X51200000Y-69600000D03*
X51200000Y-70400000D03*
X51200000Y-71200000D03*
X51200000Y-72000000D03*
X51200000Y-72800000D03*
X51200000Y-73600000D03*
X51200000Y-74600000D03*
X47400000Y-78600000D03*
X46600000Y-78800000D03*
X45995098Y-78396732D03*
X45673551Y-79326449D03*
X44600000Y-79200000D03*
X34000000Y-72000000D03*
X34071579Y-71148293D03*
X34154968Y-70354968D03*
X34400000Y-69400000D03*
X34400000Y-68654006D03*
X34400000Y-67927003D03*
X34400000Y-67200000D03*
X47000000Y-62000000D03*
X47000000Y-62727003D03*
X47000000Y-63600000D03*
X46200000Y-67000000D03*
X46200000Y-67800000D03*
X46200000Y-68600000D03*
X43000000Y-81000000D03*
X43000000Y-78800000D03*
X44000000Y-106000000D03*
X42200000Y-74000000D03*
X49400000Y-89400000D03*
X40600000Y-79000000D03*
X50000000Y-91200000D03*
X41400000Y-79000000D03*
D16*
X48850000Y-101200000D02*
X48800000Y-101250000D01*
X45700000Y-99800000D02*
X45700000Y-101200000D01*
X45750000Y-101250000D02*
X44000000Y-101250000D01*
X45700000Y-101200000D02*
X45750000Y-101250000D01*
X48800000Y-101250000D02*
X45750000Y-101250000D01*
D17*
X57000000Y-96400000D02*
X57000000Y-95600000D01*
X59200000Y-98600000D02*
X57000000Y-96400000D01*
X58000000Y-101200000D02*
X55800000Y-99000000D01*
X48800000Y-106000000D02*
X48800000Y-104350000D01*
X43600000Y-81600000D02*
X44200000Y-82200000D01*
X43600000Y-75000000D02*
X43600000Y-81600000D01*
X47947990Y-103497990D02*
X48800000Y-104350000D01*
X44583750Y-103497990D02*
X47947990Y-103497990D01*
X42922990Y-101837230D02*
X44583750Y-103497990D01*
X42922990Y-88677010D02*
X42922990Y-101837230D01*
X44000000Y-87600000D02*
X42922990Y-88677010D01*
X75350001Y-103290001D02*
X76200000Y-104140000D01*
X48800000Y-104350000D02*
X49859999Y-103290001D01*
X43600000Y-75000000D02*
X43600000Y-70000000D01*
X51409999Y-103290001D02*
X52990001Y-103290001D01*
X49859999Y-103290001D02*
X51409999Y-103290001D01*
X52990001Y-103290001D02*
X53000000Y-103300000D01*
X55209999Y-103290001D02*
X55200000Y-103300000D01*
X55490001Y-103290001D02*
X55209999Y-103290001D01*
X55490001Y-103290001D02*
X75350001Y-103290001D01*
X76200000Y-73660000D02*
X72940000Y-70400000D01*
X72940000Y-70400000D02*
X72940000Y-70340000D01*
X72200000Y-69600000D02*
X51200000Y-69600000D01*
X72940000Y-70340000D02*
X72200000Y-69600000D01*
X76200000Y-76200000D02*
X71800000Y-71800000D01*
X71800000Y-71800000D02*
X70400000Y-70400000D01*
X70400000Y-70400000D02*
X51200000Y-70400000D01*
X76200000Y-78740000D02*
X68660000Y-71200000D01*
X68660000Y-71200000D02*
X51200000Y-71200000D01*
X76200000Y-81280000D02*
X66920000Y-72000000D01*
X66920000Y-72000000D02*
X51200000Y-72000000D01*
X76200000Y-83820000D02*
X65400000Y-73020000D01*
X51420000Y-73020000D02*
X51200000Y-72800000D01*
X65400000Y-73020000D02*
X51420000Y-73020000D01*
X76200000Y-86360000D02*
X63640000Y-73800000D01*
X51400000Y-73800000D02*
X51200000Y-73600000D01*
X63640000Y-73800000D02*
X51400000Y-73800000D01*
X76200000Y-88900000D02*
X61900000Y-74600000D01*
X61900000Y-74600000D02*
X51200000Y-74600000D01*
X76200000Y-91440000D02*
X70000000Y-85240000D01*
X54040000Y-85240000D02*
X47400000Y-78600000D01*
X70000000Y-85240000D02*
X54040000Y-85240000D01*
X76200000Y-93980000D02*
X68820000Y-86600000D01*
X68820000Y-86600000D02*
X68800000Y-86600000D01*
X68800000Y-86600000D02*
X67800000Y-85600000D01*
X46857038Y-78800000D02*
X46600000Y-78800000D01*
X53657038Y-85600000D02*
X46857038Y-78800000D01*
X67800000Y-85600000D02*
X53657038Y-85600000D01*
X76200000Y-96520000D02*
X65557010Y-85877010D01*
X52934048Y-85877010D02*
X45995098Y-78938060D01*
X45995098Y-78938060D02*
X45995098Y-78396732D01*
X65557010Y-85877010D02*
X52934048Y-85877010D01*
X76200000Y-99060000D02*
X68600000Y-91460000D01*
X68600000Y-91460000D02*
X68600000Y-89311750D01*
X52501122Y-86154020D02*
X45673551Y-79326449D01*
X65442270Y-86154020D02*
X52501122Y-86154020D01*
X68600000Y-89311750D02*
X65442270Y-86154020D01*
X76200000Y-101600000D02*
X68200000Y-93600000D01*
X68200000Y-89400000D02*
X65231030Y-86431030D01*
X68200000Y-93600000D02*
X68200000Y-89400000D01*
X65231030Y-86431030D02*
X56000000Y-86431030D01*
X51831030Y-86431030D02*
X44600000Y-79200000D01*
X56000000Y-86431030D02*
X51831030Y-86431030D01*
X27940000Y-88900000D02*
X30477010Y-86362990D01*
X30477010Y-75522990D02*
X34000000Y-72000000D01*
X30477010Y-86362990D02*
X30477010Y-75522990D01*
X27940000Y-86360000D02*
X30200000Y-84100000D01*
X30200000Y-75019872D02*
X34071579Y-71148293D01*
X30200000Y-84100000D02*
X30200000Y-75019872D01*
X27940000Y-83820000D02*
X29877010Y-81882990D01*
X29877010Y-74632926D02*
X34154968Y-70354968D01*
X29877010Y-81882990D02*
X29877010Y-74632926D01*
X27940000Y-81280000D02*
X29600000Y-79620000D01*
X29600000Y-74200000D02*
X34400000Y-69400000D01*
X29600000Y-79620000D02*
X29600000Y-74200000D01*
X27940000Y-78740000D02*
X29297882Y-77382118D01*
X29297882Y-73756124D02*
X34400000Y-68654006D01*
X29297882Y-77382118D02*
X29297882Y-73756124D01*
X27940000Y-76200000D02*
X29000000Y-75140000D01*
X29000000Y-73327003D02*
X34400000Y-67927003D01*
X29000000Y-75140000D02*
X29000000Y-73327003D01*
X27940000Y-73660000D02*
X34400000Y-67200000D01*
X27940000Y-91440000D02*
X30800000Y-88580000D01*
X30800000Y-88580000D02*
X30800000Y-75600000D01*
X33897999Y-72502001D02*
X34297999Y-72502001D01*
X30800000Y-75600000D02*
X33897999Y-72502001D01*
X44800000Y-62000000D02*
X47000000Y-62000000D01*
X34297999Y-72502001D02*
X44800000Y-62000000D01*
X31077010Y-76122990D02*
X44472997Y-62727003D01*
X31077010Y-90842990D02*
X31077010Y-76122990D01*
X44472997Y-62727003D02*
X47000000Y-62727003D01*
X27940000Y-93980000D02*
X31077010Y-90842990D01*
X27940000Y-96520000D02*
X31354020Y-93105980D01*
X31354020Y-93105980D02*
X31354020Y-76237730D01*
X43991750Y-63600000D02*
X47000000Y-63600000D01*
X31354020Y-76237730D02*
X43991750Y-63600000D01*
X27940000Y-99060000D02*
X31631030Y-95368970D01*
X31631030Y-76670656D02*
X41350843Y-66950843D01*
X31631030Y-95368970D02*
X31631030Y-76670656D01*
X46150843Y-66950843D02*
X46200000Y-67000000D01*
X41350843Y-66950843D02*
X46150843Y-66950843D01*
X27940000Y-101600000D02*
X31908040Y-97631960D01*
X31908040Y-97631960D02*
X31908040Y-76785396D01*
X31908040Y-76785396D02*
X40846718Y-67846718D01*
X40893436Y-67800000D02*
X46200000Y-67800000D01*
X40846718Y-67846718D02*
X40893436Y-67800000D01*
X46200000Y-68600000D02*
X40485186Y-68600000D01*
X40485186Y-68600000D02*
X32185050Y-76900136D01*
X32185050Y-99894950D02*
X27940000Y-104140000D01*
X32185050Y-76900136D02*
X32185050Y-99894950D01*
X43000000Y-81000000D02*
X43000000Y-78800000D01*
X44000000Y-106000000D02*
X44000000Y-104350000D01*
X40097999Y-76102001D02*
X42200000Y-74000000D01*
X40097999Y-100447999D02*
X40097999Y-76102001D01*
X44000000Y-104350000D02*
X40097999Y-100447999D01*
X40600000Y-80600000D02*
X40600000Y-79000000D01*
X49400000Y-89400000D02*
X40600000Y-80600000D01*
X50000000Y-89257038D02*
X41742962Y-81000000D01*
X50000000Y-91200000D02*
X50000000Y-89257038D01*
X41742962Y-81000000D02*
X41742962Y-80942962D01*
X41400000Y-80600000D02*
X41400000Y-79000000D01*
X41742962Y-80942962D02*
X41400000Y-80600000D01*
D18*
X34955914Y-70839995D02*
X34955717Y-70839519D01*
X34983554Y-70797857D01*
X35054036Y-70627697D01*
X35089968Y-70447057D01*
X35089968Y-70262879D01*
X35054036Y-70082239D01*
X35049940Y-70072350D01*
X35126262Y-69996028D01*
X35228586Y-69842889D01*
X35299068Y-69672729D01*
X35335000Y-69492089D01*
X35335000Y-69307911D01*
X35299068Y-69127271D01*
X35257536Y-69027003D01*
X35299068Y-68926735D01*
X35335000Y-68746095D01*
X35335000Y-68561917D01*
X35299068Y-68381277D01*
X35261469Y-68290505D01*
X35299068Y-68199732D01*
X35335000Y-68019092D01*
X35335000Y-67834914D01*
X35299068Y-67654274D01*
X35261469Y-67563502D01*
X35299068Y-67472729D01*
X35335000Y-67292089D01*
X35335000Y-67107911D01*
X35299068Y-66927271D01*
X35228586Y-66757111D01*
X35126262Y-66603972D01*
X34996028Y-66473738D01*
X34842889Y-66371414D01*
X34672729Y-66300932D01*
X34492089Y-66265000D01*
X34307911Y-66265000D01*
X34127271Y-66300932D01*
X33957111Y-66371414D01*
X33803972Y-66473738D01*
X33673738Y-66603972D01*
X33571414Y-66757111D01*
X33500932Y-66927271D01*
X33465000Y-67107911D01*
X33465000Y-67130909D01*
X29428072Y-71167837D01*
X29428072Y-70270000D01*
X29415812Y-70145518D01*
X29379502Y-70025820D01*
X29320537Y-69915506D01*
X29241185Y-69818815D01*
X29144494Y-69739463D01*
X29034180Y-69680498D01*
X28914482Y-69644188D01*
X28790000Y-69631928D01*
X27090000Y-69631928D01*
X26965518Y-69644188D01*
X26845820Y-69680498D01*
X26735506Y-69739463D01*
X26638815Y-69818815D01*
X26559463Y-69915506D01*
X26500498Y-70025820D01*
X26464188Y-70145518D01*
X26451928Y-70270000D01*
X26451928Y-71970000D01*
X26464188Y-72094482D01*
X26500498Y-72214180D01*
X26559463Y-72324494D01*
X26638815Y-72421185D01*
X26735506Y-72500537D01*
X26845820Y-72559502D01*
X26918380Y-72581513D01*
X26786525Y-72713368D01*
X26624010Y-72956589D01*
X26512068Y-73226842D01*
X26455000Y-73513740D01*
X26455000Y-73806260D01*
X26512068Y-74093158D01*
X26624010Y-74363411D01*
X26786525Y-74606632D01*
X26993368Y-74813475D01*
X27167760Y-74930000D01*
X26993368Y-75046525D01*
X26786525Y-75253368D01*
X26624010Y-75496589D01*
X26512068Y-75766842D01*
X26455000Y-76053740D01*
X26455000Y-76346260D01*
X26512068Y-76633158D01*
X26624010Y-76903411D01*
X26786525Y-77146632D01*
X26993368Y-77353475D01*
X27167760Y-77470000D01*
X26993368Y-77586525D01*
X26786525Y-77793368D01*
X26624010Y-78036589D01*
X26512068Y-78306842D01*
X26455000Y-78593740D01*
X26455000Y-78886260D01*
X26512068Y-79173158D01*
X26624010Y-79443411D01*
X26786525Y-79686632D01*
X26993368Y-79893475D01*
X27167760Y-80010000D01*
X26993368Y-80126525D01*
X26786525Y-80333368D01*
X26624010Y-80576589D01*
X26512068Y-80846842D01*
X26455000Y-81133740D01*
X26455000Y-81426260D01*
X26512068Y-81713158D01*
X26624010Y-81983411D01*
X26786525Y-82226632D01*
X26993368Y-82433475D01*
X27167760Y-82550000D01*
X26993368Y-82666525D01*
X26786525Y-82873368D01*
X26624010Y-83116589D01*
X26512068Y-83386842D01*
X26455000Y-83673740D01*
X26455000Y-83966260D01*
X26512068Y-84253158D01*
X26624010Y-84523411D01*
X26786525Y-84766632D01*
X26993368Y-84973475D01*
X27167760Y-85090000D01*
X26993368Y-85206525D01*
X26786525Y-85413368D01*
X26624010Y-85656589D01*
X26512068Y-85926842D01*
X26455000Y-86213740D01*
X26455000Y-86506260D01*
X26512068Y-86793158D01*
X26624010Y-87063411D01*
X26786525Y-87306632D01*
X26993368Y-87513475D01*
X27167760Y-87630000D01*
X26993368Y-87746525D01*
X26786525Y-87953368D01*
X26624010Y-88196589D01*
X26512068Y-88466842D01*
X26455000Y-88753740D01*
X26455000Y-89046260D01*
X26512068Y-89333158D01*
X26624010Y-89603411D01*
X26786525Y-89846632D01*
X26993368Y-90053475D01*
X27167760Y-90170000D01*
X26993368Y-90286525D01*
X26786525Y-90493368D01*
X26624010Y-90736589D01*
X26512068Y-91006842D01*
X26455000Y-91293740D01*
X26455000Y-91586260D01*
X26512068Y-91873158D01*
X26624010Y-92143411D01*
X26786525Y-92386632D01*
X26993368Y-92593475D01*
X27167760Y-92710000D01*
X26993368Y-92826525D01*
X26786525Y-93033368D01*
X26624010Y-93276589D01*
X26512068Y-93546842D01*
X26455000Y-93833740D01*
X26455000Y-94126260D01*
X26512068Y-94413158D01*
X26624010Y-94683411D01*
X26786525Y-94926632D01*
X26993368Y-95133475D01*
X27167760Y-95250000D01*
X26993368Y-95366525D01*
X26786525Y-95573368D01*
X26624010Y-95816589D01*
X26512068Y-96086842D01*
X26455000Y-96373740D01*
X26455000Y-96666260D01*
X26512068Y-96953158D01*
X26624010Y-97223411D01*
X26786525Y-97466632D01*
X26993368Y-97673475D01*
X27167760Y-97790000D01*
X26993368Y-97906525D01*
X26786525Y-98113368D01*
X26624010Y-98356589D01*
X26512068Y-98626842D01*
X26455000Y-98913740D01*
X26455000Y-99206260D01*
X26512068Y-99493158D01*
X26624010Y-99763411D01*
X26786525Y-100006632D01*
X26993368Y-100213475D01*
X27167760Y-100330000D01*
X26993368Y-100446525D01*
X26786525Y-100653368D01*
X26624010Y-100896589D01*
X26512068Y-101166842D01*
X26455000Y-101453740D01*
X26455000Y-101746260D01*
X26512068Y-102033158D01*
X26624010Y-102303411D01*
X26786525Y-102546632D01*
X26993368Y-102753475D01*
X27167760Y-102870000D01*
X26993368Y-102986525D01*
X26786525Y-103193368D01*
X26624010Y-103436589D01*
X26512068Y-103706842D01*
X26455000Y-103993740D01*
X26455000Y-104286260D01*
X26512068Y-104573158D01*
X26624010Y-104843411D01*
X26786525Y-105086632D01*
X26993368Y-105293475D01*
X27175534Y-105415195D01*
X27058645Y-105484822D01*
X26842412Y-105679731D01*
X26668359Y-105913080D01*
X26543175Y-106175901D01*
X26498524Y-106323110D01*
X26619845Y-106553000D01*
X27813000Y-106553000D01*
X27813000Y-106533000D01*
X28067000Y-106533000D01*
X28067000Y-106553000D01*
X29260155Y-106553000D01*
X29381476Y-106323110D01*
X29336825Y-106175901D01*
X29211641Y-105913080D01*
X29037588Y-105679731D01*
X28821355Y-105484822D01*
X28704466Y-105415195D01*
X28886632Y-105293475D01*
X29093475Y-105086632D01*
X29255990Y-104843411D01*
X29367932Y-104573158D01*
X29425000Y-104286260D01*
X29425000Y-103993740D01*
X29369478Y-103714613D01*
X32662434Y-100421658D01*
X32689525Y-100399425D01*
X32778250Y-100291313D01*
X32844178Y-100167970D01*
X32884777Y-100034134D01*
X32895050Y-99929827D01*
X32895050Y-99929826D01*
X32898485Y-99894951D01*
X32895050Y-99860076D01*
X32895050Y-77194227D01*
X40779277Y-69310000D01*
X42967710Y-69310000D01*
X42873738Y-69403972D01*
X42771414Y-69557111D01*
X42700932Y-69727271D01*
X42665000Y-69907911D01*
X42665000Y-70092089D01*
X42700932Y-70272729D01*
X42771414Y-70442889D01*
X42873738Y-70596028D01*
X42890001Y-70612291D01*
X42890000Y-73367710D01*
X42796028Y-73273738D01*
X42642889Y-73171414D01*
X42472729Y-73100932D01*
X42292089Y-73065000D01*
X42107911Y-73065000D01*
X41927271Y-73100932D01*
X41757111Y-73171414D01*
X41603972Y-73273738D01*
X41473738Y-73403972D01*
X41371414Y-73557111D01*
X41300932Y-73727271D01*
X41265000Y-73907911D01*
X41265000Y-73930908D01*
X39620616Y-75575293D01*
X39593525Y-75597526D01*
X39571292Y-75624617D01*
X39504800Y-75705638D01*
X39438871Y-75828982D01*
X39398273Y-75962817D01*
X39384564Y-76102001D01*
X39388000Y-76136886D01*
X39387999Y-100413124D01*
X39384564Y-100447999D01*
X39387999Y-100482874D01*
X39387999Y-100482875D01*
X39398272Y-100587182D01*
X39438871Y-100721018D01*
X39504799Y-100844361D01*
X39593524Y-100952473D01*
X39620616Y-100974707D01*
X42496699Y-103850790D01*
X42486928Y-103950000D01*
X42486928Y-104750000D01*
X42503992Y-104923254D01*
X42554528Y-105089850D01*
X42636595Y-105243386D01*
X42747038Y-105377962D01*
X42881614Y-105488405D01*
X43035150Y-105570472D01*
X43151287Y-105605702D01*
X43100932Y-105727271D01*
X43065000Y-105907911D01*
X43065000Y-106092089D01*
X43100932Y-106272729D01*
X43171414Y-106442889D01*
X43273738Y-106596028D01*
X43403972Y-106726262D01*
X43557111Y-106828586D01*
X43727271Y-106899068D01*
X43907911Y-106935000D01*
X44092089Y-106935000D01*
X44272729Y-106899068D01*
X44442889Y-106828586D01*
X44596028Y-106726262D01*
X44726262Y-106596028D01*
X44828586Y-106442889D01*
X44899068Y-106272729D01*
X44935000Y-106092089D01*
X44935000Y-105907911D01*
X44899068Y-105727271D01*
X44848713Y-105605702D01*
X44964850Y-105570472D01*
X45118386Y-105488405D01*
X45252962Y-105377962D01*
X45363405Y-105243386D01*
X45445472Y-105089850D01*
X45496008Y-104923254D01*
X45513072Y-104750000D01*
X45513072Y-104207990D01*
X47286928Y-104207990D01*
X47286928Y-104750000D01*
X47303992Y-104923254D01*
X47354528Y-105089850D01*
X47436595Y-105243386D01*
X47547038Y-105377962D01*
X47681614Y-105488405D01*
X47835150Y-105570472D01*
X47951287Y-105605702D01*
X47900932Y-105727271D01*
X47865000Y-105907911D01*
X47865000Y-106092089D01*
X47900932Y-106272729D01*
X47971414Y-106442889D01*
X48073738Y-106596028D01*
X48203972Y-106726262D01*
X48357111Y-106828586D01*
X48527271Y-106899068D01*
X48707911Y-106935000D01*
X48892089Y-106935000D01*
X49072729Y-106899068D01*
X49242889Y-106828586D01*
X49396028Y-106726262D01*
X49526262Y-106596028D01*
X49628586Y-106442889D01*
X49699068Y-106272729D01*
X49735000Y-106092089D01*
X49735000Y-105907911D01*
X49699068Y-105727271D01*
X49648713Y-105605702D01*
X49764850Y-105570472D01*
X49918386Y-105488405D01*
X50052962Y-105377962D01*
X50163405Y-105243386D01*
X50245472Y-105089850D01*
X50249096Y-105077900D01*
X57834965Y-105077900D01*
X57897430Y-105296315D01*
X58001305Y-105498347D01*
X58142599Y-105676232D01*
X58315881Y-105823134D01*
X58514493Y-105933408D01*
X58669190Y-105988964D01*
X58848000Y-105863163D01*
X58848000Y-104897000D01*
X59102000Y-104897000D01*
X59102000Y-105863163D01*
X59280810Y-105988964D01*
X59435507Y-105933408D01*
X59634119Y-105823134D01*
X59807401Y-105676232D01*
X59948695Y-105498347D01*
X60052570Y-105296315D01*
X60115035Y-105077900D01*
X62284965Y-105077900D01*
X62347430Y-105296315D01*
X62451305Y-105498347D01*
X62592599Y-105676232D01*
X62765881Y-105823134D01*
X62964493Y-105933408D01*
X63119190Y-105988964D01*
X63298000Y-105863163D01*
X63298000Y-104897000D01*
X63552000Y-104897000D01*
X63552000Y-105863163D01*
X63730810Y-105988964D01*
X63885507Y-105933408D01*
X64084119Y-105823134D01*
X64257401Y-105676232D01*
X64398695Y-105498347D01*
X64502570Y-105296315D01*
X64565035Y-105077900D01*
X64424772Y-104897000D01*
X63552000Y-104897000D01*
X63298000Y-104897000D01*
X62425228Y-104897000D01*
X62284965Y-105077900D01*
X60115035Y-105077900D01*
X59974772Y-104897000D01*
X59102000Y-104897000D01*
X58848000Y-104897000D01*
X57975228Y-104897000D01*
X57834965Y-105077900D01*
X50249096Y-105077900D01*
X50296008Y-104923254D01*
X50313072Y-104750000D01*
X50313072Y-104000001D01*
X52377711Y-104000001D01*
X52403972Y-104026262D01*
X52557111Y-104128586D01*
X52727271Y-104199068D01*
X52907911Y-104235000D01*
X53092089Y-104235000D01*
X53272729Y-104199068D01*
X53442889Y-104128586D01*
X53596028Y-104026262D01*
X53726262Y-103896028D01*
X53828586Y-103742889D01*
X53899068Y-103572729D01*
X53935000Y-103392089D01*
X53935000Y-103207911D01*
X53899068Y-103027271D01*
X53828586Y-102857111D01*
X53726262Y-102703972D01*
X53596028Y-102573738D01*
X53442889Y-102471414D01*
X53272729Y-102400932D01*
X53092089Y-102365000D01*
X52907911Y-102365000D01*
X52727271Y-102400932D01*
X52557111Y-102471414D01*
X52403972Y-102573738D01*
X52397709Y-102580001D01*
X49894874Y-102580001D01*
X49859999Y-102576566D01*
X49825124Y-102580001D01*
X49825122Y-102580001D01*
X49720815Y-102590274D01*
X49586979Y-102630873D01*
X49463636Y-102696801D01*
X49355524Y-102785526D01*
X49333291Y-102812617D01*
X49083980Y-103061928D01*
X48516019Y-103061928D01*
X48474702Y-103020611D01*
X48452465Y-102993515D01*
X48344353Y-102904790D01*
X48221010Y-102838862D01*
X48087174Y-102798263D01*
X47982867Y-102787990D01*
X47982865Y-102787990D01*
X47947990Y-102784555D01*
X47913115Y-102787990D01*
X44877842Y-102787990D01*
X44627662Y-102537810D01*
X44798254Y-102521008D01*
X44964850Y-102470472D01*
X45118386Y-102388405D01*
X45252962Y-102277962D01*
X45363405Y-102143386D01*
X45394613Y-102085000D01*
X45708982Y-102085000D01*
X45750000Y-102089040D01*
X45791018Y-102085000D01*
X47405387Y-102085000D01*
X47436595Y-102143386D01*
X47547038Y-102277962D01*
X47681614Y-102388405D01*
X47835150Y-102470472D01*
X48001746Y-102521008D01*
X48175000Y-102538072D01*
X49425000Y-102538072D01*
X49598254Y-102521008D01*
X49764850Y-102470472D01*
X49918386Y-102388405D01*
X50052962Y-102277962D01*
X50163405Y-102143386D01*
X50245472Y-101989850D01*
X50296008Y-101823254D01*
X50313072Y-101650000D01*
X50313072Y-100850000D01*
X50296008Y-100676746D01*
X50245472Y-100510150D01*
X50163405Y-100356614D01*
X50052962Y-100222038D01*
X49918386Y-100111595D01*
X49764850Y-100029528D01*
X49598254Y-99978992D01*
X49425000Y-99961928D01*
X48175000Y-99961928D01*
X48001746Y-99978992D01*
X47835150Y-100029528D01*
X47681614Y-100111595D01*
X47547038Y-100222038D01*
X47436595Y-100356614D01*
X47405387Y-100415000D01*
X46535000Y-100415000D01*
X46535000Y-100227404D01*
X46599068Y-100072729D01*
X46635000Y-99892089D01*
X46635000Y-99707911D01*
X46599068Y-99527271D01*
X46528586Y-99357111D01*
X46426262Y-99203972D01*
X46296028Y-99073738D01*
X46142889Y-98971414D01*
X45989578Y-98907911D01*
X54865000Y-98907911D01*
X54865000Y-99092089D01*
X54900932Y-99272729D01*
X54971414Y-99442889D01*
X55073738Y-99596028D01*
X55203972Y-99726262D01*
X55357111Y-99828586D01*
X55527271Y-99899068D01*
X55707911Y-99935000D01*
X55730909Y-99935000D01*
X57065000Y-101269091D01*
X57065000Y-101292089D01*
X57100932Y-101472729D01*
X57171414Y-101642889D01*
X57273738Y-101796028D01*
X57403972Y-101926262D01*
X57557111Y-102028586D01*
X57727271Y-102099068D01*
X57907911Y-102135000D01*
X58092089Y-102135000D01*
X58272729Y-102099068D01*
X58442889Y-102028586D01*
X58596028Y-101926262D01*
X58726262Y-101796028D01*
X58828586Y-101642889D01*
X58899068Y-101472729D01*
X58935000Y-101292089D01*
X58935000Y-101107911D01*
X58899068Y-100927271D01*
X58828586Y-100757111D01*
X58726262Y-100603972D01*
X58596028Y-100473738D01*
X58442889Y-100371414D01*
X58272729Y-100300932D01*
X58092089Y-100265000D01*
X58069091Y-100265000D01*
X56735000Y-98930909D01*
X56735000Y-98907911D01*
X56699068Y-98727271D01*
X56628586Y-98557111D01*
X56526262Y-98403972D01*
X56396028Y-98273738D01*
X56242889Y-98171414D01*
X56072729Y-98100932D01*
X55892089Y-98065000D01*
X55707911Y-98065000D01*
X55527271Y-98100932D01*
X55357111Y-98171414D01*
X55203972Y-98273738D01*
X55073738Y-98403972D01*
X54971414Y-98557111D01*
X54900932Y-98727271D01*
X54865000Y-98907911D01*
X45989578Y-98907911D01*
X45972729Y-98900932D01*
X45792089Y-98865000D01*
X45607911Y-98865000D01*
X45427271Y-98900932D01*
X45257111Y-98971414D01*
X45103972Y-99073738D01*
X44973738Y-99203972D01*
X44871414Y-99357111D01*
X44800932Y-99527271D01*
X44765000Y-99707911D01*
X44765000Y-99892089D01*
X44781967Y-99977388D01*
X44625000Y-99961928D01*
X43632990Y-99961928D01*
X43632990Y-95507911D01*
X56065000Y-95507911D01*
X56065000Y-95692089D01*
X56100932Y-95872729D01*
X56171414Y-96042889D01*
X56273738Y-96196028D01*
X56290000Y-96212290D01*
X56290000Y-96365125D01*
X56286565Y-96400000D01*
X56290000Y-96434875D01*
X56290000Y-96434876D01*
X56300273Y-96539183D01*
X56340872Y-96673019D01*
X56406800Y-96796362D01*
X56495525Y-96904474D01*
X56522617Y-96926708D01*
X58265000Y-98669091D01*
X58265000Y-98692089D01*
X58300932Y-98872729D01*
X58371414Y-99042889D01*
X58473738Y-99196028D01*
X58603972Y-99326262D01*
X58757111Y-99428586D01*
X58927271Y-99499068D01*
X59107911Y-99535000D01*
X59292089Y-99535000D01*
X59472729Y-99499068D01*
X59642889Y-99428586D01*
X59796028Y-99326262D01*
X59926262Y-99196028D01*
X60028586Y-99042889D01*
X60099068Y-98872729D01*
X60135000Y-98692089D01*
X60135000Y-98507911D01*
X60099068Y-98327271D01*
X60028586Y-98157111D01*
X59926262Y-98003972D01*
X59796028Y-97873738D01*
X59642889Y-97771414D01*
X59472729Y-97700932D01*
X59292089Y-97665000D01*
X59269091Y-97665000D01*
X57755845Y-96151754D01*
X57828586Y-96042889D01*
X57899068Y-95872729D01*
X57935000Y-95692089D01*
X57935000Y-95507911D01*
X57899068Y-95327271D01*
X57828586Y-95157111D01*
X57726262Y-95003972D01*
X57596028Y-94873738D01*
X57442889Y-94771414D01*
X57272729Y-94700932D01*
X57092089Y-94665000D01*
X56907911Y-94665000D01*
X56727271Y-94700932D01*
X56557111Y-94771414D01*
X56403972Y-94873738D01*
X56273738Y-95003972D01*
X56171414Y-95157111D01*
X56100932Y-95327271D01*
X56065000Y-95507911D01*
X43632990Y-95507911D01*
X43632990Y-88971101D01*
X44069092Y-88535000D01*
X44092089Y-88535000D01*
X44272729Y-88499068D01*
X44442889Y-88428586D01*
X44596028Y-88326262D01*
X44726262Y-88196028D01*
X44828586Y-88042889D01*
X44899068Y-87872729D01*
X44935000Y-87692089D01*
X44935000Y-87507911D01*
X44899068Y-87327271D01*
X44828586Y-87157111D01*
X44726262Y-87003972D01*
X44596028Y-86873738D01*
X44442889Y-86771414D01*
X44272729Y-86700932D01*
X44092089Y-86665000D01*
X43907911Y-86665000D01*
X43727271Y-86700932D01*
X43557111Y-86771414D01*
X43403972Y-86873738D01*
X43273738Y-87003972D01*
X43171414Y-87157111D01*
X43100932Y-87327271D01*
X43065000Y-87507911D01*
X43065000Y-87530908D01*
X42445607Y-88150302D01*
X42418515Y-88172536D01*
X42329790Y-88280648D01*
X42263862Y-88403991D01*
X42223263Y-88537827D01*
X42212990Y-88642133D01*
X42209555Y-88677010D01*
X42212990Y-88711885D01*
X42212991Y-101558900D01*
X40807999Y-100153908D01*
X40807999Y-81812090D01*
X48465000Y-89469092D01*
X48465000Y-89492089D01*
X48500932Y-89672729D01*
X48571414Y-89842889D01*
X48673738Y-89996028D01*
X48803972Y-90126262D01*
X48957111Y-90228586D01*
X49127271Y-90299068D01*
X49290000Y-90331437D01*
X49290000Y-90587710D01*
X49273738Y-90603972D01*
X49171414Y-90757111D01*
X49100932Y-90927271D01*
X49065000Y-91107911D01*
X49065000Y-91292089D01*
X49100932Y-91472729D01*
X49171414Y-91642889D01*
X49273738Y-91796028D01*
X49403972Y-91926262D01*
X49557111Y-92028586D01*
X49727271Y-92099068D01*
X49907911Y-92135000D01*
X50092089Y-92135000D01*
X50272729Y-92099068D01*
X50442889Y-92028586D01*
X50596028Y-91926262D01*
X50726262Y-91796028D01*
X50828586Y-91642889D01*
X50899068Y-91472729D01*
X50935000Y-91292089D01*
X50935000Y-91107911D01*
X50899068Y-90927271D01*
X50828586Y-90757111D01*
X50726262Y-90603972D01*
X50710000Y-90587710D01*
X50710000Y-89291912D01*
X50713435Y-89257037D01*
X50708183Y-89203717D01*
X50699727Y-89117854D01*
X50659128Y-88984018D01*
X50593200Y-88860675D01*
X50504475Y-88752563D01*
X50477384Y-88730330D01*
X44722467Y-82975414D01*
X44796028Y-82926262D01*
X44926262Y-82796028D01*
X45028586Y-82642889D01*
X45099068Y-82472729D01*
X45135000Y-82292089D01*
X45135000Y-82107911D01*
X45099068Y-81927271D01*
X45028586Y-81757111D01*
X44926262Y-81603972D01*
X44796028Y-81473738D01*
X44642889Y-81371414D01*
X44472729Y-81300932D01*
X44310000Y-81268563D01*
X44310000Y-80091914D01*
X44327271Y-80099068D01*
X44507911Y-80135000D01*
X44530909Y-80135000D01*
X51304318Y-86908409D01*
X51326555Y-86935505D01*
X51434667Y-87024230D01*
X51558010Y-87090158D01*
X51691846Y-87130757D01*
X51796153Y-87141030D01*
X51796155Y-87141030D01*
X51831030Y-87144465D01*
X51865905Y-87141030D01*
X63949226Y-87141030D01*
X63878815Y-87198815D01*
X63799463Y-87295506D01*
X63740498Y-87405820D01*
X63704188Y-87525518D01*
X63691928Y-87650000D01*
X63691928Y-89350000D01*
X63704188Y-89474482D01*
X63740498Y-89594180D01*
X63799463Y-89704494D01*
X63878815Y-89801185D01*
X63975506Y-89880537D01*
X64085820Y-89939502D01*
X64158380Y-89961513D01*
X64026525Y-90093368D01*
X63864010Y-90336589D01*
X63752068Y-90606842D01*
X63695000Y-90893740D01*
X63695000Y-91186260D01*
X63752068Y-91473158D01*
X63864010Y-91743411D01*
X64026525Y-91986632D01*
X64233368Y-92193475D01*
X64407760Y-92310000D01*
X64233368Y-92426525D01*
X64026525Y-92633368D01*
X63864010Y-92876589D01*
X63752068Y-93146842D01*
X63695000Y-93433740D01*
X63695000Y-93726260D01*
X63752068Y-94013158D01*
X63864010Y-94283411D01*
X64026525Y-94526632D01*
X64233368Y-94733475D01*
X64476589Y-94895990D01*
X64746842Y-95007932D01*
X65033740Y-95065000D01*
X65326260Y-95065000D01*
X65613158Y-95007932D01*
X65883411Y-94895990D01*
X66126632Y-94733475D01*
X66333475Y-94526632D01*
X66495990Y-94283411D01*
X66607932Y-94013158D01*
X66665000Y-93726260D01*
X66665000Y-93433740D01*
X66607932Y-93146842D01*
X66495990Y-92876589D01*
X66333475Y-92633368D01*
X66126632Y-92426525D01*
X65952240Y-92310000D01*
X66126632Y-92193475D01*
X66333475Y-91986632D01*
X66495990Y-91743411D01*
X66607932Y-91473158D01*
X66665000Y-91186260D01*
X66665000Y-90893740D01*
X66607932Y-90606842D01*
X66495990Y-90336589D01*
X66333475Y-90093368D01*
X66201620Y-89961513D01*
X66274180Y-89939502D01*
X66384494Y-89880537D01*
X66481185Y-89801185D01*
X66560537Y-89704494D01*
X66619502Y-89594180D01*
X66655812Y-89474482D01*
X66668072Y-89350000D01*
X66668072Y-88872163D01*
X67490001Y-89694092D01*
X67490000Y-93565125D01*
X67486565Y-93600000D01*
X67490000Y-93634875D01*
X67490000Y-93634876D01*
X67500273Y-93739183D01*
X67540872Y-93873019D01*
X67606800Y-93996362D01*
X67695525Y-94104474D01*
X67722617Y-94126708D01*
X74770522Y-101174614D01*
X74715000Y-101453740D01*
X74715000Y-101746260D01*
X74772068Y-102033158D01*
X74884010Y-102303411D01*
X75046525Y-102546632D01*
X75079894Y-102580001D01*
X55802291Y-102580001D01*
X55796028Y-102573738D01*
X55642889Y-102471414D01*
X55472729Y-102400932D01*
X55292089Y-102365000D01*
X55107911Y-102365000D01*
X54927271Y-102400932D01*
X54757111Y-102471414D01*
X54603972Y-102573738D01*
X54473738Y-102703972D01*
X54371414Y-102857111D01*
X54300932Y-103027271D01*
X54265000Y-103207911D01*
X54265000Y-103392089D01*
X54300932Y-103572729D01*
X54371414Y-103742889D01*
X54473738Y-103896028D01*
X54603972Y-104026262D01*
X54757111Y-104128586D01*
X54927271Y-104199068D01*
X55107911Y-104235000D01*
X55292089Y-104235000D01*
X55472729Y-104199068D01*
X55642889Y-104128586D01*
X55796028Y-104026262D01*
X55822289Y-104000001D01*
X58034389Y-104000001D01*
X58001305Y-104041653D01*
X57897430Y-104243685D01*
X57834965Y-104462100D01*
X57975228Y-104643000D01*
X58848000Y-104643000D01*
X58848000Y-104623000D01*
X59102000Y-104623000D01*
X59102000Y-104643000D01*
X59974772Y-104643000D01*
X60115035Y-104462100D01*
X60052570Y-104243685D01*
X59948695Y-104041653D01*
X59915611Y-104000001D01*
X62484389Y-104000001D01*
X62451305Y-104041653D01*
X62347430Y-104243685D01*
X62284965Y-104462100D01*
X62425228Y-104643000D01*
X63298000Y-104643000D01*
X63298000Y-104623000D01*
X63552000Y-104623000D01*
X63552000Y-104643000D01*
X64424772Y-104643000D01*
X64565035Y-104462100D01*
X64502570Y-104243685D01*
X64398695Y-104041653D01*
X64365611Y-104000001D01*
X74715000Y-104000001D01*
X74715000Y-104286260D01*
X74772068Y-104573158D01*
X74884010Y-104843411D01*
X75046525Y-105086632D01*
X75178380Y-105218487D01*
X75105820Y-105240498D01*
X74995506Y-105299463D01*
X74898815Y-105378815D01*
X74819463Y-105475506D01*
X74760498Y-105585820D01*
X74724188Y-105705518D01*
X74711928Y-105830000D01*
X74711928Y-107530000D01*
X74724188Y-107654482D01*
X74760498Y-107774180D01*
X74819463Y-107884494D01*
X74898815Y-107981185D01*
X74995506Y-108060537D01*
X75105820Y-108119502D01*
X75225518Y-108155812D01*
X75350000Y-108168072D01*
X77050000Y-108168072D01*
X77174482Y-108155812D01*
X77294180Y-108119502D01*
X77404494Y-108060537D01*
X77501185Y-107981185D01*
X77580537Y-107884494D01*
X77639502Y-107774180D01*
X77675812Y-107654482D01*
X77688072Y-107530000D01*
X77688072Y-105830000D01*
X77675812Y-105705518D01*
X77639502Y-105585820D01*
X77580537Y-105475506D01*
X77501185Y-105378815D01*
X77404494Y-105299463D01*
X77294180Y-105240498D01*
X77221620Y-105218487D01*
X77353475Y-105086632D01*
X77515990Y-104843411D01*
X77627932Y-104573158D01*
X77685000Y-104286260D01*
X77685000Y-103993740D01*
X77627932Y-103706842D01*
X77515990Y-103436589D01*
X77353475Y-103193368D01*
X77146632Y-102986525D01*
X76972240Y-102870000D01*
X77146632Y-102753475D01*
X77353475Y-102546632D01*
X77515990Y-102303411D01*
X77627932Y-102033158D01*
X77685000Y-101746260D01*
X77685000Y-101453740D01*
X77627932Y-101166842D01*
X77515990Y-100896589D01*
X77353475Y-100653368D01*
X77146632Y-100446525D01*
X76972240Y-100330000D01*
X77146632Y-100213475D01*
X77353475Y-100006632D01*
X77515990Y-99763411D01*
X77627932Y-99493158D01*
X77685000Y-99206260D01*
X77685000Y-98913740D01*
X77627932Y-98626842D01*
X77515990Y-98356589D01*
X77353475Y-98113368D01*
X77146632Y-97906525D01*
X76972240Y-97790000D01*
X77146632Y-97673475D01*
X77353475Y-97466632D01*
X77515990Y-97223411D01*
X77627932Y-96953158D01*
X77685000Y-96666260D01*
X77685000Y-96373740D01*
X77627932Y-96086842D01*
X77515990Y-95816589D01*
X77353475Y-95573368D01*
X77146632Y-95366525D01*
X76972240Y-95250000D01*
X77146632Y-95133475D01*
X77353475Y-94926632D01*
X77515990Y-94683411D01*
X77627932Y-94413158D01*
X77685000Y-94126260D01*
X77685000Y-93833740D01*
X77627932Y-93546842D01*
X77515990Y-93276589D01*
X77353475Y-93033368D01*
X77146632Y-92826525D01*
X76972240Y-92710000D01*
X77146632Y-92593475D01*
X77353475Y-92386632D01*
X77515990Y-92143411D01*
X77627932Y-91873158D01*
X77685000Y-91586260D01*
X77685000Y-91293740D01*
X77627932Y-91006842D01*
X77515990Y-90736589D01*
X77353475Y-90493368D01*
X77146632Y-90286525D01*
X76972240Y-90170000D01*
X77146632Y-90053475D01*
X77353475Y-89846632D01*
X77515990Y-89603411D01*
X77627932Y-89333158D01*
X77685000Y-89046260D01*
X77685000Y-88753740D01*
X77627932Y-88466842D01*
X77515990Y-88196589D01*
X77353475Y-87953368D01*
X77146632Y-87746525D01*
X76972240Y-87630000D01*
X77146632Y-87513475D01*
X77353475Y-87306632D01*
X77515990Y-87063411D01*
X77627932Y-86793158D01*
X77685000Y-86506260D01*
X77685000Y-86213740D01*
X77627932Y-85926842D01*
X77515990Y-85656589D01*
X77353475Y-85413368D01*
X77146632Y-85206525D01*
X76972240Y-85090000D01*
X77146632Y-84973475D01*
X77353475Y-84766632D01*
X77515990Y-84523411D01*
X77627932Y-84253158D01*
X77685000Y-83966260D01*
X77685000Y-83673740D01*
X77627932Y-83386842D01*
X77515990Y-83116589D01*
X77353475Y-82873368D01*
X77146632Y-82666525D01*
X76972240Y-82550000D01*
X77146632Y-82433475D01*
X77353475Y-82226632D01*
X77515990Y-81983411D01*
X77627932Y-81713158D01*
X77685000Y-81426260D01*
X77685000Y-81133740D01*
X77627932Y-80846842D01*
X77515990Y-80576589D01*
X77353475Y-80333368D01*
X77146632Y-80126525D01*
X76972240Y-80010000D01*
X77146632Y-79893475D01*
X77353475Y-79686632D01*
X77515990Y-79443411D01*
X77627932Y-79173158D01*
X77685000Y-78886260D01*
X77685000Y-78593740D01*
X77627932Y-78306842D01*
X77515990Y-78036589D01*
X77353475Y-77793368D01*
X77146632Y-77586525D01*
X76972240Y-77470000D01*
X77146632Y-77353475D01*
X77353475Y-77146632D01*
X77515990Y-76903411D01*
X77627932Y-76633158D01*
X77685000Y-76346260D01*
X77685000Y-76053740D01*
X77627932Y-75766842D01*
X77515990Y-75496589D01*
X77353475Y-75253368D01*
X77146632Y-75046525D01*
X76972240Y-74930000D01*
X77146632Y-74813475D01*
X77353475Y-74606632D01*
X77515990Y-74363411D01*
X77627932Y-74093158D01*
X77685000Y-73806260D01*
X77685000Y-73513740D01*
X77627932Y-73226842D01*
X77515990Y-72956589D01*
X77353475Y-72713368D01*
X77146632Y-72506525D01*
X76964466Y-72384805D01*
X77081355Y-72315178D01*
X77297588Y-72120269D01*
X77471641Y-71886920D01*
X77596825Y-71624099D01*
X77641476Y-71476890D01*
X77520155Y-71247000D01*
X76327000Y-71247000D01*
X76327000Y-71267000D01*
X76073000Y-71267000D01*
X76073000Y-71247000D01*
X74879845Y-71247000D01*
X74849186Y-71305095D01*
X74307201Y-70763110D01*
X74758524Y-70763110D01*
X74879845Y-70993000D01*
X76073000Y-70993000D01*
X76073000Y-69799186D01*
X76327000Y-69799186D01*
X76327000Y-70993000D01*
X77520155Y-70993000D01*
X77641476Y-70763110D01*
X77596825Y-70615901D01*
X77471641Y-70353080D01*
X77297588Y-70119731D01*
X77081355Y-69924822D01*
X76831252Y-69775843D01*
X76556891Y-69678519D01*
X76327000Y-69799186D01*
X76073000Y-69799186D01*
X75843109Y-69678519D01*
X75568748Y-69775843D01*
X75318645Y-69924822D01*
X75102412Y-70119731D01*
X74928359Y-70353080D01*
X74803175Y-70615901D01*
X74758524Y-70763110D01*
X74307201Y-70763110D01*
X73585414Y-70041323D01*
X73533199Y-69943636D01*
X73466707Y-69862615D01*
X73444475Y-69835525D01*
X73417384Y-69813292D01*
X72726712Y-69122621D01*
X72704475Y-69095525D01*
X72596363Y-69006800D01*
X72473020Y-68940872D01*
X72339184Y-68900273D01*
X72234877Y-68890000D01*
X72234875Y-68890000D01*
X72200000Y-68886565D01*
X72165125Y-68890000D01*
X68212741Y-68890000D01*
X68498019Y-68848599D01*
X68773747Y-68750919D01*
X68911157Y-68677472D01*
X68988792Y-68428397D01*
X68140000Y-67579605D01*
X67291208Y-68428397D01*
X67368843Y-68677472D01*
X67632883Y-68803371D01*
X67916411Y-68875339D01*
X68196844Y-68890000D01*
X63132741Y-68890000D01*
X63418019Y-68848599D01*
X63693747Y-68750919D01*
X63831157Y-68677472D01*
X63908792Y-68428397D01*
X63060000Y-67579605D01*
X62211208Y-68428397D01*
X62288843Y-68677472D01*
X62552883Y-68803371D01*
X62836411Y-68875339D01*
X63116844Y-68890000D01*
X60592741Y-68890000D01*
X60878019Y-68848599D01*
X61153747Y-68750919D01*
X61291157Y-68677472D01*
X61368792Y-68428397D01*
X60520000Y-67579605D01*
X59671208Y-68428397D01*
X59748843Y-68677472D01*
X60012883Y-68803371D01*
X60296411Y-68875339D01*
X60576844Y-68890000D01*
X51812290Y-68890000D01*
X51796028Y-68873738D01*
X51642889Y-68771414D01*
X51472729Y-68700932D01*
X51292089Y-68665000D01*
X51107911Y-68665000D01*
X50927271Y-68700932D01*
X50757111Y-68771414D01*
X50603972Y-68873738D01*
X50473738Y-69003972D01*
X50371414Y-69157111D01*
X50300932Y-69327271D01*
X50265000Y-69507911D01*
X50265000Y-69692089D01*
X50300932Y-69872729D01*
X50353649Y-70000000D01*
X50300932Y-70127271D01*
X50265000Y-70307911D01*
X50265000Y-70492089D01*
X50300932Y-70672729D01*
X50353649Y-70800000D01*
X50300932Y-70927271D01*
X50265000Y-71107911D01*
X50265000Y-71292089D01*
X50300932Y-71472729D01*
X50353649Y-71600000D01*
X50300932Y-71727271D01*
X50265000Y-71907911D01*
X50265000Y-72092089D01*
X50300932Y-72272729D01*
X50353649Y-72400000D01*
X50300932Y-72527271D01*
X50265000Y-72707911D01*
X50265000Y-72892089D01*
X50300932Y-73072729D01*
X50353649Y-73200000D01*
X50300932Y-73327271D01*
X50265000Y-73507911D01*
X50265000Y-73692089D01*
X50300932Y-73872729D01*
X50371414Y-74042889D01*
X50409574Y-74100000D01*
X50371414Y-74157111D01*
X50300932Y-74327271D01*
X50265000Y-74507911D01*
X50265000Y-74692089D01*
X50300932Y-74872729D01*
X50371414Y-75042889D01*
X50473738Y-75196028D01*
X50603972Y-75326262D01*
X50757111Y-75428586D01*
X50927271Y-75499068D01*
X51107911Y-75535000D01*
X51292089Y-75535000D01*
X51472729Y-75499068D01*
X51642889Y-75428586D01*
X51796028Y-75326262D01*
X51812290Y-75310000D01*
X61605909Y-75310000D01*
X74770522Y-88474614D01*
X74715000Y-88753740D01*
X74715000Y-88950908D01*
X70526712Y-84762621D01*
X70504475Y-84735525D01*
X70396363Y-84646800D01*
X70273020Y-84580872D01*
X70139184Y-84540273D01*
X70034877Y-84530000D01*
X70034875Y-84530000D01*
X70000000Y-84526565D01*
X69965125Y-84530000D01*
X54334092Y-84530000D01*
X48335000Y-78530909D01*
X48335000Y-78507911D01*
X48299068Y-78327271D01*
X48228586Y-78157111D01*
X48126262Y-78003972D01*
X47996028Y-77873738D01*
X47842889Y-77771414D01*
X47672729Y-77700932D01*
X47492089Y-77665000D01*
X47307911Y-77665000D01*
X47127271Y-77700932D01*
X46957111Y-77771414D01*
X46803972Y-77873738D01*
X46792697Y-77885013D01*
X46775393Y-77881570D01*
X46721360Y-77800704D01*
X46591126Y-77670470D01*
X46437987Y-77568146D01*
X46267827Y-77497664D01*
X46087187Y-77461732D01*
X45903009Y-77461732D01*
X45722369Y-77497664D01*
X45552209Y-77568146D01*
X45399070Y-77670470D01*
X45268836Y-77800704D01*
X45166512Y-77953843D01*
X45096030Y-78124003D01*
X45060098Y-78304643D01*
X45060098Y-78382913D01*
X45042889Y-78371414D01*
X44872729Y-78300932D01*
X44692089Y-78265000D01*
X44507911Y-78265000D01*
X44327271Y-78300932D01*
X44310000Y-78308086D01*
X44310000Y-70612290D01*
X44326262Y-70596028D01*
X44428586Y-70442889D01*
X44499068Y-70272729D01*
X44535000Y-70092089D01*
X44535000Y-69907911D01*
X44499068Y-69727271D01*
X44428586Y-69557111D01*
X44326262Y-69403972D01*
X44232290Y-69310000D01*
X45587710Y-69310000D01*
X45603972Y-69326262D01*
X45757111Y-69428586D01*
X45927271Y-69499068D01*
X46107911Y-69535000D01*
X46292089Y-69535000D01*
X46472729Y-69499068D01*
X46642889Y-69428586D01*
X46796028Y-69326262D01*
X46926262Y-69196028D01*
X47028586Y-69042889D01*
X47099068Y-68872729D01*
X47135000Y-68692089D01*
X47135000Y-68507911D01*
X47099068Y-68327271D01*
X47046351Y-68200000D01*
X47099068Y-68072729D01*
X47135000Y-67892089D01*
X47135000Y-67707911D01*
X47099068Y-67527271D01*
X47046351Y-67400000D01*
X47099068Y-67272729D01*
X47135000Y-67092089D01*
X47135000Y-66907911D01*
X47113535Y-66800000D01*
X56491928Y-66800000D01*
X56491928Y-68000000D01*
X56508992Y-68173254D01*
X56559528Y-68339850D01*
X56641595Y-68493386D01*
X56752038Y-68627962D01*
X56886614Y-68738405D01*
X57040150Y-68820472D01*
X57206746Y-68871008D01*
X57380000Y-68888072D01*
X58580000Y-68888072D01*
X58753254Y-68871008D01*
X58919850Y-68820472D01*
X59073386Y-68738405D01*
X59207962Y-68627962D01*
X59318405Y-68493386D01*
X59400472Y-68339850D01*
X59433580Y-68230707D01*
X59491603Y-68248792D01*
X60340395Y-67400000D01*
X60699605Y-67400000D01*
X61548397Y-68248792D01*
X61790000Y-68173486D01*
X62031603Y-68248792D01*
X62880395Y-67400000D01*
X62031603Y-66551208D01*
X61790000Y-66626514D01*
X61548397Y-66551208D01*
X60699605Y-67400000D01*
X60340395Y-67400000D01*
X59491603Y-66551208D01*
X59433580Y-66569293D01*
X59400472Y-66460150D01*
X59318405Y-66306614D01*
X59207962Y-66172038D01*
X59073386Y-66061595D01*
X58946392Y-65993715D01*
X59133475Y-65806632D01*
X59250000Y-65632240D01*
X59366525Y-65806632D01*
X59573368Y-66013475D01*
X59746729Y-66129311D01*
X59671208Y-66371603D01*
X60520000Y-67220395D01*
X61368792Y-66371603D01*
X61293271Y-66129311D01*
X61466632Y-66013475D01*
X61673475Y-65806632D01*
X61790000Y-65632240D01*
X61906525Y-65806632D01*
X62113368Y-66013475D01*
X62286729Y-66129311D01*
X62211208Y-66371603D01*
X63060000Y-67220395D01*
X63908792Y-66371603D01*
X63833271Y-66129311D01*
X64006632Y-66013475D01*
X64213475Y-65806632D01*
X64330000Y-65632240D01*
X64446525Y-65806632D01*
X64653368Y-66013475D01*
X64827760Y-66130000D01*
X64653368Y-66246525D01*
X64446525Y-66453368D01*
X64330689Y-66626729D01*
X64088397Y-66551208D01*
X63239605Y-67400000D01*
X64088397Y-68248792D01*
X64330689Y-68173271D01*
X64446525Y-68346632D01*
X64653368Y-68553475D01*
X64896589Y-68715990D01*
X65166842Y-68827932D01*
X65453740Y-68885000D01*
X65746260Y-68885000D01*
X66033158Y-68827932D01*
X66303411Y-68715990D01*
X66546632Y-68553475D01*
X66753475Y-68346632D01*
X66869311Y-68173271D01*
X67111603Y-68248792D01*
X67960395Y-67400000D01*
X68319605Y-67400000D01*
X69168397Y-68248792D01*
X69417472Y-68171157D01*
X69543371Y-67907117D01*
X69615339Y-67623589D01*
X69630611Y-67331469D01*
X69588599Y-67041981D01*
X69490919Y-66766253D01*
X69417472Y-66628843D01*
X69168397Y-66551208D01*
X68319605Y-67400000D01*
X67960395Y-67400000D01*
X67111603Y-66551208D01*
X66869311Y-66626729D01*
X66753475Y-66453368D01*
X66546632Y-66246525D01*
X66372240Y-66130000D01*
X66546632Y-66013475D01*
X66753475Y-65806632D01*
X66870000Y-65632240D01*
X66986525Y-65806632D01*
X67193368Y-66013475D01*
X67366729Y-66129311D01*
X67291208Y-66371603D01*
X68140000Y-67220395D01*
X68988792Y-66371603D01*
X68913271Y-66129311D01*
X69086632Y-66013475D01*
X69293475Y-65806632D01*
X69455990Y-65563411D01*
X69567932Y-65293158D01*
X69625000Y-65006260D01*
X69625000Y-64713740D01*
X69567932Y-64426842D01*
X69455990Y-64156589D01*
X69293475Y-63913368D01*
X69086632Y-63706525D01*
X68843411Y-63544010D01*
X68573158Y-63432068D01*
X68286260Y-63375000D01*
X67993740Y-63375000D01*
X67706842Y-63432068D01*
X67436589Y-63544010D01*
X67193368Y-63706525D01*
X66986525Y-63913368D01*
X66870000Y-64087760D01*
X66753475Y-63913368D01*
X66546632Y-63706525D01*
X66303411Y-63544010D01*
X66033158Y-63432068D01*
X65746260Y-63375000D01*
X65453740Y-63375000D01*
X65166842Y-63432068D01*
X64896589Y-63544010D01*
X64653368Y-63706525D01*
X64446525Y-63913368D01*
X64330000Y-64087760D01*
X64213475Y-63913368D01*
X64006632Y-63706525D01*
X63763411Y-63544010D01*
X63493158Y-63432068D01*
X63206260Y-63375000D01*
X62913740Y-63375000D01*
X62626842Y-63432068D01*
X62356589Y-63544010D01*
X62113368Y-63706525D01*
X61906525Y-63913368D01*
X61790000Y-64087760D01*
X61673475Y-63913368D01*
X61466632Y-63706525D01*
X61223411Y-63544010D01*
X60953158Y-63432068D01*
X60666260Y-63375000D01*
X60373740Y-63375000D01*
X60086842Y-63432068D01*
X59816589Y-63544010D01*
X59573368Y-63706525D01*
X59366525Y-63913368D01*
X59250000Y-64087760D01*
X59133475Y-63913368D01*
X58926632Y-63706525D01*
X58683411Y-63544010D01*
X58413158Y-63432068D01*
X58126260Y-63375000D01*
X57833740Y-63375000D01*
X57546842Y-63432068D01*
X57276589Y-63544010D01*
X57033368Y-63706525D01*
X56826525Y-63913368D01*
X56664010Y-64156589D01*
X56552068Y-64426842D01*
X56495000Y-64713740D01*
X56495000Y-65006260D01*
X56552068Y-65293158D01*
X56664010Y-65563411D01*
X56826525Y-65806632D01*
X57013608Y-65993715D01*
X56886614Y-66061595D01*
X56752038Y-66172038D01*
X56641595Y-66306614D01*
X56559528Y-66460150D01*
X56508992Y-66626746D01*
X56491928Y-66800000D01*
X47113535Y-66800000D01*
X47099068Y-66727271D01*
X47028586Y-66557111D01*
X46926262Y-66403972D01*
X46796028Y-66273738D01*
X46642889Y-66171414D01*
X46472729Y-66100932D01*
X46292089Y-66065000D01*
X46107911Y-66065000D01*
X45927271Y-66100932D01*
X45757111Y-66171414D01*
X45653203Y-66240843D01*
X42354999Y-66240843D01*
X44285842Y-64310000D01*
X46387710Y-64310000D01*
X46403972Y-64326262D01*
X46557111Y-64428586D01*
X46727271Y-64499068D01*
X46907911Y-64535000D01*
X47092089Y-64535000D01*
X47272729Y-64499068D01*
X47442889Y-64428586D01*
X47596028Y-64326262D01*
X47726262Y-64196028D01*
X47828586Y-64042889D01*
X47899068Y-63872729D01*
X47935000Y-63692089D01*
X47935000Y-63507911D01*
X47899068Y-63327271D01*
X47831233Y-63163502D01*
X47899068Y-62999732D01*
X47935000Y-62819092D01*
X47935000Y-62634914D01*
X47899068Y-62454274D01*
X47861469Y-62363501D01*
X47899068Y-62272729D01*
X47935000Y-62092089D01*
X47935000Y-61907911D01*
X47899068Y-61727271D01*
X47852171Y-61614050D01*
X78085950Y-61614050D01*
X78085951Y-108565950D01*
X66463423Y-108565950D01*
X66510000Y-108347000D01*
X66510000Y-107897000D01*
X65502000Y-107897000D01*
X65502000Y-107917000D01*
X65248000Y-107917000D01*
X65248000Y-107897000D01*
X65228000Y-107897000D01*
X65228000Y-107643000D01*
X65248000Y-107643000D01*
X65248000Y-106352046D01*
X65502000Y-106352046D01*
X65502000Y-107643000D01*
X66510000Y-107643000D01*
X66510000Y-107193000D01*
X66463415Y-106974013D01*
X66375003Y-106768322D01*
X66248161Y-106583831D01*
X66087764Y-106427631D01*
X65899976Y-106305724D01*
X65676874Y-106225881D01*
X65502000Y-106352046D01*
X65248000Y-106352046D01*
X65073126Y-106225881D01*
X64850024Y-106305724D01*
X64662236Y-106427631D01*
X64501839Y-106583831D01*
X64374997Y-106768322D01*
X64341491Y-106846274D01*
X64308991Y-106813546D01*
X64301579Y-106807501D01*
X64236936Y-106755527D01*
X64185001Y-106721542D01*
X64133517Y-106686816D01*
X64125072Y-106682326D01*
X64051566Y-106643898D01*
X63994001Y-106620640D01*
X63936768Y-106596582D01*
X63927612Y-106593817D01*
X63848041Y-106570398D01*
X63787031Y-106558760D01*
X63726242Y-106546281D01*
X63716724Y-106545347D01*
X63634120Y-106537830D01*
X63572031Y-106538263D01*
X63509942Y-106537830D01*
X63500424Y-106538763D01*
X63417933Y-106547434D01*
X63357102Y-106559922D01*
X63296143Y-106571550D01*
X63286987Y-106574314D01*
X63207751Y-106598841D01*
X63150507Y-106622904D01*
X63092948Y-106646159D01*
X63084503Y-106650649D01*
X63011540Y-106690100D01*
X62960073Y-106724815D01*
X62908124Y-106758809D01*
X62900712Y-106764854D01*
X62836800Y-106817725D01*
X62793045Y-106861786D01*
X62748689Y-106905224D01*
X62742592Y-106912593D01*
X62690168Y-106976872D01*
X62655812Y-107028583D01*
X62620737Y-107079809D01*
X62616188Y-107088223D01*
X62577248Y-107161459D01*
X62553599Y-107218838D01*
X62529133Y-107275920D01*
X62526305Y-107285057D01*
X62502331Y-107364462D01*
X62490280Y-107425323D01*
X62477363Y-107486095D01*
X62476363Y-107495606D01*
X62468269Y-107578157D01*
X62468269Y-107578164D01*
X62465000Y-107611354D01*
X62465001Y-108535000D01*
X59935000Y-108535000D01*
X59935000Y-107611353D01*
X59931689Y-107577737D01*
X59931689Y-107572220D01*
X59930690Y-107562708D01*
X59926743Y-107527523D01*
X59925088Y-107510717D01*
X59924723Y-107509515D01*
X59921444Y-107480280D01*
X59908528Y-107419514D01*
X59896477Y-107358654D01*
X59893649Y-107349517D01*
X59893648Y-107349512D01*
X59893646Y-107349507D01*
X59868569Y-107270454D01*
X59844108Y-107213382D01*
X59820450Y-107155984D01*
X59815901Y-107147570D01*
X59775941Y-107074884D01*
X59740862Y-107023653D01*
X59706511Y-106971951D01*
X59700415Y-106964581D01*
X59647099Y-106901041D01*
X59602741Y-106857602D01*
X59558991Y-106813546D01*
X59551579Y-106807501D01*
X59486936Y-106755527D01*
X59435001Y-106721542D01*
X59383517Y-106686816D01*
X59375072Y-106682326D01*
X59301566Y-106643898D01*
X59244001Y-106620640D01*
X59186768Y-106596582D01*
X59177612Y-106593817D01*
X59098041Y-106570398D01*
X59037031Y-106558760D01*
X58976242Y-106546281D01*
X58966724Y-106545347D01*
X58884120Y-106537830D01*
X58822031Y-106538263D01*
X58759942Y-106537830D01*
X58750424Y-106538763D01*
X58667933Y-106547434D01*
X58607102Y-106559922D01*
X58546143Y-106571550D01*
X58536987Y-106574314D01*
X58457751Y-106598841D01*
X58400507Y-106622904D01*
X58342948Y-106646159D01*
X58334503Y-106650649D01*
X58261540Y-106690100D01*
X58210073Y-106724815D01*
X58158124Y-106758809D01*
X58150712Y-106764854D01*
X58086800Y-106817725D01*
X58058491Y-106846232D01*
X58025003Y-106768322D01*
X57898161Y-106583831D01*
X57737764Y-106427631D01*
X57549976Y-106305724D01*
X57326874Y-106225881D01*
X57152000Y-106352046D01*
X57152000Y-107643000D01*
X57172000Y-107643000D01*
X57172000Y-107897000D01*
X57152000Y-107897000D01*
X57152000Y-107917000D01*
X56898000Y-107917000D01*
X56898000Y-107897000D01*
X55890000Y-107897000D01*
X55890000Y-108347000D01*
X55936577Y-108565950D01*
X26054050Y-108565950D01*
X26054050Y-107036890D01*
X26498524Y-107036890D01*
X26543175Y-107184099D01*
X26668359Y-107446920D01*
X26842412Y-107680269D01*
X27058645Y-107875178D01*
X27308748Y-108024157D01*
X27583109Y-108121481D01*
X27813000Y-108000814D01*
X27813000Y-106807000D01*
X28067000Y-106807000D01*
X28067000Y-108000814D01*
X28296891Y-108121481D01*
X28571252Y-108024157D01*
X28821355Y-107875178D01*
X29037588Y-107680269D01*
X29211641Y-107446920D01*
X29332585Y-107193000D01*
X55890000Y-107193000D01*
X55890000Y-107643000D01*
X56898000Y-107643000D01*
X56898000Y-106352046D01*
X56723126Y-106225881D01*
X56500024Y-106305724D01*
X56312236Y-106427631D01*
X56151839Y-106583831D01*
X56024997Y-106768322D01*
X55936585Y-106974013D01*
X55890000Y-107193000D01*
X29332585Y-107193000D01*
X29336825Y-107184099D01*
X29381476Y-107036890D01*
X29260155Y-106807000D01*
X28067000Y-106807000D01*
X27813000Y-106807000D01*
X26619845Y-106807000D01*
X26498524Y-107036890D01*
X26054050Y-107036890D01*
X26054050Y-61614050D01*
X44181858Y-61614050D01*
X34955914Y-70839995D01*
G04 #@! TA.AperFunction,Conductor*
D19*
G36*
X34955914Y-70839995D02*
G01*
X34955717Y-70839519D01*
X34983554Y-70797857D01*
X35054036Y-70627697D01*
X35089968Y-70447057D01*
X35089968Y-70262879D01*
X35054036Y-70082239D01*
X35049940Y-70072350D01*
X35126262Y-69996028D01*
X35228586Y-69842889D01*
X35299068Y-69672729D01*
X35335000Y-69492089D01*
X35335000Y-69307911D01*
X35299068Y-69127271D01*
X35257536Y-69027003D01*
X35299068Y-68926735D01*
X35335000Y-68746095D01*
X35335000Y-68561917D01*
X35299068Y-68381277D01*
X35261469Y-68290505D01*
X35299068Y-68199732D01*
X35335000Y-68019092D01*
X35335000Y-67834914D01*
X35299068Y-67654274D01*
X35261469Y-67563502D01*
X35299068Y-67472729D01*
X35335000Y-67292089D01*
X35335000Y-67107911D01*
X35299068Y-66927271D01*
X35228586Y-66757111D01*
X35126262Y-66603972D01*
X34996028Y-66473738D01*
X34842889Y-66371414D01*
X34672729Y-66300932D01*
X34492089Y-66265000D01*
X34307911Y-66265000D01*
X34127271Y-66300932D01*
X33957111Y-66371414D01*
X33803972Y-66473738D01*
X33673738Y-66603972D01*
X33571414Y-66757111D01*
X33500932Y-66927271D01*
X33465000Y-67107911D01*
X33465000Y-67130909D01*
X29428072Y-71167837D01*
X29428072Y-70270000D01*
X29415812Y-70145518D01*
X29379502Y-70025820D01*
X29320537Y-69915506D01*
X29241185Y-69818815D01*
X29144494Y-69739463D01*
X29034180Y-69680498D01*
X28914482Y-69644188D01*
X28790000Y-69631928D01*
X27090000Y-69631928D01*
X26965518Y-69644188D01*
X26845820Y-69680498D01*
X26735506Y-69739463D01*
X26638815Y-69818815D01*
X26559463Y-69915506D01*
X26500498Y-70025820D01*
X26464188Y-70145518D01*
X26451928Y-70270000D01*
X26451928Y-71970000D01*
X26464188Y-72094482D01*
X26500498Y-72214180D01*
X26559463Y-72324494D01*
X26638815Y-72421185D01*
X26735506Y-72500537D01*
X26845820Y-72559502D01*
X26918380Y-72581513D01*
X26786525Y-72713368D01*
X26624010Y-72956589D01*
X26512068Y-73226842D01*
X26455000Y-73513740D01*
X26455000Y-73806260D01*
X26512068Y-74093158D01*
X26624010Y-74363411D01*
X26786525Y-74606632D01*
X26993368Y-74813475D01*
X27167760Y-74930000D01*
X26993368Y-75046525D01*
X26786525Y-75253368D01*
X26624010Y-75496589D01*
X26512068Y-75766842D01*
X26455000Y-76053740D01*
X26455000Y-76346260D01*
X26512068Y-76633158D01*
X26624010Y-76903411D01*
X26786525Y-77146632D01*
X26993368Y-77353475D01*
X27167760Y-77470000D01*
X26993368Y-77586525D01*
X26786525Y-77793368D01*
X26624010Y-78036589D01*
X26512068Y-78306842D01*
X26455000Y-78593740D01*
X26455000Y-78886260D01*
X26512068Y-79173158D01*
X26624010Y-79443411D01*
X26786525Y-79686632D01*
X26993368Y-79893475D01*
X27167760Y-80010000D01*
X26993368Y-80126525D01*
X26786525Y-80333368D01*
X26624010Y-80576589D01*
X26512068Y-80846842D01*
X26455000Y-81133740D01*
X26455000Y-81426260D01*
X26512068Y-81713158D01*
X26624010Y-81983411D01*
X26786525Y-82226632D01*
X26993368Y-82433475D01*
X27167760Y-82550000D01*
X26993368Y-82666525D01*
X26786525Y-82873368D01*
X26624010Y-83116589D01*
X26512068Y-83386842D01*
X26455000Y-83673740D01*
X26455000Y-83966260D01*
X26512068Y-84253158D01*
X26624010Y-84523411D01*
X26786525Y-84766632D01*
X26993368Y-84973475D01*
X27167760Y-85090000D01*
X26993368Y-85206525D01*
X26786525Y-85413368D01*
X26624010Y-85656589D01*
X26512068Y-85926842D01*
X26455000Y-86213740D01*
X26455000Y-86506260D01*
X26512068Y-86793158D01*
X26624010Y-87063411D01*
X26786525Y-87306632D01*
X26993368Y-87513475D01*
X27167760Y-87630000D01*
X26993368Y-87746525D01*
X26786525Y-87953368D01*
X26624010Y-88196589D01*
X26512068Y-88466842D01*
X26455000Y-88753740D01*
X26455000Y-89046260D01*
X26512068Y-89333158D01*
X26624010Y-89603411D01*
X26786525Y-89846632D01*
X26993368Y-90053475D01*
X27167760Y-90170000D01*
X26993368Y-90286525D01*
X26786525Y-90493368D01*
X26624010Y-90736589D01*
X26512068Y-91006842D01*
X26455000Y-91293740D01*
X26455000Y-91586260D01*
X26512068Y-91873158D01*
X26624010Y-92143411D01*
X26786525Y-92386632D01*
X26993368Y-92593475D01*
X27167760Y-92710000D01*
X26993368Y-92826525D01*
X26786525Y-93033368D01*
X26624010Y-93276589D01*
X26512068Y-93546842D01*
X26455000Y-93833740D01*
X26455000Y-94126260D01*
X26512068Y-94413158D01*
X26624010Y-94683411D01*
X26786525Y-94926632D01*
X26993368Y-95133475D01*
X27167760Y-95250000D01*
X26993368Y-95366525D01*
X26786525Y-95573368D01*
X26624010Y-95816589D01*
X26512068Y-96086842D01*
X26455000Y-96373740D01*
X26455000Y-96666260D01*
X26512068Y-96953158D01*
X26624010Y-97223411D01*
X26786525Y-97466632D01*
X26993368Y-97673475D01*
X27167760Y-97790000D01*
X26993368Y-97906525D01*
X26786525Y-98113368D01*
X26624010Y-98356589D01*
X26512068Y-98626842D01*
X26455000Y-98913740D01*
X26455000Y-99206260D01*
X26512068Y-99493158D01*
X26624010Y-99763411D01*
X26786525Y-100006632D01*
X26993368Y-100213475D01*
X27167760Y-100330000D01*
X26993368Y-100446525D01*
X26786525Y-100653368D01*
X26624010Y-100896589D01*
X26512068Y-101166842D01*
X26455000Y-101453740D01*
X26455000Y-101746260D01*
X26512068Y-102033158D01*
X26624010Y-102303411D01*
X26786525Y-102546632D01*
X26993368Y-102753475D01*
X27167760Y-102870000D01*
X26993368Y-102986525D01*
X26786525Y-103193368D01*
X26624010Y-103436589D01*
X26512068Y-103706842D01*
X26455000Y-103993740D01*
X26455000Y-104286260D01*
X26512068Y-104573158D01*
X26624010Y-104843411D01*
X26786525Y-105086632D01*
X26993368Y-105293475D01*
X27175534Y-105415195D01*
X27058645Y-105484822D01*
X26842412Y-105679731D01*
X26668359Y-105913080D01*
X26543175Y-106175901D01*
X26498524Y-106323110D01*
X26619845Y-106553000D01*
X27813000Y-106553000D01*
X27813000Y-106533000D01*
X28067000Y-106533000D01*
X28067000Y-106553000D01*
X29260155Y-106553000D01*
X29381476Y-106323110D01*
X29336825Y-106175901D01*
X29211641Y-105913080D01*
X29037588Y-105679731D01*
X28821355Y-105484822D01*
X28704466Y-105415195D01*
X28886632Y-105293475D01*
X29093475Y-105086632D01*
X29255990Y-104843411D01*
X29367932Y-104573158D01*
X29425000Y-104286260D01*
X29425000Y-103993740D01*
X29369478Y-103714613D01*
X32662434Y-100421658D01*
X32689525Y-100399425D01*
X32778250Y-100291313D01*
X32844178Y-100167970D01*
X32884777Y-100034134D01*
X32895050Y-99929827D01*
X32895050Y-99929826D01*
X32898485Y-99894951D01*
X32895050Y-99860076D01*
X32895050Y-77194227D01*
X40779277Y-69310000D01*
X42967710Y-69310000D01*
X42873738Y-69403972D01*
X42771414Y-69557111D01*
X42700932Y-69727271D01*
X42665000Y-69907911D01*
X42665000Y-70092089D01*
X42700932Y-70272729D01*
X42771414Y-70442889D01*
X42873738Y-70596028D01*
X42890001Y-70612291D01*
X42890000Y-73367710D01*
X42796028Y-73273738D01*
X42642889Y-73171414D01*
X42472729Y-73100932D01*
X42292089Y-73065000D01*
X42107911Y-73065000D01*
X41927271Y-73100932D01*
X41757111Y-73171414D01*
X41603972Y-73273738D01*
X41473738Y-73403972D01*
X41371414Y-73557111D01*
X41300932Y-73727271D01*
X41265000Y-73907911D01*
X41265000Y-73930908D01*
X39620616Y-75575293D01*
X39593525Y-75597526D01*
X39571292Y-75624617D01*
X39504800Y-75705638D01*
X39438871Y-75828982D01*
X39398273Y-75962817D01*
X39384564Y-76102001D01*
X39388000Y-76136886D01*
X39387999Y-100413124D01*
X39384564Y-100447999D01*
X39387999Y-100482874D01*
X39387999Y-100482875D01*
X39398272Y-100587182D01*
X39438871Y-100721018D01*
X39504799Y-100844361D01*
X39593524Y-100952473D01*
X39620616Y-100974707D01*
X42496699Y-103850790D01*
X42486928Y-103950000D01*
X42486928Y-104750000D01*
X42503992Y-104923254D01*
X42554528Y-105089850D01*
X42636595Y-105243386D01*
X42747038Y-105377962D01*
X42881614Y-105488405D01*
X43035150Y-105570472D01*
X43151287Y-105605702D01*
X43100932Y-105727271D01*
X43065000Y-105907911D01*
X43065000Y-106092089D01*
X43100932Y-106272729D01*
X43171414Y-106442889D01*
X43273738Y-106596028D01*
X43403972Y-106726262D01*
X43557111Y-106828586D01*
X43727271Y-106899068D01*
X43907911Y-106935000D01*
X44092089Y-106935000D01*
X44272729Y-106899068D01*
X44442889Y-106828586D01*
X44596028Y-106726262D01*
X44726262Y-106596028D01*
X44828586Y-106442889D01*
X44899068Y-106272729D01*
X44935000Y-106092089D01*
X44935000Y-105907911D01*
X44899068Y-105727271D01*
X44848713Y-105605702D01*
X44964850Y-105570472D01*
X45118386Y-105488405D01*
X45252962Y-105377962D01*
X45363405Y-105243386D01*
X45445472Y-105089850D01*
X45496008Y-104923254D01*
X45513072Y-104750000D01*
X45513072Y-104207990D01*
X47286928Y-104207990D01*
X47286928Y-104750000D01*
X47303992Y-104923254D01*
X47354528Y-105089850D01*
X47436595Y-105243386D01*
X47547038Y-105377962D01*
X47681614Y-105488405D01*
X47835150Y-105570472D01*
X47951287Y-105605702D01*
X47900932Y-105727271D01*
X47865000Y-105907911D01*
X47865000Y-106092089D01*
X47900932Y-106272729D01*
X47971414Y-106442889D01*
X48073738Y-106596028D01*
X48203972Y-106726262D01*
X48357111Y-106828586D01*
X48527271Y-106899068D01*
X48707911Y-106935000D01*
X48892089Y-106935000D01*
X49072729Y-106899068D01*
X49242889Y-106828586D01*
X49396028Y-106726262D01*
X49526262Y-106596028D01*
X49628586Y-106442889D01*
X49699068Y-106272729D01*
X49735000Y-106092089D01*
X49735000Y-105907911D01*
X49699068Y-105727271D01*
X49648713Y-105605702D01*
X49764850Y-105570472D01*
X49918386Y-105488405D01*
X50052962Y-105377962D01*
X50163405Y-105243386D01*
X50245472Y-105089850D01*
X50249096Y-105077900D01*
X57834965Y-105077900D01*
X57897430Y-105296315D01*
X58001305Y-105498347D01*
X58142599Y-105676232D01*
X58315881Y-105823134D01*
X58514493Y-105933408D01*
X58669190Y-105988964D01*
X58848000Y-105863163D01*
X58848000Y-104897000D01*
X59102000Y-104897000D01*
X59102000Y-105863163D01*
X59280810Y-105988964D01*
X59435507Y-105933408D01*
X59634119Y-105823134D01*
X59807401Y-105676232D01*
X59948695Y-105498347D01*
X60052570Y-105296315D01*
X60115035Y-105077900D01*
X62284965Y-105077900D01*
X62347430Y-105296315D01*
X62451305Y-105498347D01*
X62592599Y-105676232D01*
X62765881Y-105823134D01*
X62964493Y-105933408D01*
X63119190Y-105988964D01*
X63298000Y-105863163D01*
X63298000Y-104897000D01*
X63552000Y-104897000D01*
X63552000Y-105863163D01*
X63730810Y-105988964D01*
X63885507Y-105933408D01*
X64084119Y-105823134D01*
X64257401Y-105676232D01*
X64398695Y-105498347D01*
X64502570Y-105296315D01*
X64565035Y-105077900D01*
X64424772Y-104897000D01*
X63552000Y-104897000D01*
X63298000Y-104897000D01*
X62425228Y-104897000D01*
X62284965Y-105077900D01*
X60115035Y-105077900D01*
X59974772Y-104897000D01*
X59102000Y-104897000D01*
X58848000Y-104897000D01*
X57975228Y-104897000D01*
X57834965Y-105077900D01*
X50249096Y-105077900D01*
X50296008Y-104923254D01*
X50313072Y-104750000D01*
X50313072Y-104000001D01*
X52377711Y-104000001D01*
X52403972Y-104026262D01*
X52557111Y-104128586D01*
X52727271Y-104199068D01*
X52907911Y-104235000D01*
X53092089Y-104235000D01*
X53272729Y-104199068D01*
X53442889Y-104128586D01*
X53596028Y-104026262D01*
X53726262Y-103896028D01*
X53828586Y-103742889D01*
X53899068Y-103572729D01*
X53935000Y-103392089D01*
X53935000Y-103207911D01*
X53899068Y-103027271D01*
X53828586Y-102857111D01*
X53726262Y-102703972D01*
X53596028Y-102573738D01*
X53442889Y-102471414D01*
X53272729Y-102400932D01*
X53092089Y-102365000D01*
X52907911Y-102365000D01*
X52727271Y-102400932D01*
X52557111Y-102471414D01*
X52403972Y-102573738D01*
X52397709Y-102580001D01*
X49894874Y-102580001D01*
X49859999Y-102576566D01*
X49825124Y-102580001D01*
X49825122Y-102580001D01*
X49720815Y-102590274D01*
X49586979Y-102630873D01*
X49463636Y-102696801D01*
X49355524Y-102785526D01*
X49333291Y-102812617D01*
X49083980Y-103061928D01*
X48516019Y-103061928D01*
X48474702Y-103020611D01*
X48452465Y-102993515D01*
X48344353Y-102904790D01*
X48221010Y-102838862D01*
X48087174Y-102798263D01*
X47982867Y-102787990D01*
X47982865Y-102787990D01*
X47947990Y-102784555D01*
X47913115Y-102787990D01*
X44877842Y-102787990D01*
X44627662Y-102537810D01*
X44798254Y-102521008D01*
X44964850Y-102470472D01*
X45118386Y-102388405D01*
X45252962Y-102277962D01*
X45363405Y-102143386D01*
X45394613Y-102085000D01*
X45708982Y-102085000D01*
X45750000Y-102089040D01*
X45791018Y-102085000D01*
X47405387Y-102085000D01*
X47436595Y-102143386D01*
X47547038Y-102277962D01*
X47681614Y-102388405D01*
X47835150Y-102470472D01*
X48001746Y-102521008D01*
X48175000Y-102538072D01*
X49425000Y-102538072D01*
X49598254Y-102521008D01*
X49764850Y-102470472D01*
X49918386Y-102388405D01*
X50052962Y-102277962D01*
X50163405Y-102143386D01*
X50245472Y-101989850D01*
X50296008Y-101823254D01*
X50313072Y-101650000D01*
X50313072Y-100850000D01*
X50296008Y-100676746D01*
X50245472Y-100510150D01*
X50163405Y-100356614D01*
X50052962Y-100222038D01*
X49918386Y-100111595D01*
X49764850Y-100029528D01*
X49598254Y-99978992D01*
X49425000Y-99961928D01*
X48175000Y-99961928D01*
X48001746Y-99978992D01*
X47835150Y-100029528D01*
X47681614Y-100111595D01*
X47547038Y-100222038D01*
X47436595Y-100356614D01*
X47405387Y-100415000D01*
X46535000Y-100415000D01*
X46535000Y-100227404D01*
X46599068Y-100072729D01*
X46635000Y-99892089D01*
X46635000Y-99707911D01*
X46599068Y-99527271D01*
X46528586Y-99357111D01*
X46426262Y-99203972D01*
X46296028Y-99073738D01*
X46142889Y-98971414D01*
X45989578Y-98907911D01*
X54865000Y-98907911D01*
X54865000Y-99092089D01*
X54900932Y-99272729D01*
X54971414Y-99442889D01*
X55073738Y-99596028D01*
X55203972Y-99726262D01*
X55357111Y-99828586D01*
X55527271Y-99899068D01*
X55707911Y-99935000D01*
X55730909Y-99935000D01*
X57065000Y-101269091D01*
X57065000Y-101292089D01*
X57100932Y-101472729D01*
X57171414Y-101642889D01*
X57273738Y-101796028D01*
X57403972Y-101926262D01*
X57557111Y-102028586D01*
X57727271Y-102099068D01*
X57907911Y-102135000D01*
X58092089Y-102135000D01*
X58272729Y-102099068D01*
X58442889Y-102028586D01*
X58596028Y-101926262D01*
X58726262Y-101796028D01*
X58828586Y-101642889D01*
X58899068Y-101472729D01*
X58935000Y-101292089D01*
X58935000Y-101107911D01*
X58899068Y-100927271D01*
X58828586Y-100757111D01*
X58726262Y-100603972D01*
X58596028Y-100473738D01*
X58442889Y-100371414D01*
X58272729Y-100300932D01*
X58092089Y-100265000D01*
X58069091Y-100265000D01*
X56735000Y-98930909D01*
X56735000Y-98907911D01*
X56699068Y-98727271D01*
X56628586Y-98557111D01*
X56526262Y-98403972D01*
X56396028Y-98273738D01*
X56242889Y-98171414D01*
X56072729Y-98100932D01*
X55892089Y-98065000D01*
X55707911Y-98065000D01*
X55527271Y-98100932D01*
X55357111Y-98171414D01*
X55203972Y-98273738D01*
X55073738Y-98403972D01*
X54971414Y-98557111D01*
X54900932Y-98727271D01*
X54865000Y-98907911D01*
X45989578Y-98907911D01*
X45972729Y-98900932D01*
X45792089Y-98865000D01*
X45607911Y-98865000D01*
X45427271Y-98900932D01*
X45257111Y-98971414D01*
X45103972Y-99073738D01*
X44973738Y-99203972D01*
X44871414Y-99357111D01*
X44800932Y-99527271D01*
X44765000Y-99707911D01*
X44765000Y-99892089D01*
X44781967Y-99977388D01*
X44625000Y-99961928D01*
X43632990Y-99961928D01*
X43632990Y-95507911D01*
X56065000Y-95507911D01*
X56065000Y-95692089D01*
X56100932Y-95872729D01*
X56171414Y-96042889D01*
X56273738Y-96196028D01*
X56290000Y-96212290D01*
X56290000Y-96365125D01*
X56286565Y-96400000D01*
X56290000Y-96434875D01*
X56290000Y-96434876D01*
X56300273Y-96539183D01*
X56340872Y-96673019D01*
X56406800Y-96796362D01*
X56495525Y-96904474D01*
X56522617Y-96926708D01*
X58265000Y-98669091D01*
X58265000Y-98692089D01*
X58300932Y-98872729D01*
X58371414Y-99042889D01*
X58473738Y-99196028D01*
X58603972Y-99326262D01*
X58757111Y-99428586D01*
X58927271Y-99499068D01*
X59107911Y-99535000D01*
X59292089Y-99535000D01*
X59472729Y-99499068D01*
X59642889Y-99428586D01*
X59796028Y-99326262D01*
X59926262Y-99196028D01*
X60028586Y-99042889D01*
X60099068Y-98872729D01*
X60135000Y-98692089D01*
X60135000Y-98507911D01*
X60099068Y-98327271D01*
X60028586Y-98157111D01*
X59926262Y-98003972D01*
X59796028Y-97873738D01*
X59642889Y-97771414D01*
X59472729Y-97700932D01*
X59292089Y-97665000D01*
X59269091Y-97665000D01*
X57755845Y-96151754D01*
X57828586Y-96042889D01*
X57899068Y-95872729D01*
X57935000Y-95692089D01*
X57935000Y-95507911D01*
X57899068Y-95327271D01*
X57828586Y-95157111D01*
X57726262Y-95003972D01*
X57596028Y-94873738D01*
X57442889Y-94771414D01*
X57272729Y-94700932D01*
X57092089Y-94665000D01*
X56907911Y-94665000D01*
X56727271Y-94700932D01*
X56557111Y-94771414D01*
X56403972Y-94873738D01*
X56273738Y-95003972D01*
X56171414Y-95157111D01*
X56100932Y-95327271D01*
X56065000Y-95507911D01*
X43632990Y-95507911D01*
X43632990Y-88971101D01*
X44069092Y-88535000D01*
X44092089Y-88535000D01*
X44272729Y-88499068D01*
X44442889Y-88428586D01*
X44596028Y-88326262D01*
X44726262Y-88196028D01*
X44828586Y-88042889D01*
X44899068Y-87872729D01*
X44935000Y-87692089D01*
X44935000Y-87507911D01*
X44899068Y-87327271D01*
X44828586Y-87157111D01*
X44726262Y-87003972D01*
X44596028Y-86873738D01*
X44442889Y-86771414D01*
X44272729Y-86700932D01*
X44092089Y-86665000D01*
X43907911Y-86665000D01*
X43727271Y-86700932D01*
X43557111Y-86771414D01*
X43403972Y-86873738D01*
X43273738Y-87003972D01*
X43171414Y-87157111D01*
X43100932Y-87327271D01*
X43065000Y-87507911D01*
X43065000Y-87530908D01*
X42445607Y-88150302D01*
X42418515Y-88172536D01*
X42329790Y-88280648D01*
X42263862Y-88403991D01*
X42223263Y-88537827D01*
X42212990Y-88642133D01*
X42209555Y-88677010D01*
X42212990Y-88711885D01*
X42212991Y-101558900D01*
X40807999Y-100153908D01*
X40807999Y-81812090D01*
X48465000Y-89469092D01*
X48465000Y-89492089D01*
X48500932Y-89672729D01*
X48571414Y-89842889D01*
X48673738Y-89996028D01*
X48803972Y-90126262D01*
X48957111Y-90228586D01*
X49127271Y-90299068D01*
X49290000Y-90331437D01*
X49290000Y-90587710D01*
X49273738Y-90603972D01*
X49171414Y-90757111D01*
X49100932Y-90927271D01*
X49065000Y-91107911D01*
X49065000Y-91292089D01*
X49100932Y-91472729D01*
X49171414Y-91642889D01*
X49273738Y-91796028D01*
X49403972Y-91926262D01*
X49557111Y-92028586D01*
X49727271Y-92099068D01*
X49907911Y-92135000D01*
X50092089Y-92135000D01*
X50272729Y-92099068D01*
X50442889Y-92028586D01*
X50596028Y-91926262D01*
X50726262Y-91796028D01*
X50828586Y-91642889D01*
X50899068Y-91472729D01*
X50935000Y-91292089D01*
X50935000Y-91107911D01*
X50899068Y-90927271D01*
X50828586Y-90757111D01*
X50726262Y-90603972D01*
X50710000Y-90587710D01*
X50710000Y-89291912D01*
X50713435Y-89257037D01*
X50708183Y-89203717D01*
X50699727Y-89117854D01*
X50659128Y-88984018D01*
X50593200Y-88860675D01*
X50504475Y-88752563D01*
X50477384Y-88730330D01*
X44722467Y-82975414D01*
X44796028Y-82926262D01*
X44926262Y-82796028D01*
X45028586Y-82642889D01*
X45099068Y-82472729D01*
X45135000Y-82292089D01*
X45135000Y-82107911D01*
X45099068Y-81927271D01*
X45028586Y-81757111D01*
X44926262Y-81603972D01*
X44796028Y-81473738D01*
X44642889Y-81371414D01*
X44472729Y-81300932D01*
X44310000Y-81268563D01*
X44310000Y-80091914D01*
X44327271Y-80099068D01*
X44507911Y-80135000D01*
X44530909Y-80135000D01*
X51304318Y-86908409D01*
X51326555Y-86935505D01*
X51434667Y-87024230D01*
X51558010Y-87090158D01*
X51691846Y-87130757D01*
X51796153Y-87141030D01*
X51796155Y-87141030D01*
X51831030Y-87144465D01*
X51865905Y-87141030D01*
X63949226Y-87141030D01*
X63878815Y-87198815D01*
X63799463Y-87295506D01*
X63740498Y-87405820D01*
X63704188Y-87525518D01*
X63691928Y-87650000D01*
X63691928Y-89350000D01*
X63704188Y-89474482D01*
X63740498Y-89594180D01*
X63799463Y-89704494D01*
X63878815Y-89801185D01*
X63975506Y-89880537D01*
X64085820Y-89939502D01*
X64158380Y-89961513D01*
X64026525Y-90093368D01*
X63864010Y-90336589D01*
X63752068Y-90606842D01*
X63695000Y-90893740D01*
X63695000Y-91186260D01*
X63752068Y-91473158D01*
X63864010Y-91743411D01*
X64026525Y-91986632D01*
X64233368Y-92193475D01*
X64407760Y-92310000D01*
X64233368Y-92426525D01*
X64026525Y-92633368D01*
X63864010Y-92876589D01*
X63752068Y-93146842D01*
X63695000Y-93433740D01*
X63695000Y-93726260D01*
X63752068Y-94013158D01*
X63864010Y-94283411D01*
X64026525Y-94526632D01*
X64233368Y-94733475D01*
X64476589Y-94895990D01*
X64746842Y-95007932D01*
X65033740Y-95065000D01*
X65326260Y-95065000D01*
X65613158Y-95007932D01*
X65883411Y-94895990D01*
X66126632Y-94733475D01*
X66333475Y-94526632D01*
X66495990Y-94283411D01*
X66607932Y-94013158D01*
X66665000Y-93726260D01*
X66665000Y-93433740D01*
X66607932Y-93146842D01*
X66495990Y-92876589D01*
X66333475Y-92633368D01*
X66126632Y-92426525D01*
X65952240Y-92310000D01*
X66126632Y-92193475D01*
X66333475Y-91986632D01*
X66495990Y-91743411D01*
X66607932Y-91473158D01*
X66665000Y-91186260D01*
X66665000Y-90893740D01*
X66607932Y-90606842D01*
X66495990Y-90336589D01*
X66333475Y-90093368D01*
X66201620Y-89961513D01*
X66274180Y-89939502D01*
X66384494Y-89880537D01*
X66481185Y-89801185D01*
X66560537Y-89704494D01*
X66619502Y-89594180D01*
X66655812Y-89474482D01*
X66668072Y-89350000D01*
X66668072Y-88872163D01*
X67490001Y-89694092D01*
X67490000Y-93565125D01*
X67486565Y-93600000D01*
X67490000Y-93634875D01*
X67490000Y-93634876D01*
X67500273Y-93739183D01*
X67540872Y-93873019D01*
X67606800Y-93996362D01*
X67695525Y-94104474D01*
X67722617Y-94126708D01*
X74770522Y-101174614D01*
X74715000Y-101453740D01*
X74715000Y-101746260D01*
X74772068Y-102033158D01*
X74884010Y-102303411D01*
X75046525Y-102546632D01*
X75079894Y-102580001D01*
X55802291Y-102580001D01*
X55796028Y-102573738D01*
X55642889Y-102471414D01*
X55472729Y-102400932D01*
X55292089Y-102365000D01*
X55107911Y-102365000D01*
X54927271Y-102400932D01*
X54757111Y-102471414D01*
X54603972Y-102573738D01*
X54473738Y-102703972D01*
X54371414Y-102857111D01*
X54300932Y-103027271D01*
X54265000Y-103207911D01*
X54265000Y-103392089D01*
X54300932Y-103572729D01*
X54371414Y-103742889D01*
X54473738Y-103896028D01*
X54603972Y-104026262D01*
X54757111Y-104128586D01*
X54927271Y-104199068D01*
X55107911Y-104235000D01*
X55292089Y-104235000D01*
X55472729Y-104199068D01*
X55642889Y-104128586D01*
X55796028Y-104026262D01*
X55822289Y-104000001D01*
X58034389Y-104000001D01*
X58001305Y-104041653D01*
X57897430Y-104243685D01*
X57834965Y-104462100D01*
X57975228Y-104643000D01*
X58848000Y-104643000D01*
X58848000Y-104623000D01*
X59102000Y-104623000D01*
X59102000Y-104643000D01*
X59974772Y-104643000D01*
X60115035Y-104462100D01*
X60052570Y-104243685D01*
X59948695Y-104041653D01*
X59915611Y-104000001D01*
X62484389Y-104000001D01*
X62451305Y-104041653D01*
X62347430Y-104243685D01*
X62284965Y-104462100D01*
X62425228Y-104643000D01*
X63298000Y-104643000D01*
X63298000Y-104623000D01*
X63552000Y-104623000D01*
X63552000Y-104643000D01*
X64424772Y-104643000D01*
X64565035Y-104462100D01*
X64502570Y-104243685D01*
X64398695Y-104041653D01*
X64365611Y-104000001D01*
X74715000Y-104000001D01*
X74715000Y-104286260D01*
X74772068Y-104573158D01*
X74884010Y-104843411D01*
X75046525Y-105086632D01*
X75178380Y-105218487D01*
X75105820Y-105240498D01*
X74995506Y-105299463D01*
X74898815Y-105378815D01*
X74819463Y-105475506D01*
X74760498Y-105585820D01*
X74724188Y-105705518D01*
X74711928Y-105830000D01*
X74711928Y-107530000D01*
X74724188Y-107654482D01*
X74760498Y-107774180D01*
X74819463Y-107884494D01*
X74898815Y-107981185D01*
X74995506Y-108060537D01*
X75105820Y-108119502D01*
X75225518Y-108155812D01*
X75350000Y-108168072D01*
X77050000Y-108168072D01*
X77174482Y-108155812D01*
X77294180Y-108119502D01*
X77404494Y-108060537D01*
X77501185Y-107981185D01*
X77580537Y-107884494D01*
X77639502Y-107774180D01*
X77675812Y-107654482D01*
X77688072Y-107530000D01*
X77688072Y-105830000D01*
X77675812Y-105705518D01*
X77639502Y-105585820D01*
X77580537Y-105475506D01*
X77501185Y-105378815D01*
X77404494Y-105299463D01*
X77294180Y-105240498D01*
X77221620Y-105218487D01*
X77353475Y-105086632D01*
X77515990Y-104843411D01*
X77627932Y-104573158D01*
X77685000Y-104286260D01*
X77685000Y-103993740D01*
X77627932Y-103706842D01*
X77515990Y-103436589D01*
X77353475Y-103193368D01*
X77146632Y-102986525D01*
X76972240Y-102870000D01*
X77146632Y-102753475D01*
X77353475Y-102546632D01*
X77515990Y-102303411D01*
X77627932Y-102033158D01*
X77685000Y-101746260D01*
X77685000Y-101453740D01*
X77627932Y-101166842D01*
X77515990Y-100896589D01*
X77353475Y-100653368D01*
X77146632Y-100446525D01*
X76972240Y-100330000D01*
X77146632Y-100213475D01*
X77353475Y-100006632D01*
X77515990Y-99763411D01*
X77627932Y-99493158D01*
X77685000Y-99206260D01*
X77685000Y-98913740D01*
X77627932Y-98626842D01*
X77515990Y-98356589D01*
X77353475Y-98113368D01*
X77146632Y-97906525D01*
X76972240Y-97790000D01*
X77146632Y-97673475D01*
X77353475Y-97466632D01*
X77515990Y-97223411D01*
X77627932Y-96953158D01*
X77685000Y-96666260D01*
X77685000Y-96373740D01*
X77627932Y-96086842D01*
X77515990Y-95816589D01*
X77353475Y-95573368D01*
X77146632Y-95366525D01*
X76972240Y-95250000D01*
X77146632Y-95133475D01*
X77353475Y-94926632D01*
X77515990Y-94683411D01*
X77627932Y-94413158D01*
X77685000Y-94126260D01*
X77685000Y-93833740D01*
X77627932Y-93546842D01*
X77515990Y-93276589D01*
X77353475Y-93033368D01*
X77146632Y-92826525D01*
X76972240Y-92710000D01*
X77146632Y-92593475D01*
X77353475Y-92386632D01*
X77515990Y-92143411D01*
X77627932Y-91873158D01*
X77685000Y-91586260D01*
X77685000Y-91293740D01*
X77627932Y-91006842D01*
X77515990Y-90736589D01*
X77353475Y-90493368D01*
X77146632Y-90286525D01*
X76972240Y-90170000D01*
X77146632Y-90053475D01*
X77353475Y-89846632D01*
X77515990Y-89603411D01*
X77627932Y-89333158D01*
X77685000Y-89046260D01*
X77685000Y-88753740D01*
X77627932Y-88466842D01*
X77515990Y-88196589D01*
X77353475Y-87953368D01*
X77146632Y-87746525D01*
X76972240Y-87630000D01*
X77146632Y-87513475D01*
X77353475Y-87306632D01*
X77515990Y-87063411D01*
X77627932Y-86793158D01*
X77685000Y-86506260D01*
X77685000Y-86213740D01*
X77627932Y-85926842D01*
X77515990Y-85656589D01*
X77353475Y-85413368D01*
X77146632Y-85206525D01*
X76972240Y-85090000D01*
X77146632Y-84973475D01*
X77353475Y-84766632D01*
X77515990Y-84523411D01*
X77627932Y-84253158D01*
X77685000Y-83966260D01*
X77685000Y-83673740D01*
X77627932Y-83386842D01*
X77515990Y-83116589D01*
X77353475Y-82873368D01*
X77146632Y-82666525D01*
X76972240Y-82550000D01*
X77146632Y-82433475D01*
X77353475Y-82226632D01*
X77515990Y-81983411D01*
X77627932Y-81713158D01*
X77685000Y-81426260D01*
X77685000Y-81133740D01*
X77627932Y-80846842D01*
X77515990Y-80576589D01*
X77353475Y-80333368D01*
X77146632Y-80126525D01*
X76972240Y-80010000D01*
X77146632Y-79893475D01*
X77353475Y-79686632D01*
X77515990Y-79443411D01*
X77627932Y-79173158D01*
X77685000Y-78886260D01*
X77685000Y-78593740D01*
X77627932Y-78306842D01*
X77515990Y-78036589D01*
X77353475Y-77793368D01*
X77146632Y-77586525D01*
X76972240Y-77470000D01*
X77146632Y-77353475D01*
X77353475Y-77146632D01*
X77515990Y-76903411D01*
X77627932Y-76633158D01*
X77685000Y-76346260D01*
X77685000Y-76053740D01*
X77627932Y-75766842D01*
X77515990Y-75496589D01*
X77353475Y-75253368D01*
X77146632Y-75046525D01*
X76972240Y-74930000D01*
X77146632Y-74813475D01*
X77353475Y-74606632D01*
X77515990Y-74363411D01*
X77627932Y-74093158D01*
X77685000Y-73806260D01*
X77685000Y-73513740D01*
X77627932Y-73226842D01*
X77515990Y-72956589D01*
X77353475Y-72713368D01*
X77146632Y-72506525D01*
X76964466Y-72384805D01*
X77081355Y-72315178D01*
X77297588Y-72120269D01*
X77471641Y-71886920D01*
X77596825Y-71624099D01*
X77641476Y-71476890D01*
X77520155Y-71247000D01*
X76327000Y-71247000D01*
X76327000Y-71267000D01*
X76073000Y-71267000D01*
X76073000Y-71247000D01*
X74879845Y-71247000D01*
X74849186Y-71305095D01*
X74307201Y-70763110D01*
X74758524Y-70763110D01*
X74879845Y-70993000D01*
X76073000Y-70993000D01*
X76073000Y-69799186D01*
X76327000Y-69799186D01*
X76327000Y-70993000D01*
X77520155Y-70993000D01*
X77641476Y-70763110D01*
X77596825Y-70615901D01*
X77471641Y-70353080D01*
X77297588Y-70119731D01*
X77081355Y-69924822D01*
X76831252Y-69775843D01*
X76556891Y-69678519D01*
X76327000Y-69799186D01*
X76073000Y-69799186D01*
X75843109Y-69678519D01*
X75568748Y-69775843D01*
X75318645Y-69924822D01*
X75102412Y-70119731D01*
X74928359Y-70353080D01*
X74803175Y-70615901D01*
X74758524Y-70763110D01*
X74307201Y-70763110D01*
X73585414Y-70041323D01*
X73533199Y-69943636D01*
X73466707Y-69862615D01*
X73444475Y-69835525D01*
X73417384Y-69813292D01*
X72726712Y-69122621D01*
X72704475Y-69095525D01*
X72596363Y-69006800D01*
X72473020Y-68940872D01*
X72339184Y-68900273D01*
X72234877Y-68890000D01*
X72234875Y-68890000D01*
X72200000Y-68886565D01*
X72165125Y-68890000D01*
X68212741Y-68890000D01*
X68498019Y-68848599D01*
X68773747Y-68750919D01*
X68911157Y-68677472D01*
X68988792Y-68428397D01*
X68140000Y-67579605D01*
X67291208Y-68428397D01*
X67368843Y-68677472D01*
X67632883Y-68803371D01*
X67916411Y-68875339D01*
X68196844Y-68890000D01*
X63132741Y-68890000D01*
X63418019Y-68848599D01*
X63693747Y-68750919D01*
X63831157Y-68677472D01*
X63908792Y-68428397D01*
X63060000Y-67579605D01*
X62211208Y-68428397D01*
X62288843Y-68677472D01*
X62552883Y-68803371D01*
X62836411Y-68875339D01*
X63116844Y-68890000D01*
X60592741Y-68890000D01*
X60878019Y-68848599D01*
X61153747Y-68750919D01*
X61291157Y-68677472D01*
X61368792Y-68428397D01*
X60520000Y-67579605D01*
X59671208Y-68428397D01*
X59748843Y-68677472D01*
X60012883Y-68803371D01*
X60296411Y-68875339D01*
X60576844Y-68890000D01*
X51812290Y-68890000D01*
X51796028Y-68873738D01*
X51642889Y-68771414D01*
X51472729Y-68700932D01*
X51292089Y-68665000D01*
X51107911Y-68665000D01*
X50927271Y-68700932D01*
X50757111Y-68771414D01*
X50603972Y-68873738D01*
X50473738Y-69003972D01*
X50371414Y-69157111D01*
X50300932Y-69327271D01*
X50265000Y-69507911D01*
X50265000Y-69692089D01*
X50300932Y-69872729D01*
X50353649Y-70000000D01*
X50300932Y-70127271D01*
X50265000Y-70307911D01*
X50265000Y-70492089D01*
X50300932Y-70672729D01*
X50353649Y-70800000D01*
X50300932Y-70927271D01*
X50265000Y-71107911D01*
X50265000Y-71292089D01*
X50300932Y-71472729D01*
X50353649Y-71600000D01*
X50300932Y-71727271D01*
X50265000Y-71907911D01*
X50265000Y-72092089D01*
X50300932Y-72272729D01*
X50353649Y-72400000D01*
X50300932Y-72527271D01*
X50265000Y-72707911D01*
X50265000Y-72892089D01*
X50300932Y-73072729D01*
X50353649Y-73200000D01*
X50300932Y-73327271D01*
X50265000Y-73507911D01*
X50265000Y-73692089D01*
X50300932Y-73872729D01*
X50371414Y-74042889D01*
X50409574Y-74100000D01*
X50371414Y-74157111D01*
X50300932Y-74327271D01*
X50265000Y-74507911D01*
X50265000Y-74692089D01*
X50300932Y-74872729D01*
X50371414Y-75042889D01*
X50473738Y-75196028D01*
X50603972Y-75326262D01*
X50757111Y-75428586D01*
X50927271Y-75499068D01*
X51107911Y-75535000D01*
X51292089Y-75535000D01*
X51472729Y-75499068D01*
X51642889Y-75428586D01*
X51796028Y-75326262D01*
X51812290Y-75310000D01*
X61605909Y-75310000D01*
X74770522Y-88474614D01*
X74715000Y-88753740D01*
X74715000Y-88950908D01*
X70526712Y-84762621D01*
X70504475Y-84735525D01*
X70396363Y-84646800D01*
X70273020Y-84580872D01*
X70139184Y-84540273D01*
X70034877Y-84530000D01*
X70034875Y-84530000D01*
X70000000Y-84526565D01*
X69965125Y-84530000D01*
X54334092Y-84530000D01*
X48335000Y-78530909D01*
X48335000Y-78507911D01*
X48299068Y-78327271D01*
X48228586Y-78157111D01*
X48126262Y-78003972D01*
X47996028Y-77873738D01*
X47842889Y-77771414D01*
X47672729Y-77700932D01*
X47492089Y-77665000D01*
X47307911Y-77665000D01*
X47127271Y-77700932D01*
X46957111Y-77771414D01*
X46803972Y-77873738D01*
X46792697Y-77885013D01*
X46775393Y-77881570D01*
X46721360Y-77800704D01*
X46591126Y-77670470D01*
X46437987Y-77568146D01*
X46267827Y-77497664D01*
X46087187Y-77461732D01*
X45903009Y-77461732D01*
X45722369Y-77497664D01*
X45552209Y-77568146D01*
X45399070Y-77670470D01*
X45268836Y-77800704D01*
X45166512Y-77953843D01*
X45096030Y-78124003D01*
X45060098Y-78304643D01*
X45060098Y-78382913D01*
X45042889Y-78371414D01*
X44872729Y-78300932D01*
X44692089Y-78265000D01*
X44507911Y-78265000D01*
X44327271Y-78300932D01*
X44310000Y-78308086D01*
X44310000Y-70612290D01*
X44326262Y-70596028D01*
X44428586Y-70442889D01*
X44499068Y-70272729D01*
X44535000Y-70092089D01*
X44535000Y-69907911D01*
X44499068Y-69727271D01*
X44428586Y-69557111D01*
X44326262Y-69403972D01*
X44232290Y-69310000D01*
X45587710Y-69310000D01*
X45603972Y-69326262D01*
X45757111Y-69428586D01*
X45927271Y-69499068D01*
X46107911Y-69535000D01*
X46292089Y-69535000D01*
X46472729Y-69499068D01*
X46642889Y-69428586D01*
X46796028Y-69326262D01*
X46926262Y-69196028D01*
X47028586Y-69042889D01*
X47099068Y-68872729D01*
X47135000Y-68692089D01*
X47135000Y-68507911D01*
X47099068Y-68327271D01*
X47046351Y-68200000D01*
X47099068Y-68072729D01*
X47135000Y-67892089D01*
X47135000Y-67707911D01*
X47099068Y-67527271D01*
X47046351Y-67400000D01*
X47099068Y-67272729D01*
X47135000Y-67092089D01*
X47135000Y-66907911D01*
X47113535Y-66800000D01*
X56491928Y-66800000D01*
X56491928Y-68000000D01*
X56508992Y-68173254D01*
X56559528Y-68339850D01*
X56641595Y-68493386D01*
X56752038Y-68627962D01*
X56886614Y-68738405D01*
X57040150Y-68820472D01*
X57206746Y-68871008D01*
X57380000Y-68888072D01*
X58580000Y-68888072D01*
X58753254Y-68871008D01*
X58919850Y-68820472D01*
X59073386Y-68738405D01*
X59207962Y-68627962D01*
X59318405Y-68493386D01*
X59400472Y-68339850D01*
X59433580Y-68230707D01*
X59491603Y-68248792D01*
X60340395Y-67400000D01*
X60699605Y-67400000D01*
X61548397Y-68248792D01*
X61790000Y-68173486D01*
X62031603Y-68248792D01*
X62880395Y-67400000D01*
X62031603Y-66551208D01*
X61790000Y-66626514D01*
X61548397Y-66551208D01*
X60699605Y-67400000D01*
X60340395Y-67400000D01*
X59491603Y-66551208D01*
X59433580Y-66569293D01*
X59400472Y-66460150D01*
X59318405Y-66306614D01*
X59207962Y-66172038D01*
X59073386Y-66061595D01*
X58946392Y-65993715D01*
X59133475Y-65806632D01*
X59250000Y-65632240D01*
X59366525Y-65806632D01*
X59573368Y-66013475D01*
X59746729Y-66129311D01*
X59671208Y-66371603D01*
X60520000Y-67220395D01*
X61368792Y-66371603D01*
X61293271Y-66129311D01*
X61466632Y-66013475D01*
X61673475Y-65806632D01*
X61790000Y-65632240D01*
X61906525Y-65806632D01*
X62113368Y-66013475D01*
X62286729Y-66129311D01*
X62211208Y-66371603D01*
X63060000Y-67220395D01*
X63908792Y-66371603D01*
X63833271Y-66129311D01*
X64006632Y-66013475D01*
X64213475Y-65806632D01*
X64330000Y-65632240D01*
X64446525Y-65806632D01*
X64653368Y-66013475D01*
X64827760Y-66130000D01*
X64653368Y-66246525D01*
X64446525Y-66453368D01*
X64330689Y-66626729D01*
X64088397Y-66551208D01*
X63239605Y-67400000D01*
X64088397Y-68248792D01*
X64330689Y-68173271D01*
X64446525Y-68346632D01*
X64653368Y-68553475D01*
X64896589Y-68715990D01*
X65166842Y-68827932D01*
X65453740Y-68885000D01*
X65746260Y-68885000D01*
X66033158Y-68827932D01*
X66303411Y-68715990D01*
X66546632Y-68553475D01*
X66753475Y-68346632D01*
X66869311Y-68173271D01*
X67111603Y-68248792D01*
X67960395Y-67400000D01*
X68319605Y-67400000D01*
X69168397Y-68248792D01*
X69417472Y-68171157D01*
X69543371Y-67907117D01*
X69615339Y-67623589D01*
X69630611Y-67331469D01*
X69588599Y-67041981D01*
X69490919Y-66766253D01*
X69417472Y-66628843D01*
X69168397Y-66551208D01*
X68319605Y-67400000D01*
X67960395Y-67400000D01*
X67111603Y-66551208D01*
X66869311Y-66626729D01*
X66753475Y-66453368D01*
X66546632Y-66246525D01*
X66372240Y-66130000D01*
X66546632Y-66013475D01*
X66753475Y-65806632D01*
X66870000Y-65632240D01*
X66986525Y-65806632D01*
X67193368Y-66013475D01*
X67366729Y-66129311D01*
X67291208Y-66371603D01*
X68140000Y-67220395D01*
X68988792Y-66371603D01*
X68913271Y-66129311D01*
X69086632Y-66013475D01*
X69293475Y-65806632D01*
X69455990Y-65563411D01*
X69567932Y-65293158D01*
X69625000Y-65006260D01*
X69625000Y-64713740D01*
X69567932Y-64426842D01*
X69455990Y-64156589D01*
X69293475Y-63913368D01*
X69086632Y-63706525D01*
X68843411Y-63544010D01*
X68573158Y-63432068D01*
X68286260Y-63375000D01*
X67993740Y-63375000D01*
X67706842Y-63432068D01*
X67436589Y-63544010D01*
X67193368Y-63706525D01*
X66986525Y-63913368D01*
X66870000Y-64087760D01*
X66753475Y-63913368D01*
X66546632Y-63706525D01*
X66303411Y-63544010D01*
X66033158Y-63432068D01*
X65746260Y-63375000D01*
X65453740Y-63375000D01*
X65166842Y-63432068D01*
X64896589Y-63544010D01*
X64653368Y-63706525D01*
X64446525Y-63913368D01*
X64330000Y-64087760D01*
X64213475Y-63913368D01*
X64006632Y-63706525D01*
X63763411Y-63544010D01*
X63493158Y-63432068D01*
X63206260Y-63375000D01*
X62913740Y-63375000D01*
X62626842Y-63432068D01*
X62356589Y-63544010D01*
X62113368Y-63706525D01*
X61906525Y-63913368D01*
X61790000Y-64087760D01*
X61673475Y-63913368D01*
X61466632Y-63706525D01*
X61223411Y-63544010D01*
X60953158Y-63432068D01*
X60666260Y-63375000D01*
X60373740Y-63375000D01*
X60086842Y-63432068D01*
X59816589Y-63544010D01*
X59573368Y-63706525D01*
X59366525Y-63913368D01*
X59250000Y-64087760D01*
X59133475Y-63913368D01*
X58926632Y-63706525D01*
X58683411Y-63544010D01*
X58413158Y-63432068D01*
X58126260Y-63375000D01*
X57833740Y-63375000D01*
X57546842Y-63432068D01*
X57276589Y-63544010D01*
X57033368Y-63706525D01*
X56826525Y-63913368D01*
X56664010Y-64156589D01*
X56552068Y-64426842D01*
X56495000Y-64713740D01*
X56495000Y-65006260D01*
X56552068Y-65293158D01*
X56664010Y-65563411D01*
X56826525Y-65806632D01*
X57013608Y-65993715D01*
X56886614Y-66061595D01*
X56752038Y-66172038D01*
X56641595Y-66306614D01*
X56559528Y-66460150D01*
X56508992Y-66626746D01*
X56491928Y-66800000D01*
X47113535Y-66800000D01*
X47099068Y-66727271D01*
X47028586Y-66557111D01*
X46926262Y-66403972D01*
X46796028Y-66273738D01*
X46642889Y-66171414D01*
X46472729Y-66100932D01*
X46292089Y-66065000D01*
X46107911Y-66065000D01*
X45927271Y-66100932D01*
X45757111Y-66171414D01*
X45653203Y-66240843D01*
X42354999Y-66240843D01*
X44285842Y-64310000D01*
X46387710Y-64310000D01*
X46403972Y-64326262D01*
X46557111Y-64428586D01*
X46727271Y-64499068D01*
X46907911Y-64535000D01*
X47092089Y-64535000D01*
X47272729Y-64499068D01*
X47442889Y-64428586D01*
X47596028Y-64326262D01*
X47726262Y-64196028D01*
X47828586Y-64042889D01*
X47899068Y-63872729D01*
X47935000Y-63692089D01*
X47935000Y-63507911D01*
X47899068Y-63327271D01*
X47831233Y-63163502D01*
X47899068Y-62999732D01*
X47935000Y-62819092D01*
X47935000Y-62634914D01*
X47899068Y-62454274D01*
X47861469Y-62363501D01*
X47899068Y-62272729D01*
X47935000Y-62092089D01*
X47935000Y-61907911D01*
X47899068Y-61727271D01*
X47852171Y-61614050D01*
X78085950Y-61614050D01*
X78085951Y-108565950D01*
X66463423Y-108565950D01*
X66510000Y-108347000D01*
X66510000Y-107897000D01*
X65502000Y-107897000D01*
X65502000Y-107917000D01*
X65248000Y-107917000D01*
X65248000Y-107897000D01*
X65228000Y-107897000D01*
X65228000Y-107643000D01*
X65248000Y-107643000D01*
X65248000Y-106352046D01*
X65502000Y-106352046D01*
X65502000Y-107643000D01*
X66510000Y-107643000D01*
X66510000Y-107193000D01*
X66463415Y-106974013D01*
X66375003Y-106768322D01*
X66248161Y-106583831D01*
X66087764Y-106427631D01*
X65899976Y-106305724D01*
X65676874Y-106225881D01*
X65502000Y-106352046D01*
X65248000Y-106352046D01*
X65073126Y-106225881D01*
X64850024Y-106305724D01*
X64662236Y-106427631D01*
X64501839Y-106583831D01*
X64374997Y-106768322D01*
X64341491Y-106846274D01*
X64308991Y-106813546D01*
X64301579Y-106807501D01*
X64236936Y-106755527D01*
X64185001Y-106721542D01*
X64133517Y-106686816D01*
X64125072Y-106682326D01*
X64051566Y-106643898D01*
X63994001Y-106620640D01*
X63936768Y-106596582D01*
X63927612Y-106593817D01*
X63848041Y-106570398D01*
X63787031Y-106558760D01*
X63726242Y-106546281D01*
X63716724Y-106545347D01*
X63634120Y-106537830D01*
X63572031Y-106538263D01*
X63509942Y-106537830D01*
X63500424Y-106538763D01*
X63417933Y-106547434D01*
X63357102Y-106559922D01*
X63296143Y-106571550D01*
X63286987Y-106574314D01*
X63207751Y-106598841D01*
X63150507Y-106622904D01*
X63092948Y-106646159D01*
X63084503Y-106650649D01*
X63011540Y-106690100D01*
X62960073Y-106724815D01*
X62908124Y-106758809D01*
X62900712Y-106764854D01*
X62836800Y-106817725D01*
X62793045Y-106861786D01*
X62748689Y-106905224D01*
X62742592Y-106912593D01*
X62690168Y-106976872D01*
X62655812Y-107028583D01*
X62620737Y-107079809D01*
X62616188Y-107088223D01*
X62577248Y-107161459D01*
X62553599Y-107218838D01*
X62529133Y-107275920D01*
X62526305Y-107285057D01*
X62502331Y-107364462D01*
X62490280Y-107425323D01*
X62477363Y-107486095D01*
X62476363Y-107495606D01*
X62468269Y-107578157D01*
X62468269Y-107578164D01*
X62465000Y-107611354D01*
X62465001Y-108535000D01*
X59935000Y-108535000D01*
X59935000Y-107611353D01*
X59931689Y-107577737D01*
X59931689Y-107572220D01*
X59930690Y-107562708D01*
X59926743Y-107527523D01*
X59925088Y-107510717D01*
X59924723Y-107509515D01*
X59921444Y-107480280D01*
X59908528Y-107419514D01*
X59896477Y-107358654D01*
X59893649Y-107349517D01*
X59893648Y-107349512D01*
X59893646Y-107349507D01*
X59868569Y-107270454D01*
X59844108Y-107213382D01*
X59820450Y-107155984D01*
X59815901Y-107147570D01*
X59775941Y-107074884D01*
X59740862Y-107023653D01*
X59706511Y-106971951D01*
X59700415Y-106964581D01*
X59647099Y-106901041D01*
X59602741Y-106857602D01*
X59558991Y-106813546D01*
X59551579Y-106807501D01*
X59486936Y-106755527D01*
X59435001Y-106721542D01*
X59383517Y-106686816D01*
X59375072Y-106682326D01*
X59301566Y-106643898D01*
X59244001Y-106620640D01*
X59186768Y-106596582D01*
X59177612Y-106593817D01*
X59098041Y-106570398D01*
X59037031Y-106558760D01*
X58976242Y-106546281D01*
X58966724Y-106545347D01*
X58884120Y-106537830D01*
X58822031Y-106538263D01*
X58759942Y-106537830D01*
X58750424Y-106538763D01*
X58667933Y-106547434D01*
X58607102Y-106559922D01*
X58546143Y-106571550D01*
X58536987Y-106574314D01*
X58457751Y-106598841D01*
X58400507Y-106622904D01*
X58342948Y-106646159D01*
X58334503Y-106650649D01*
X58261540Y-106690100D01*
X58210073Y-106724815D01*
X58158124Y-106758809D01*
X58150712Y-106764854D01*
X58086800Y-106817725D01*
X58058491Y-106846232D01*
X58025003Y-106768322D01*
X57898161Y-106583831D01*
X57737764Y-106427631D01*
X57549976Y-106305724D01*
X57326874Y-106225881D01*
X57152000Y-106352046D01*
X57152000Y-107643000D01*
X57172000Y-107643000D01*
X57172000Y-107897000D01*
X57152000Y-107897000D01*
X57152000Y-107917000D01*
X56898000Y-107917000D01*
X56898000Y-107897000D01*
X55890000Y-107897000D01*
X55890000Y-108347000D01*
X55936577Y-108565950D01*
X26054050Y-108565950D01*
X26054050Y-107036890D01*
X26498524Y-107036890D01*
X26543175Y-107184099D01*
X26668359Y-107446920D01*
X26842412Y-107680269D01*
X27058645Y-107875178D01*
X27308748Y-108024157D01*
X27583109Y-108121481D01*
X27813000Y-108000814D01*
X27813000Y-106807000D01*
X28067000Y-106807000D01*
X28067000Y-108000814D01*
X28296891Y-108121481D01*
X28571252Y-108024157D01*
X28821355Y-107875178D01*
X29037588Y-107680269D01*
X29211641Y-107446920D01*
X29332585Y-107193000D01*
X55890000Y-107193000D01*
X55890000Y-107643000D01*
X56898000Y-107643000D01*
X56898000Y-106352046D01*
X56723126Y-106225881D01*
X56500024Y-106305724D01*
X56312236Y-106427631D01*
X56151839Y-106583831D01*
X56024997Y-106768322D01*
X55936585Y-106974013D01*
X55890000Y-107193000D01*
X29332585Y-107193000D01*
X29336825Y-107184099D01*
X29381476Y-107036890D01*
X29260155Y-106807000D01*
X28067000Y-106807000D01*
X27813000Y-106807000D01*
X26619845Y-106807000D01*
X26498524Y-107036890D01*
X26054050Y-107036890D01*
X26054050Y-61614050D01*
X44181858Y-61614050D01*
X34955914Y-70839995D01*
G37*
G04 #@! TD.AperFunction*
M02*
